src.ufo
<glyph name="hyphen" format="1">
  <advance width="420"/>
  <unicode hex="002D"/>
  <unicode hex="00AD"/>
  <unicode hex="2010"/>
  <outline>
    <contour>
      <point x="76" y="257" type="curve"/>
      <point x="344" y="257" type="line" smooth="yes"/>
      <point x="369" y="257"/>
      <point x="380" y="267"/>
      <point x="380" y="293" type="curve" smooth="yes"/>
      <point x="380" y="427" type="line" smooth="yes"/>
      <point x="380" y="453"/>
      <point x="369" y="463"/>
      <point x="344" y="463" type="curve" smooth="yes"/>
      <point x="76" y="463" type="line" smooth="yes"/>
      <point x="51" y="463"/>
      <point x="40" y="452"/>
      <point x="40" y="427" type="curve" smooth="yes"/>
      <point x="40" y="293" type="line" smooth="yes"/>
      <point x="40" y="267"/>
      <point x="51" y="257"/>
    </contour>
  </outline>
</glyph>
<glyph name="less" format="1">
  <advance width="714"/>
  <unicode hex="003C"/>
  <outline>
    <contour>
      <point x="588" y="59" type="line" smooth="yes"/>
      <point x="613" y="54"/>
      <point x="624" y="64"/>
      <point x="624" y="90" type="curve" smooth="yes"/>
      <point x="624" y="222" type="line" smooth="yes"/>
      <point x="624" y="248"/>
      <point x="613" y="259"/>
      <point x="588" y="263" type="curve" smooth="yes"/>
      <point x="301" y="340" type="line" smooth="yes"/>
      <point x="287" y="343"/>
      <point x="284" y="347"/>
      <point x="284" y="359" type="curve" smooth="yes"/>
      <point x="284" y="371"/>
      <point x="287" y="375"/>
      <point x="301" y="378" type="curve" smooth="yes"/>
      <point x="588" y="455" type="line" smooth="yes"/>
      <point x="613" y="459"/>
      <point x="624" y="470"/>
      <point x="624" y="496" type="curve" smooth="yes"/>
      <point x="624" y="628" type="line" smooth="yes"/>
      <point x="624" y="654"/>
      <point x="613" y="664"/>
      <point x="588" y="659" type="curve" smooth="yes"/>
      <point x="207" y="550" type="line" smooth="yes"/>
      <point x="124" y="526"/>
      <point x="80" y="494"/>
      <point x="80" y="395" type="curve" smooth="yes"/>
      <point x="80" y="323" type="line" smooth="yes"/>
      <point x="80" y="224"/>
      <point x="124" y="192"/>
      <point x="207" y="168" type="curve"/>
    </contour>
  </outline>
</glyph>
<glyph name="j" format="1">
  <advance width="688"/>
  <unicode hex="006A"/>
  <outline>
    <contour>
      <point x="624" y="189" type="curve" smooth="yes"/>
      <point x="624" y="684" type="line" smooth="yes"/>
      <point x="624" y="709"/>
      <point x="613" y="720"/>
      <point x="588" y="720" type="curve" smooth="yes"/>
      <point x="431" y="720" type="line" smooth="yes"/>
      <point x="406" y="720"/>
      <point x="395" y="709"/>
      <point x="395" y="684" type="curve" smooth="yes"/>
      <point x="395" y="229" type="line" smooth="yes"/>
      <point x="395" y="202"/>
      <point x="387" y="182"/>
      <point x="329" y="182" type="curve" smooth="yes"/>
      <point x="267" y="182"/>
      <point x="258" y="202"/>
      <point x="258" y="229" type="curve" smooth="yes"/>
      <point x="258" y="351" type="line" smooth="yes"/>
      <point x="258" y="377"/>
      <point x="247" y="387"/>
      <point x="222" y="387" type="curve" smooth="yes"/>
      <point x="77" y="387" type="line" smooth="yes"/>
      <point x="52" y="387"/>
      <point x="41" y="377"/>
      <point x="41" y="351" type="curve" smooth="yes"/>
      <point x="41" y="189" type="line" smooth="yes"/>
      <point x="41" y="67"/>
      <point x="98" y="-15"/>
      <point x="331" y="-15" type="curve" smooth="yes"/>
      <point x="566" y="-15"/>
      <point x="624" y="67"/>
    </contour>
  </outline>
</glyph>
<glyph name="o" format="1">
  <advance width="737"/>
  <unicode hex="006F"/>
  <outline>
    <contour>
      <point x="679" y="189" type="curve" smooth="yes"/>
      <point x="679" y="530" type="line" smooth="yes"/>
      <point x="679" y="652"/>
      <point x="619" y="735"/>
      <point x="369" y="735" type="curve" smooth="yes"/>
      <point x="119" y="735"/>
      <point x="58" y="652"/>
      <point x="58" y="530" type="curve" smooth="yes"/>
      <point x="58" y="189" type="line" smooth="yes"/>
      <point x="58" y="67"/>
      <point x="119" y="-15"/>
      <point x="369" y="-15" type="curve" smooth="yes"/>
      <point x="619" y="-15"/>
      <point x="679" y="67"/>
    </contour>
    <contour>
      <point x="285" y="225" type="curve" smooth="yes"/>
      <point x="285" y="494" type="line" smooth="yes"/>
      <point x="285" y="520"/>
      <point x="297" y="540"/>
      <point x="369" y="540" type="curve" smooth="yes"/>
      <point x="442" y="540"/>
      <point x="453" y="520"/>
      <point x="453" y="494" type="curve" smooth="yes"/>
      <point x="453" y="225" type="line" smooth="yes"/>
      <point x="453" y="198"/>
      <point x="442" y="178"/>
      <point x="369" y="178" type="curve" smooth="yes"/>
      <point x="297" y="178"/>
      <point x="285" y="198"/>
    </contour>
  </outline>
</glyph>
<glyph name="u" format="1">
  <advance width="746"/>
  <unicode hex="0075"/>
  <outline>
    <contour>
      <point x="682" y="189" type="curve" smooth="yes"/>
      <point x="682" y="684" type="line" smooth="yes"/>
      <point x="682" y="709"/>
      <point x="671" y="720"/>
      <point x="646" y="720" type="curve" smooth="yes"/>
      <point x="494" y="720" type="line" smooth="yes"/>
      <point x="468" y="720"/>
      <point x="458" y="709"/>
      <point x="458" y="684" type="curve" smooth="yes"/>
      <point x="458" y="228" type="line" smooth="yes"/>
      <point x="458" y="201"/>
      <point x="446" y="181"/>
      <point x="375" y="181" type="curve" smooth="yes"/>
      <point x="305" y="181"/>
      <point x="293" y="201"/>
      <point x="293" y="228" type="curve" smooth="yes"/>
      <point x="293" y="684" type="line" smooth="yes"/>
      <point x="293" y="709"/>
      <point x="282" y="720"/>
      <point x="257" y="720" type="curve" smooth="yes"/>
      <point x="100" y="720" type="line" smooth="yes"/>
      <point x="75" y="720"/>
      <point x="64" y="709"/>
      <point x="64" y="684" type="curve" smooth="yes"/>
      <point x="64" y="189" type="line" smooth="yes"/>
      <point x="64" y="67"/>
      <point x="125" y="-15"/>
      <point x="373" y="-15" type="curve" smooth="yes"/>
      <point x="621" y="-15"/>
      <point x="682" y="67"/>
    </contour>
  </outline>
</glyph>
<glyph name="plusminus" format="1">
  <advance width="734"/>
  <unicode hex="00B1"/>
  <outline>
    <contour>
      <point x="664" y="37" type="curve" smooth="yes"/>
      <point x="664" y="151" type="line" smooth="yes"/>
      <point x="664" y="177"/>
      <point x="653" y="187"/>
      <point x="628" y="187" type="curve" smooth="yes"/>
      <point x="465" y="187" type="line"/>
      <point x="465" y="329" type="line"/>
      <point x="628" y="329" type="line" smooth="yes"/>
      <point x="653" y="329"/>
      <point x="664" y="339"/>
      <point x="664" y="365" type="curve" smooth="yes"/>
      <point x="664" y="479" type="line" smooth="yes"/>
      <point x="664" y="505"/>
      <point x="653" y="515"/>
      <point x="628" y="515" type="curve" smooth="yes"/>
      <point x="465" y="515" type="line"/>
      <point x="465" y="683" type="line" smooth="yes"/>
      <point x="465" y="708"/>
      <point x="454" y="719"/>
      <point x="429" y="719" type="curve" smooth="yes"/>
      <point x="305" y="719" type="line" smooth="yes"/>
      <point x="279" y="719"/>
      <point x="269" y="708"/>
      <point x="269" y="683" type="curve"/>
      <point x="269" y="515" type="line"/>
      <point x="106" y="515" type="line" smooth="yes"/>
      <point x="81" y="515"/>
      <point x="70" y="504"/>
      <point x="70" y="479" type="curve" smooth="yes"/>
      <point x="70" y="365" type="line" smooth="yes"/>
      <point x="70" y="339"/>
      <point x="81" y="329"/>
      <point x="106" y="329" type="curve"/>
      <point x="269" y="329" type="line"/>
      <point x="269" y="187" type="line"/>
      <point x="106" y="187" type="line" smooth="yes"/>
      <point x="81" y="187"/>
      <point x="70" y="176"/>
      <point x="70" y="151" type="curve" smooth="yes"/>
      <point x="70" y="37" type="line" smooth="yes"/>
      <point x="70" y="11"/>
      <point x="81" y="1"/>
      <point x="106" y="1" type="curve"/>
      <point x="628" y="1" type="line" smooth="yes"/>
      <point x="653" y="1"/>
      <point x="664" y="11"/>
    </contour>
  </outline>
</glyph>
<glyph name="periodcentered" format="1">
  <advance width="364"/>
  <unicode hex="00B7"/>
  <unicode hex="2219"/>
  <outline>
    <contour>
      <point x="283" y="220" type="line" smooth="yes"/>
      <point x="308" y="220"/>
      <point x="319" y="231"/>
      <point x="319" y="256" type="curve" smooth="yes"/>
      <point x="319" y="459" type="line" smooth="yes"/>
      <point x="319" y="485"/>
      <point x="308" y="495"/>
      <point x="283" y="495" type="curve" smooth="yes"/>
      <point x="81" y="495" type="line" smooth="yes"/>
      <point x="56" y="495"/>
      <point x="45" y="485"/>
      <point x="45" y="459" type="curve"/>
      <point x="45" y="256" type="line"/>
      <point x="45" y="231"/>
      <point x="56" y="220"/>
      <point x="81" y="220" type="curve" smooth="yes"/>
    </contour>
  </outline>
</glyph>
<glyph name="onequarter" format="1">
  <advance width="1202.89700041"/>
  <unicode hex="00BC"/>
  <outline>
    <contour>
      <point x="392" y="202" type="line" smooth="yes"/>
      <point x="410" y="202"/>
      <point x="418" y="210"/>
      <point x="418" y="228" type="curve"/>
      <point x="418" y="315" type="line" smooth="yes"/>
      <point x="418" y="333"/>
      <point x="410" y="341"/>
      <point x="392" y="341" type="curve"/>
      <point x="323" y="341" type="line"/>
      <point x="323" y="694" type="line" smooth="yes"/>
      <point x="323" y="712"/>
      <point x="315" y="720"/>
      <point x="297" y="720" type="curve" smooth="yes"/>
      <point x="88" y="720" type="line" smooth="yes"/>
      <point x="70" y="720"/>
      <point x="62" y="712"/>
      <point x="62" y="694" type="curve" smooth="yes"/>
      <point x="62" y="607" type="line" smooth="yes"/>
      <point x="62" y="589"/>
      <point x="70" y="581"/>
      <point x="88" y="581" type="curve" smooth="yes"/>
      <point x="155" y="581" type="line"/>
      <point x="155" y="341" type="line"/>
      <point x="74" y="341" type="line" smooth="yes"/>
      <point x="56" y="341"/>
      <point x="48" y="333"/>
      <point x="48" y="315" type="curve"/>
      <point x="48" y="228" type="line"/>
      <point x="48" y="210"/>
      <point x="56" y="202"/>
      <point x="74" y="202" type="curve" smooth="yes"/>
    </contour>
    <contour>
      <point x="425" y="36" type="line" smooth="yes"/>
      <point x="420" y="11"/>
      <point x="436" y="0"/>
      <point x="461" y="0" type="curve" smooth="yes"/>
      <point x="576" y="0" type="line" smooth="yes"/>
      <point x="601" y="0"/>
      <point x="607" y="11"/>
      <point x="612" y="36" type="curve" smooth="yes"/>
      <point x="732" y="684" type="line" smooth="yes"/>
      <point x="737" y="709"/>
      <point x="721" y="720"/>
      <point x="696" y="720" type="curve" smooth="yes"/>
      <point x="581" y="720" type="line" smooth="yes"/>
      <point x="556" y="720"/>
      <point x="550" y="709"/>
      <point x="545" y="684" type="curve" smooth="yes"/>
    </contour>
    <contour>
      <point x="991" y="120" type="line"/>
      <point x="991" y="26" type="line" smooth="yes"/>
      <point x="991" y="8"/>
      <point x="999" y="0"/>
      <point x="1017" y="0" type="curve" smooth="yes"/>
      <point x="1128" y="0" type="line" smooth="yes"/>
      <point x="1146" y="0"/>
      <point x="1153" y="8"/>
      <point x="1153" y="26" type="curve" smooth="yes"/>
      <point x="1153" y="492" type="line" smooth="yes"/>
      <point x="1153" y="510"/>
      <point x="1146" y="518"/>
      <point x="1128" y="518" type="curve" smooth="yes"/>
      <point x="1017" y="518" type="line" smooth="yes"/>
      <point x="999" y="518"/>
      <point x="991" y="510"/>
      <point x="991" y="492" type="curve" smooth="yes"/>
      <point x="991" y="270" type="line"/>
      <point x="924" y="270" type="line" smooth="yes"/>
      <point x="910" y="270"/>
      <point x="901" y="280"/>
      <point x="901" y="295" type="curve" smooth="yes"/>
      <point x="901" y="492" type="line" smooth="yes"/>
      <point x="901" y="510"/>
      <point x="894" y="518"/>
      <point x="876" y="518" type="curve" smooth="yes"/>
      <point x="764" y="518" type="line" smooth="yes"/>
      <point x="746" y="518"/>
      <point x="738" y="510"/>
      <point x="738" y="492" type="curve" smooth="yes"/>
      <point x="738" y="239" type="line" smooth="yes"/>
      <point x="738" y="157"/>
      <point x="775" y="120"/>
      <point x="869" y="120" type="curve" smooth="yes"/>
    </contour>
  </outline>
</glyph>
<glyph name="onehalf" format="1">
  <advance width="1160.44911913"/>
  <unicode hex="00BD"/>
  <outline>
    <contour>
      <point x="392" y="202" type="line" smooth="yes"/>
      <point x="410" y="202"/>
      <point x="418" y="210"/>
      <point x="418" y="228" type="curve"/>
      <point x="418" y="315" type="line" smooth="yes"/>
      <point x="418" y="333"/>
      <point x="410" y="341"/>
      <point x="392" y="341" type="curve"/>
      <point x="323" y="341" type="line"/>
      <point x="323" y="694" type="line" smooth="yes"/>
      <point x="323" y="712"/>
      <point x="315" y="720"/>
      <point x="297" y="720" type="curve" smooth="yes"/>
      <point x="88" y="720" type="line" smooth="yes"/>
      <point x="70" y="720"/>
      <point x="62" y="712"/>
      <point x="62" y="694" type="curve" smooth="yes"/>
      <point x="62" y="607" type="line" smooth="yes"/>
      <point x="62" y="589"/>
      <point x="70" y="581"/>
      <point x="88" y="581" type="curve" smooth="yes"/>
      <point x="155" y="581" type="line"/>
      <point x="155" y="341" type="line"/>
      <point x="74" y="341" type="line" smooth="yes"/>
      <point x="56" y="341"/>
      <point x="48" y="333"/>
      <point x="48" y="315" type="curve"/>
      <point x="48" y="228" type="line"/>
      <point x="48" y="210"/>
      <point x="56" y="202"/>
      <point x="74" y="202" type="curve" smooth="yes"/>
    </contour>
    <contour>
      <point x="425" y="36" type="line" smooth="yes"/>
      <point x="420" y="11"/>
      <point x="436" y="0"/>
      <point x="461" y="0" type="curve" smooth="yes"/>
      <point x="576" y="0" type="line" smooth="yes"/>
      <point x="601" y="0"/>
      <point x="607" y="11"/>
      <point x="612" y="36" type="curve" smooth="yes"/>
      <point x="732" y="684" type="line" smooth="yes"/>
      <point x="737" y="709"/>
      <point x="721" y="720"/>
      <point x="696" y="720" type="curve" smooth="yes"/>
      <point x="581" y="720" type="line" smooth="yes"/>
      <point x="556" y="720"/>
      <point x="550" y="709"/>
      <point x="545" y="684" type="curve" smooth="yes"/>
    </contour>
    <contour>
      <point x="1083" y="0" type="line" smooth="yes"/>
      <point x="1101" y="0"/>
      <point x="1109" y="8"/>
      <point x="1109" y="26" type="curve" smooth="yes"/>
      <point x="1109" y="110" type="line" smooth="yes"/>
      <point x="1109" y="128"/>
      <point x="1101" y="136"/>
      <point x="1083" y="136" type="curve"/>
      <point x="878" y="136" type="line"/>
      <point x="878" y="151" type="line" smooth="yes"/>
      <point x="878" y="167"/>
      <point x="882" y="168"/>
      <point x="897" y="173" type="curve" smooth="yes"/>
      <point x="995" y="204" type="line" smooth="yes"/>
      <point x="1065" y="225"/>
      <point x="1107" y="258"/>
      <point x="1107" y="331" type="curve" smooth="yes"/>
      <point x="1107" y="399" type="line" smooth="yes"/>
      <point x="1107" y="476"/>
      <point x="1062" y="518"/>
      <point x="980" y="518" type="curve" smooth="yes"/>
      <point x="768" y="518" type="line" smooth="yes"/>
      <point x="750" y="518"/>
      <point x="742" y="510"/>
      <point x="742" y="492" type="curve" smooth="yes"/>
      <point x="742" y="408" type="line" smooth="yes"/>
      <point x="742" y="390"/>
      <point x="750" y="382"/>
      <point x="768" y="382" type="curve" smooth="yes"/>
      <point x="924" y="382" type="line" smooth="yes"/>
      <point x="939" y="382"/>
      <point x="944" y="378"/>
      <point x="944" y="363" type="curve" smooth="yes"/>
      <point x="944" y="348"/>
      <point x="939" y="342"/>
      <point x="924" y="337" type="curve" smooth="yes"/>
      <point x="828" y="307" type="line" smooth="yes"/>
      <point x="762" y="287"/>
      <point x="715" y="261"/>
      <point x="715" y="150" type="curve" smooth="yes"/>
      <point x="715" y="26" type="line" smooth="yes"/>
      <point x="715" y="8"/>
      <point x="723" y="0"/>
      <point x="741" y="0" type="curve" smooth="yes"/>
    </contour>
  </outline>
</glyph>
<glyph name="Ecircumflex" format="1">
  <advance width="654"/>
  <unicode hex="00CA"/>
  <outline>
    <contour>
      <point x="305" y="797" type="line"/>
      <point x="328" y="803"/>
      <point x="344" y="803"/>
      <point x="367" y="797" type="curve"/>
      <point x="504" y="757" type="line" smooth="yes"/>
      <point x="539" y="746"/>
      <point x="546" y="752"/>
      <point x="546" y="788" type="curve" smooth="yes"/>
      <point x="546" y="869" type="line" smooth="yes"/>
      <point x="546" y="905"/>
      <point x="538" y="909"/>
      <point x="504" y="922" type="curve" smooth="yes"/>
      <point x="367" y="972" type="line" smooth="yes"/>
      <point x="357" y="976"/>
      <point x="347" y="977"/>
      <point x="335" y="977" type="curve" smooth="yes"/>
      <point x="323" y="976"/>
      <point x="308" y="973"/>
      <point x="296" y="968" type="curve" smooth="yes"/>
      <point x="168" y="922" type="line" smooth="yes"/>
      <point x="136" y="909"/>
      <point x="127" y="905"/>
      <point x="127" y="869" type="curve" smooth="yes"/>
      <point x="127" y="788" type="line" smooth="yes"/>
      <point x="127" y="752"/>
      <point x="134" y="746"/>
      <point x="168" y="757" type="curve" smooth="yes"/>
    </contour>
    <contour>
      <point x="569" y="0" type="line" smooth="yes"/>
      <point x="594" y="0"/>
      <point x="605" y="11"/>
      <point x="605" y="36" type="curve" smooth="yes"/>
      <point x="605" y="153" type="line" smooth="yes"/>
      <point x="605" y="178"/>
      <point x="594" y="189"/>
      <point x="569" y="189" type="curve" smooth="yes"/>
      <point x="293" y="189" type="line"/>
      <point x="293" y="275" type="line"/>
      <point x="488" y="275" type="line" smooth="yes"/>
      <point x="513" y="275"/>
      <point x="524" y="286"/>
      <point x="524" y="311" type="curve" smooth="yes"/>
      <point x="524" y="418" type="line" smooth="yes"/>
      <point x="524" y="443"/>
      <point x="513" y="454"/>
      <point x="488" y="454" type="curve" smooth="yes"/>
      <point x="293" y="454" type="line"/>
      <point x="293" y="531" type="line"/>
      <point x="569" y="531" type="line" smooth="yes"/>
      <point x="594" y="531"/>
      <point x="605" y="542"/>
      <point x="605" y="567" type="curve" smooth="yes"/>
      <point x="605" y="684" type="line" smooth="yes"/>
      <point x="605" y="709"/>
      <point x="594" y="720"/>
      <point x="569" y="720" type="curve" smooth="yes"/>
      <point x="105" y="720" type="line" smooth="yes"/>
      <point x="80" y="720"/>
      <point x="69" y="709"/>
      <point x="69" y="684" type="curve" smooth="yes"/>
      <point x="69" y="36" type="line" smooth="yes"/>
      <point x="69" y="11"/>
      <point x="80" y="0"/>
      <point x="105" y="0" type="curve" smooth="yes"/>
    </contour>
  </outline>
</glyph>
<glyph name="Igrave" format="1">
  <advance width="605"/>
  <unicode hex="00CC"/>
  <outline>
    <contour>
      <point x="477" y="753" type="line" smooth="yes"/>
      <point x="500" y="750"/>
      <point x="511" y="763"/>
      <point x="511" y="786" type="curve" smooth="yes"/>
      <point x="511" y="882" type="line" smooth="yes"/>
      <point x="511" y="907"/>
      <point x="500" y="915"/>
      <point x="475" y="918" type="curve" smooth="yes"/>
      <point x="126" y="961" type="line" smooth="yes"/>
      <point x="103" y="964"/>
      <point x="92" y="951"/>
      <point x="92" y="928" type="curve" smooth="yes"/>
      <point x="92" y="832" type="line" smooth="yes"/>
      <point x="92" y="807"/>
      <point x="103" y="799"/>
      <point x="128" y="796" type="curve" smooth="yes"/>
    </contour>
    <contour>
      <point x="89" y="0" type="curve" smooth="yes"/>
      <point x="515" y="0" type="line" smooth="yes"/>
      <point x="540" y="0"/>
      <point x="551" y="11"/>
      <point x="551" y="36" type="curve" smooth="yes"/>
      <point x="551" y="155" type="line" smooth="yes"/>
      <point x="551" y="180"/>
      <point x="540" y="191"/>
      <point x="515" y="191" type="curve" smooth="yes"/>
      <point x="418" y="191" type="line"/>
      <point x="418" y="527" type="line"/>
      <point x="515" y="527" type="line" smooth="yes"/>
      <point x="540" y="527"/>
      <point x="551" y="538"/>
      <point x="551" y="563" type="curve" smooth="yes"/>
      <point x="551" y="684" type="line" smooth="yes"/>
      <point x="551" y="709"/>
      <point x="540" y="720"/>
      <point x="515" y="720" type="curve" smooth="yes"/>
      <point x="89" y="720" type="line" smooth="yes"/>
      <point x="64" y="720"/>
      <point x="53" y="709"/>
      <point x="53" y="684" type="curve" smooth="yes"/>
      <point x="53" y="563" type="line" smooth="yes"/>
      <point x="53" y="538"/>
      <point x="64" y="527"/>
      <point x="89" y="527" type="curve" smooth="yes"/>
      <point x="188" y="527" type="line"/>
      <point x="188" y="191" type="line"/>
      <point x="89" y="191" type="line" smooth="yes"/>
      <point x="64" y="191"/>
      <point x="53" y="180"/>
      <point x="53" y="155" type="curve" smooth="yes"/>
      <point x="53" y="36" type="line" smooth="yes"/>
      <point x="53" y="11"/>
      <point x="64" y="0"/>
    </contour>
  </outline>
</glyph>
<glyph name="Icircumflex" format="1">
  <advance width="605"/>
  <unicode hex="00CE"/>
  <outline>
    <contour>
      <point x="270" y="797" type="line"/>
      <point x="293" y="803"/>
      <point x="309" y="803"/>
      <point x="332" y="797" type="curve"/>
      <point x="469" y="757" type="line" smooth="yes"/>
      <point x="504" y="746"/>
      <point x="511" y="752"/>
      <point x="511" y="788" type="curve" smooth="yes"/>
      <point x="511" y="869" type="line" smooth="yes"/>
      <point x="511" y="905"/>
      <point x="503" y="909"/>
      <point x="469" y="922" type="curve" smooth="yes"/>
      <point x="332" y="972" type="line" smooth="yes"/>
      <point x="322" y="976"/>
      <point x="312" y="977"/>
      <point x="300" y="977" type="curve" smooth="yes"/>
      <point x="288" y="976"/>
      <point x="273" y="973"/>
      <point x="261" y="968" type="curve" smooth="yes"/>
      <point x="133" y="922" type="line" smooth="yes"/>
      <point x="101" y="909"/>
      <point x="92" y="905"/>
      <point x="92" y="869" type="curve" smooth="yes"/>
      <point x="92" y="788" type="line" smooth="yes"/>
      <point x="92" y="752"/>
      <point x="99" y="746"/>
      <point x="133" y="757" type="curve" smooth="yes"/>
    </contour>
    <contour>
      <point x="89" y="0" type="curve" smooth="yes"/>
      <point x="515" y="0" type="line" smooth="yes"/>
      <point x="540" y="0"/>
      <point x="551" y="11"/>
      <point x="551" y="36" type="curve" smooth="yes"/>
      <point x="551" y="155" type="line" smooth="yes"/>
      <point x="551" y="180"/>
      <point x="540" y="191"/>
      <point x="515" y="191" type="curve" smooth="yes"/>
      <point x="418" y="191" type="line"/>
      <point x="418" y="527" type="line"/>
      <point x="515" y="527" type="line" smooth="yes"/>
      <point x="540" y="527"/>
      <point x="551" y="538"/>
      <point x="551" y="563" type="curve" smooth="yes"/>
      <point x="551" y="684" type="line" smooth="yes"/>
      <point x="551" y="709"/>
      <point x="540" y="720"/>
      <point x="515" y="720" type="curve" smooth="yes"/>
      <point x="89" y="720" type="line" smooth="yes"/>
      <point x="64" y="720"/>
      <point x="53" y="709"/>
      <point x="53" y="684" type="curve" smooth="yes"/>
      <point x="53" y="563" type="line" smooth="yes"/>
      <point x="53" y="538"/>
      <point x="64" y="527"/>
      <point x="89" y="527" type="curve" smooth="yes"/>
      <point x="188" y="527" type="line"/>
      <point x="188" y="191" type="line"/>
      <point x="89" y="191" type="line" smooth="yes"/>
      <point x="64" y="191"/>
      <point x="53" y="180"/>
      <point x="53" y="155" type="curve" smooth="yes"/>
      <point x="53" y="36" type="line" smooth="yes"/>
      <point x="53" y="11"/>
      <point x="64" y="0"/>
    </contour>
  </outline>
</glyph>
<glyph name="Idieresis" format="1">
  <advance width="605"/>
  <unicode hex="00CF"/>
  <outline>
    <contour>
      <point x="240" y="760" type="line" smooth="yes"/>
      <point x="263" y="760"/>
      <point x="273" y="770"/>
      <point x="273" y="793" type="curve" smooth="yes"/>
      <point x="273" y="914" type="line" smooth="yes"/>
      <point x="273" y="937"/>
      <point x="263" y="947"/>
      <point x="240" y="947" type="curve" smooth="yes"/>
      <point x="102" y="947" type="line" smooth="yes"/>
      <point x="79" y="947"/>
      <point x="68" y="937"/>
      <point x="68" y="914" type="curve" smooth="yes"/>
      <point x="68" y="793" type="line" smooth="yes"/>
      <point x="68" y="770"/>
      <point x="79" y="760"/>
      <point x="102" y="760" type="curve" smooth="yes"/>
    </contour>
    <contour>
      <point x="498" y="760" type="line" smooth="yes"/>
      <point x="521" y="760"/>
      <point x="531" y="770"/>
      <point x="531" y="793" type="curve" smooth="yes"/>
      <point x="531" y="914" type="line" smooth="yes"/>
      <point x="531" y="937"/>
      <point x="521" y="947"/>
      <point x="498" y="947" type="curve" smooth="yes"/>
      <point x="360" y="947" type="line" smooth="yes"/>
      <point x="337" y="947"/>
      <point x="327" y="937"/>
      <point x="327" y="914" type="curve" smooth="yes"/>
      <point x="327" y="793" type="line" smooth="yes"/>
      <point x="327" y="770"/>
      <point x="337" y="760"/>
      <point x="360" y="760" type="curve" smooth="yes"/>
    </contour>
    <contour>
      <point x="89" y="0" type="curve" smooth="yes"/>
      <point x="515" y="0" type="line" smooth="yes"/>
      <point x="540" y="0"/>
      <point x="551" y="11"/>
      <point x="551" y="36" type="curve" smooth="yes"/>
      <point x="551" y="155" type="line" smooth="yes"/>
      <point x="551" y="180"/>
      <point x="540" y="191"/>
      <point x="515" y="191" type="curve" smooth="yes"/>
      <point x="418" y="191" type="line"/>
      <point x="418" y="527" type="line"/>
      <point x="515" y="527" type="line" smooth="yes"/>
      <point x="540" y="527"/>
      <point x="551" y="538"/>
      <point x="551" y="563" type="curve" smooth="yes"/>
      <point x="551" y="684" type="line" smooth="yes"/>
      <point x="551" y="709"/>
      <point x="540" y="720"/>
      <point x="515" y="720" type="curve" smooth="yes"/>
      <point x="89" y="720" type="line" smooth="yes"/>
      <point x="64" y="720"/>
      <point x="53" y="709"/>
      <point x="53" y="684" type="curve" smooth="yes"/>
      <point x="53" y="563" type="line" smooth="yes"/>
      <point x="53" y="538"/>
      <point x="64" y="527"/>
      <point x="89" y="527" type="curve" smooth="yes"/>
      <point x="188" y="527" type="line"/>
      <point x="188" y="191" type="line"/>
      <point x="89" y="191" type="line" smooth="yes"/>
      <point x="64" y="191"/>
      <point x="53" y="180"/>
      <point x="53" y="155" type="curve" smooth="yes"/>
      <point x="53" y="36" type="line" smooth="yes"/>
      <point x="53" y="11"/>
      <point x="64" y="0"/>
    </contour>
  </outline>
</glyph>
<glyph name="Ograve" format="1">
  <advance width="737"/>
  <unicode hex="00D2"/>
  <outline>
    <contour>
      <point x="543" y="753" type="line" smooth="yes"/>
      <point x="566" y="750"/>
      <point x="577" y="763"/>
      <point x="577" y="786" type="curve" smooth="yes"/>
      <point x="577" y="882" type="line" smooth="yes"/>
      <point x="577" y="907"/>
      <point x="566" y="915"/>
      <point x="541" y="918" type="curve" smooth="yes"/>
      <point x="192" y="961" type="line" smooth="yes"/>
      <point x="169" y="964"/>
      <point x="158" y="951"/>
      <point x="158" y="928" type="curve" smooth="yes"/>
      <point x="158" y="832" type="line" smooth="yes"/>
      <point x="158" y="807"/>
      <point x="169" y="799"/>
      <point x="194" y="796" type="curve" smooth="yes"/>
    </contour>
    <contour>
      <point x="679" y="189" type="curve" smooth="yes"/>
      <point x="679" y="530" type="line" smooth="yes"/>
      <point x="679" y="652"/>
      <point x="619" y="735"/>
      <point x="369" y="735" type="curve" smooth="yes"/>
      <point x="119" y="735"/>
      <point x="58" y="652"/>
      <point x="58" y="530" type="curve" smooth="yes"/>
      <point x="58" y="189" type="line" smooth="yes"/>
      <point x="58" y="67"/>
      <point x="119" y="-15"/>
      <point x="369" y="-15" type="curve" smooth="yes"/>
      <point x="619" y="-15"/>
      <point x="679" y="67"/>
    </contour>
    <contour>
      <point x="285" y="225" type="curve" smooth="yes"/>
      <point x="285" y="494" type="line" smooth="yes"/>
      <point x="285" y="520"/>
      <point x="297" y="540"/>
      <point x="369" y="540" type="curve" smooth="yes"/>
      <point x="442" y="540"/>
      <point x="453" y="520"/>
      <point x="453" y="494" type="curve" smooth="yes"/>
      <point x="453" y="225" type="line" smooth="yes"/>
      <point x="453" y="198"/>
      <point x="442" y="178"/>
      <point x="369" y="178" type="curve" smooth="yes"/>
      <point x="297" y="178"/>
      <point x="285" y="198"/>
    </contour>
  </outline>
</glyph>
<glyph name="Odieresis" format="1">
  <advance width="737"/>
  <unicode hex="00D6"/>
  <outline>
    <contour>
      <point x="306" y="760" type="line" smooth="yes"/>
      <point x="329" y="760"/>
      <point x="339" y="770"/>
      <point x="339" y="793" type="curve" smooth="yes"/>
      <point x="339" y="914" type="line" smooth="yes"/>
      <point x="339" y="937"/>
      <point x="329" y="947"/>
      <point x="306" y="947" type="curve" smooth="yes"/>
      <point x="168" y="947" type="line" smooth="yes"/>
      <point x="145" y="947"/>
      <point x="134" y="937"/>
      <point x="134" y="914" type="curve" smooth="yes"/>
      <point x="134" y="793" type="line" smooth="yes"/>
      <point x="134" y="770"/>
      <point x="145" y="760"/>
      <point x="168" y="760" type="curve" smooth="yes"/>
    </contour>
    <contour>
      <point x="564" y="760" type="line" smooth="yes"/>
      <point x="587" y="760"/>
      <point x="597" y="770"/>
      <point x="597" y="793" type="curve" smooth="yes"/>
      <point x="597" y="914" type="line" smooth="yes"/>
      <point x="597" y="937"/>
      <point x="587" y="947"/>
      <point x="564" y="947" type="curve" smooth="yes"/>
      <point x="426" y="947" type="line" smooth="yes"/>
      <point x="403" y="947"/>
      <point x="393" y="937"/>
      <point x="393" y="914" type="curve" smooth="yes"/>
      <point x="393" y="793" type="line" smooth="yes"/>
      <point x="393" y="770"/>
      <point x="403" y="760"/>
      <point x="426" y="760" type="curve" smooth="yes"/>
    </contour>
    <contour>
      <point x="679" y="189" type="curve" smooth="yes"/>
      <point x="679" y="530" type="line" smooth="yes"/>
      <point x="679" y="652"/>
      <point x="619" y="735"/>
      <point x="369" y="735" type="curve" smooth="yes"/>
      <point x="119" y="735"/>
      <point x="58" y="652"/>
      <point x="58" y="530" type="curve" smooth="yes"/>
      <point x="58" y="189" type="line" smooth="yes"/>
      <point x="58" y="67"/>
      <point x="119" y="-15"/>
      <point x="369" y="-15" type="curve" smooth="yes"/>
      <point x="619" y="-15"/>
      <point x="679" y="67"/>
    </contour>
    <contour>
      <point x="285" y="225" type="curve" smooth="yes"/>
      <point x="285" y="494" type="line" smooth="yes"/>
      <point x="285" y="520"/>
      <point x="297" y="540"/>
      <point x="369" y="540" type="curve" smooth="yes"/>
      <point x="442" y="540"/>
      <point x="453" y="520"/>
      <point x="453" y="494" type="curve" smooth="yes"/>
      <point x="453" y="225" type="line" smooth="yes"/>
      <point x="453" y="198"/>
      <point x="442" y="178"/>
      <point x="369" y="178" type="curve" smooth="yes"/>
      <point x="297" y="178"/>
      <point x="285" y="198"/>
    </contour>
  </outline>
</glyph>
<glyph name="Uacute" format="1">
  <advance width="746"/>
  <unicode hex="00DA"/>
  <outline>
    <contour>
      <point x="556" y="796" type="line" smooth="yes"/>
      <point x="581" y="799"/>
      <point x="592" y="807"/>
      <point x="592" y="832" type="curve" smooth="yes"/>
      <point x="592" y="928" type="line" smooth="yes"/>
      <point x="592" y="951"/>
      <point x="581" y="964"/>
      <point x="558" y="961" type="curve"/>
      <point x="209" y="918" type="line" smooth="yes"/>
      <point x="184" y="915"/>
      <point x="173" y="907"/>
      <point x="173" y="882" type="curve" smooth="yes"/>
      <point x="173" y="786" type="line" smooth="yes"/>
      <point x="173" y="763"/>
      <point x="184" y="750"/>
      <point x="207" y="753" type="curve" smooth="yes"/>
    </contour>
    <contour>
      <point x="682" y="189" type="curve" smooth="yes"/>
      <point x="682" y="684" type="line" smooth="yes"/>
      <point x="682" y="709"/>
      <point x="671" y="720"/>
      <point x="646" y="720" type="curve" smooth="yes"/>
      <point x="494" y="720" type="line" smooth="yes"/>
      <point x="468" y="720"/>
      <point x="458" y="709"/>
      <point x="458" y="684" type="curve" smooth="yes"/>
      <point x="458" y="228" type="line" smooth="yes"/>
      <point x="458" y="201"/>
      <point x="446" y="181"/>
      <point x="375" y="181" type="curve" smooth="yes"/>
      <point x="305" y="181"/>
      <point x="293" y="201"/>
      <point x="293" y="228" type="curve" smooth="yes"/>
      <point x="293" y="684" type="line" smooth="yes"/>
      <point x="293" y="709"/>
      <point x="282" y="720"/>
      <point x="257" y="720" type="curve" smooth="yes"/>
      <point x="100" y="720" type="line" smooth="yes"/>
      <point x="75" y="720"/>
      <point x="64" y="709"/>
      <point x="64" y="684" type="curve" smooth="yes"/>
      <point x="64" y="189" type="line" smooth="yes"/>
      <point x="64" y="67"/>
      <point x="125" y="-15"/>
      <point x="373" y="-15" type="curve" smooth="yes"/>
      <point x="621" y="-15"/>
      <point x="682" y="67"/>
    </contour>
  </outline>
</glyph>
<glyph name="germandbls" format="1">
  <advance width="759.0"/>
  <unicode hex="00DF"/>
  <outline>
    <contour>
      <point x="296" y="36" type="curve" smooth="yes"/>
      <point x="296" y="531" type="line"/>
      <point x="375" y="531" type="line" smooth="yes"/>
      <point x="392" y="531"/>
      <point x="397" y="518"/>
      <point x="394" y="503" type="curve" smooth="yes"/>
      <point x="361" y="340" type="line" smooth="yes"/>
      <point x="353" y="303"/>
      <point x="366" y="284"/>
      <point x="398" y="284" type="curve" smooth="yes"/>
      <point x="470" y="284" type="line" smooth="yes"/>
      <point x="486" y="284"/>
      <point x="497" y="277"/>
      <point x="497" y="261" type="curve" smooth="yes"/>
      <point x="497" y="212" type="line" smooth="yes"/>
      <point x="497" y="196"/>
      <point x="486" y="189"/>
      <point x="470" y="189" type="curve" smooth="yes"/>
      <point x="392" y="189" type="line" smooth="yes"/>
      <point x="367" y="189"/>
      <point x="356" y="178"/>
      <point x="356" y="153" type="curve" smooth="yes"/>
      <point x="356" y="36" type="line" smooth="yes"/>
      <point x="356" y="11"/>
      <point x="367" y="0"/>
      <point x="392" y="0" type="curve" smooth="yes"/>
      <point x="530" y="0" type="line" smooth="yes"/>
      <point x="650" y="0"/>
      <point x="725" y="64"/>
      <point x="725" y="166" type="curve" smooth="yes"/>
      <point x="725" y="289" type="line" smooth="yes"/>
      <point x="725" y="382"/>
      <point x="668" y="433"/>
      <point x="597" y="446" type="curve"/>
      <point x="620" y="529" type="line" smooth="yes"/>
      <point x="651" y="640"/>
      <point x="594" y="720"/>
      <point x="476" y="720" type="curve" smooth="yes"/>
      <point x="105" y="720" type="line" smooth="yes"/>
      <point x="81" y="720"/>
      <point x="69" y="708"/>
      <point x="69" y="684" type="curve" smooth="yes"/>
      <point x="69" y="36" type="line" smooth="yes"/>
      <point x="69" y="11"/>
      <point x="80" y="0"/>
      <point x="105" y="0" type="curve" smooth="yes"/>
      <point x="260" y="0" type="line" smooth="yes"/>
      <point x="285" y="0"/>
      <point x="296" y="11"/>
    </contour>
  </outline>
</glyph>
<glyph name="agrave" format="1">
  <advance width="730"/>
  <unicode hex="00E0"/>
  <outline>
    <contour>
      <point x="540" y="753" type="line" smooth="yes"/>
      <point x="563" y="750"/>
      <point x="574" y="763"/>
      <point x="574" y="786" type="curve" smooth="yes"/>
      <point x="574" y="882" type="line" smooth="yes"/>
      <point x="574" y="907"/>
      <point x="563" y="915"/>
      <point x="538" y="918" type="curve" smooth="yes"/>
      <point x="189" y="961" type="line" smooth="yes"/>
      <point x="166" y="964"/>
      <point x="155" y="951"/>
      <point x="155" y="928" type="curve" smooth="yes"/>
      <point x="155" y="832" type="line" smooth="yes"/>
      <point x="155" y="807"/>
      <point x="166" y="799"/>
      <point x="191" y="796" type="curve" smooth="yes"/>
    </contour>
    <contour>
      <point x="273" y="36" type="curve" smooth="yes"/>
      <point x="273" y="176" type="line"/>
      <point x="450" y="176" type="line"/>
      <point x="450" y="36" type="line" smooth="yes"/>
      <point x="450" y="11"/>
      <point x="462" y="0"/>
      <point x="489" y="0" type="curve" smooth="yes"/>
      <point x="640" y="0" type="line" smooth="yes"/>
      <point x="665" y="0"/>
      <point x="676" y="11"/>
      <point x="676" y="36" type="curve" smooth="yes"/>
      <point x="676" y="300" type="line" smooth="yes"/>
      <point x="676" y="340"/>
      <point x="664" y="390"/>
      <point x="637" y="460" type="curve" smooth="yes"/>
      <point x="550" y="687" type="line" smooth="yes"/>
      <point x="542" y="710"/>
      <point x="526" y="720"/>
      <point x="500" y="720" type="curve" smooth="yes"/>
      <point x="231" y="720" type="line" smooth="yes"/>
      <point x="204" y="720"/>
      <point x="188" y="710"/>
      <point x="180" y="687" type="curve" smooth="yes"/>
      <point x="93" y="460" type="line" smooth="yes"/>
      <point x="66" y="390"/>
      <point x="54" y="340"/>
      <point x="54" y="300" type="curve" smooth="yes"/>
      <point x="54" y="36" type="line" smooth="yes"/>
      <point x="54" y="11"/>
      <point x="65" y="0"/>
      <point x="90" y="0" type="curve" smooth="yes"/>
      <point x="237" y="0" type="line" smooth="yes"/>
      <point x="262" y="0"/>
      <point x="273" y="11"/>
    </contour>
    <contour>
      <point x="330" y="510" type="line"/>
      <point x="335" y="522"/>
      <point x="341" y="527"/>
      <point x="349" y="527" type="curve" smooth="yes"/>
      <point x="374" y="527" type="line" smooth="yes"/>
      <point x="382" y="527"/>
      <point x="388" y="522"/>
      <point x="393" y="510" type="curve"/>
      <point x="440" y="358" type="line"/>
      <point x="283" y="358" type="line"/>
    </contour>
  </outline>
</glyph>
<glyph name="atilde" format="1">
  <advance width="730"/>
  <unicode hex="00E3"/>
  <outline>
    <contour>
      <point x="364" y="764" type="line"/>
      <point x="380" y="762" type="line" smooth="yes"/>
      <point x="460" y="750"/>
      <point x="474" y="748"/>
      <point x="537" y="767" type="curve"/>
      <point x="560" y="776"/>
      <point x="573" y="783"/>
      <point x="573" y="808" type="curve" smooth="yes"/>
      <point x="573" y="909" type="line" smooth="yes"/>
      <point x="573" y="934"/>
      <point x="561" y="942"/>
      <point x="537" y="935" type="curve" smooth="yes"/>
      <point x="478" y="917"/>
      <point x="474" y="914"/>
      <point x="386" y="927" type="curve" smooth="yes"/>
      <point x="364" y="930" type="line"/>
      <point x="347" y="932" type="line" smooth="yes"/>
      <point x="267" y="944"/>
      <point x="254" y="946"/>
      <point x="191" y="927" type="curve"/>
      <point x="168" y="918"/>
      <point x="155" y="911"/>
      <point x="155" y="886" type="curve" smooth="yes"/>
      <point x="155" y="785" type="line" smooth="yes"/>
      <point x="155" y="760"/>
      <point x="167" y="752"/>
      <point x="191" y="759" type="curve" smooth="yes"/>
      <point x="244" y="775"/>
      <point x="260" y="779"/>
      <point x="336" y="768" type="curve" smooth="yes"/>
    </contour>
    <contour>
      <point x="273" y="36" type="curve" smooth="yes"/>
      <point x="273" y="176" type="line"/>
      <point x="450" y="176" type="line"/>
      <point x="450" y="36" type="line" smooth="yes"/>
      <point x="450" y="11"/>
      <point x="462" y="0"/>
      <point x="489" y="0" type="curve" smooth="yes"/>
      <point x="640" y="0" type="line" smooth="yes"/>
      <point x="665" y="0"/>
      <point x="676" y="11"/>
      <point x="676" y="36" type="curve" smooth="yes"/>
      <point x="676" y="300" type="line" smooth="yes"/>
      <point x="676" y="340"/>
      <point x="664" y="390"/>
      <point x="637" y="460" type="curve" smooth="yes"/>
      <point x="550" y="687" type="line" smooth="yes"/>
      <point x="542" y="710"/>
      <point x="526" y="720"/>
      <point x="500" y="720" type="curve" smooth="yes"/>
      <point x="231" y="720" type="line" smooth="yes"/>
      <point x="204" y="720"/>
      <point x="188" y="710"/>
      <point x="180" y="687" type="curve" smooth="yes"/>
      <point x="93" y="460" type="line" smooth="yes"/>
      <point x="66" y="390"/>
      <point x="54" y="340"/>
      <point x="54" y="300" type="curve" smooth="yes"/>
      <point x="54" y="36" type="line" smooth="yes"/>
      <point x="54" y="11"/>
      <point x="65" y="0"/>
      <point x="90" y="0" type="curve" smooth="yes"/>
      <point x="237" y="0" type="line" smooth="yes"/>
      <point x="262" y="0"/>
      <point x="273" y="11"/>
    </contour>
    <contour>
      <point x="330" y="510" type="line"/>
      <point x="335" y="522"/>
      <point x="341" y="527"/>
      <point x="349" y="527" type="curve" smooth="yes"/>
      <point x="374" y="527" type="line" smooth="yes"/>
      <point x="382" y="527"/>
      <point x="388" y="522"/>
      <point x="393" y="510" type="curve"/>
      <point x="440" y="358" type="line"/>
      <point x="283" y="358" type="line"/>
    </contour>
  </outline>
</glyph>
<glyph name="aring" format="1">
  <advance width="730"/>
  <unicode hex="00E5"/>
  <outline>
    <contour>
      <point x="273" y="36" type="curve" smooth="yes"/>
      <point x="273" y="176" type="line"/>
      <point x="450" y="176" type="line"/>
      <point x="450" y="36" type="line" smooth="yes"/>
      <point x="450" y="11"/>
      <point x="462" y="0"/>
      <point x="489" y="0" type="curve" smooth="yes"/>
      <point x="640" y="0" type="line" smooth="yes"/>
      <point x="665" y="0"/>
      <point x="676" y="11"/>
      <point x="676" y="36" type="curve" smooth="yes"/>
      <point x="676" y="300" type="line" smooth="yes"/>
      <point x="676" y="340"/>
      <point x="664" y="390"/>
      <point x="637" y="460" type="curve" smooth="yes"/>
      <point x="553" y="680" type="line"/>
      <point x="574" y="704"/>
      <point x="582" y="735"/>
      <point x="582" y="771" type="curve" smooth="yes"/>
      <point x="582" y="829" type="line" smooth="yes"/>
      <point x="582" y="914"/>
      <point x="539" y="972"/>
      <point x="365" y="972" type="curve" smooth="yes"/>
      <point x="191" y="972"/>
      <point x="148" y="914"/>
      <point x="148" y="829" type="curve" smooth="yes"/>
      <point x="148" y="771" type="line" smooth="yes"/>
      <point x="148" y="735"/>
      <point x="156" y="704"/>
      <point x="177" y="680" type="curve"/>
      <point x="93" y="460" type="line" smooth="yes"/>
      <point x="66" y="390"/>
      <point x="54" y="340"/>
      <point x="54" y="300" type="curve" smooth="yes"/>
      <point x="54" y="36" type="line" smooth="yes"/>
      <point x="54" y="11"/>
      <point x="65" y="0"/>
      <point x="90" y="0" type="curve" smooth="yes"/>
      <point x="237" y="0" type="line" smooth="yes"/>
      <point x="262" y="0"/>
      <point x="273" y="11"/>
    </contour>
    <contour>
      <point x="425" y="764" type="line" smooth="yes"/>
      <point x="425" y="735"/>
      <point x="416" y="721"/>
      <point x="366" y="721" type="curve" smooth="yes"/>
      <point x="317" y="721"/>
      <point x="309" y="735"/>
      <point x="309" y="764" type="curve" smooth="yes"/>
      <point x="309" y="799" type="line" smooth="yes"/>
      <point x="309" y="825"/>
      <point x="317" y="839"/>
      <point x="366" y="839" type="curve" smooth="yes"/>
      <point x="416" y="839"/>
      <point x="425" y="825"/>
      <point x="425" y="799" type="curve" smooth="yes"/>
    </contour>
    <contour>
      <point x="330" y="510" type="line" smooth="yes"/>
      <point x="334" y="522"/>
      <point x="341" y="527"/>
      <point x="349" y="527" type="curve" smooth="yes"/>
      <point x="374" y="527" type="line" smooth="yes"/>
      <point x="382" y="527"/>
      <point x="389" y="522"/>
      <point x="393" y="510" type="curve" smooth="yes"/>
      <point x="440" y="358" type="line"/>
      <point x="283" y="358" type="line"/>
    </contour>
  </outline>
</glyph>
<glyph name="egrave" format="1">
  <advance width="654"/>
  <unicode hex="00E8"/>
  <outline>
    <contour>
      <point x="502" y="753" type="line" smooth="yes"/>
      <point x="525" y="750"/>
      <point x="536" y="763"/>
      <point x="536" y="786" type="curve" smooth="yes"/>
      <point x="536" y="882" type="line" smooth="yes"/>
      <point x="536" y="907"/>
      <point x="525" y="915"/>
      <point x="500" y="918" type="curve" smooth="yes"/>
      <point x="151" y="961" type="line" smooth="yes"/>
      <point x="128" y="964"/>
      <point x="117" y="951"/>
      <point x="117" y="928" type="curve" smooth="yes"/>
      <point x="117" y="832" type="line" smooth="yes"/>
      <point x="117" y="807"/>
      <point x="128" y="799"/>
      <point x="153" y="796" type="curve" smooth="yes"/>
    </contour>
    <contour>
      <point x="569" y="0" type="line" smooth="yes"/>
      <point x="594" y="0"/>
      <point x="605" y="11"/>
      <point x="605" y="36" type="curve" smooth="yes"/>
      <point x="605" y="153" type="line" smooth="yes"/>
      <point x="605" y="178"/>
      <point x="594" y="189"/>
      <point x="569" y="189" type="curve" smooth="yes"/>
      <point x="293" y="189" type="line"/>
      <point x="293" y="275" type="line"/>
      <point x="488" y="275" type="line" smooth="yes"/>
      <point x="513" y="275"/>
      <point x="524" y="286"/>
      <point x="524" y="311" type="curve" smooth="yes"/>
      <point x="524" y="418" type="line" smooth="yes"/>
      <point x="524" y="443"/>
      <point x="513" y="454"/>
      <point x="488" y="454" type="curve" smooth="yes"/>
      <point x="293" y="454" type="line"/>
      <point x="293" y="531" type="line"/>
      <point x="569" y="531" type="line" smooth="yes"/>
      <point x="594" y="531"/>
      <point x="605" y="542"/>
      <point x="605" y="567" type="curve" smooth="yes"/>
      <point x="605" y="684" type="line" smooth="yes"/>
      <point x="605" y="709"/>
      <point x="594" y="720"/>
      <point x="569" y="720" type="curve" smooth="yes"/>
      <point x="105" y="720" type="line" smooth="yes"/>
      <point x="80" y="720"/>
      <point x="69" y="709"/>
      <point x="69" y="684" type="curve" smooth="yes"/>
      <point x="69" y="36" type="line" smooth="yes"/>
      <point x="69" y="11"/>
      <point x="80" y="0"/>
      <point x="105" y="0" type="curve" smooth="yes"/>
    </contour>
  </outline>
</glyph>
<glyph name="eacute" format="1">
  <advance width="654"/>
  <unicode hex="00E9"/>
  <outline>
    <contour>
      <point x="530" y="796" type="line" smooth="yes"/>
      <point x="555" y="799"/>
      <point x="566" y="807"/>
      <point x="566" y="832" type="curve" smooth="yes"/>
      <point x="566" y="928" type="line" smooth="yes"/>
      <point x="566" y="951"/>
      <point x="555" y="964"/>
      <point x="532" y="961" type="curve"/>
      <point x="183" y="918" type="line" smooth="yes"/>
      <point x="158" y="915"/>
      <point x="147" y="907"/>
      <point x="147" y="882" type="curve" smooth="yes"/>
      <point x="147" y="786" type="line" smooth="yes"/>
      <point x="147" y="763"/>
      <point x="158" y="750"/>
      <point x="181" y="753" type="curve" smooth="yes"/>
    </contour>
    <contour>
      <point x="569" y="0" type="line" smooth="yes"/>
      <point x="594" y="0"/>
      <point x="605" y="11"/>
      <point x="605" y="36" type="curve" smooth="yes"/>
      <point x="605" y="153" type="line" smooth="yes"/>
      <point x="605" y="178"/>
      <point x="594" y="189"/>
      <point x="569" y="189" type="curve" smooth="yes"/>
      <point x="293" y="189" type="line"/>
      <point x="293" y="275" type="line"/>
      <point x="488" y="275" type="line" smooth="yes"/>
      <point x="513" y="275"/>
      <point x="524" y="286"/>
      <point x="524" y="311" type="curve" smooth="yes"/>
      <point x="524" y="418" type="line" smooth="yes"/>
      <point x="524" y="443"/>
      <point x="513" y="454"/>
      <point x="488" y="454" type="curve" smooth="yes"/>
      <point x="293" y="454" type="line"/>
      <point x="293" y="531" type="line"/>
      <point x="569" y="531" type="line" smooth="yes"/>
      <point x="594" y="531"/>
      <point x="605" y="542"/>
      <point x="605" y="567" type="curve" smooth="yes"/>
      <point x="605" y="684" type="line" smooth="yes"/>
      <point x="605" y="709"/>
      <point x="594" y="720"/>
      <point x="569" y="720" type="curve" smooth="yes"/>
      <point x="105" y="720" type="line" smooth="yes"/>
      <point x="80" y="720"/>
      <point x="69" y="709"/>
      <point x="69" y="684" type="curve" smooth="yes"/>
      <point x="69" y="36" type="line" smooth="yes"/>
      <point x="69" y="11"/>
      <point x="80" y="0"/>
      <point x="105" y="0" type="curve" smooth="yes"/>
    </contour>
  </outline>
</glyph>
<glyph name="ntilde" format="1">
  <advance width="753"/>
  <unicode hex="00F1"/>
  <outline>
    <contour>
      <point x="375" y="764" type="line"/>
      <point x="391" y="762" type="line" smooth="yes"/>
      <point x="471" y="750"/>
      <point x="485" y="748"/>
      <point x="548" y="767" type="curve"/>
      <point x="571" y="776"/>
      <point x="584" y="783"/>
      <point x="584" y="808" type="curve" smooth="yes"/>
      <point x="584" y="909" type="line" smooth="yes"/>
      <point x="584" y="934"/>
      <point x="572" y="942"/>
      <point x="548" y="935" type="curve" smooth="yes"/>
      <point x="489" y="917"/>
      <point x="485" y="914"/>
      <point x="397" y="927" type="curve" smooth="yes"/>
      <point x="375" y="930" type="line"/>
      <point x="358" y="932" type="line" smooth="yes"/>
      <point x="278" y="944"/>
      <point x="265" y="946"/>
      <point x="202" y="927" type="curve"/>
      <point x="179" y="918"/>
      <point x="166" y="911"/>
      <point x="166" y="886" type="curve" smooth="yes"/>
      <point x="166" y="785" type="line" smooth="yes"/>
      <point x="166" y="760"/>
      <point x="178" y="752"/>
      <point x="202" y="759" type="curve" smooth="yes"/>
      <point x="255" y="775"/>
      <point x="271" y="779"/>
      <point x="347" y="768" type="curve" smooth="yes"/>
    </contour>
    <contour>
      <point x="255" y="0" type="line" smooth="yes"/>
      <point x="280" y="0"/>
      <point x="291" y="11"/>
      <point x="291" y="36" type="curve" smooth="yes"/>
      <point x="291" y="366" type="line"/>
      <point x="462" y="159" type="line"/>
      <point x="462" y="36" type="line" smooth="yes"/>
      <point x="462" y="11"/>
      <point x="473" y="0"/>
      <point x="498" y="0" type="curve" smooth="yes"/>
      <point x="648" y="0" type="line" smooth="yes"/>
      <point x="673" y="0"/>
      <point x="684" y="11"/>
      <point x="684" y="36" type="curve" smooth="yes"/>
      <point x="684" y="684" type="line" smooth="yes"/>
      <point x="684" y="709"/>
      <point x="673" y="720"/>
      <point x="648" y="720" type="curve" smooth="yes"/>
      <point x="498" y="720" type="line" smooth="yes"/>
      <point x="473" y="720"/>
      <point x="462" y="709"/>
      <point x="462" y="684" type="curve" smooth="yes"/>
      <point x="462" y="471" type="line"/>
      <point x="268" y="693" type="line" smooth="yes"/>
      <point x="251" y="713"/>
      <point x="235" y="720"/>
      <point x="209" y="720" type="curve" smooth="yes"/>
      <point x="105" y="720" type="line" smooth="yes"/>
      <point x="80" y="720"/>
      <point x="69" y="709"/>
      <point x="69" y="684" type="curve" smooth="yes"/>
      <point x="69" y="36" type="line" smooth="yes"/>
      <point x="69" y="11"/>
      <point x="80" y="0"/>
      <point x="105" y="0" type="curve" smooth="yes"/>
    </contour>
  </outline>
</glyph>
<glyph name="oacute" format="1">
  <advance width="737"/>
  <unicode hex="00F3"/>
  <outline>
    <contour>
      <point x="541" y="796" type="line" smooth="yes"/>
      <point x="566" y="799"/>
      <point x="577" y="807"/>
      <point x="577" y="832" type="curve" smooth="yes"/>
      <point x="577" y="928" type="line" smooth="yes"/>
      <point x="577" y="951"/>
      <point x="566" y="964"/>
      <point x="543" y="961" type="curve"/>
      <point x="194" y="918" type="line" smooth="yes"/>
      <point x="169" y="915"/>
      <point x="158" y="907"/>
      <point x="158" y="882" type="curve" smooth="yes"/>
      <point x="158" y="786" type="line" smooth="yes"/>
      <point x="158" y="763"/>
      <point x="169" y="750"/>
      <point x="192" y="753" type="curve" smooth="yes"/>
    </contour>
    <contour>
      <point x="679" y="189" type="curve" smooth="yes"/>
      <point x="679" y="530" type="line" smooth="yes"/>
      <point x="679" y="652"/>
      <point x="619" y="735"/>
      <point x="369" y="735" type="curve" smooth="yes"/>
      <point x="119" y="735"/>
      <point x="58" y="652"/>
      <point x="58" y="530" type="curve" smooth="yes"/>
      <point x="58" y="189" type="line" smooth="yes"/>
      <point x="58" y="67"/>
      <point x="119" y="-15"/>
      <point x="369" y="-15" type="curve" smooth="yes"/>
      <point x="619" y="-15"/>
      <point x="679" y="67"/>
    </contour>
    <contour>
      <point x="285" y="225" type="curve" smooth="yes"/>
      <point x="285" y="494" type="line" smooth="yes"/>
      <point x="285" y="520"/>
      <point x="297" y="540"/>
      <point x="369" y="540" type="curve" smooth="yes"/>
      <point x="442" y="540"/>
      <point x="453" y="520"/>
      <point x="453" y="494" type="curve" smooth="yes"/>
      <point x="453" y="225" type="line" smooth="yes"/>
      <point x="453" y="198"/>
      <point x="442" y="178"/>
      <point x="369" y="178" type="curve" smooth="yes"/>
      <point x="297" y="178"/>
      <point x="285" y="198"/>
    </contour>
  </outline>
</glyph>
<glyph name="otilde" format="1">
  <advance width="737"/>
  <unicode hex="00F5"/>
  <outline>
    <contour>
      <point x="367" y="764" type="line"/>
      <point x="383" y="762" type="line" smooth="yes"/>
      <point x="463" y="750"/>
      <point x="477" y="748"/>
      <point x="540" y="767" type="curve"/>
      <point x="563" y="776"/>
      <point x="576" y="783"/>
      <point x="576" y="808" type="curve" smooth="yes"/>
      <point x="576" y="909" type="line" smooth="yes"/>
      <point x="576" y="934"/>
      <point x="564" y="942"/>
      <point x="540" y="935" type="curve" smooth="yes"/>
      <point x="481" y="917"/>
      <point x="477" y="914"/>
      <point x="389" y="927" type="curve" smooth="yes"/>
      <point x="367" y="930" type="line"/>
      <point x="350" y="932" type="line" smooth="yes"/>
      <point x="270" y="944"/>
      <point x="257" y="946"/>
      <point x="194" y="927" type="curve"/>
      <point x="171" y="918"/>
      <point x="158" y="911"/>
      <point x="158" y="886" type="curve" smooth="yes"/>
      <point x="158" y="785" type="line" smooth="yes"/>
      <point x="158" y="760"/>
      <point x="170" y="752"/>
      <point x="194" y="759" type="curve" smooth="yes"/>
      <point x="247" y="775"/>
      <point x="263" y="779"/>
      <point x="339" y="768" type="curve" smooth="yes"/>
    </contour>
    <contour>
      <point x="679" y="189" type="curve" smooth="yes"/>
      <point x="679" y="530" type="line" smooth="yes"/>
      <point x="679" y="652"/>
      <point x="619" y="735"/>
      <point x="369" y="735" type="curve" smooth="yes"/>
      <point x="119" y="735"/>
      <point x="58" y="652"/>
      <point x="58" y="530" type="curve" smooth="yes"/>
      <point x="58" y="189" type="line" smooth="yes"/>
      <point x="58" y="67"/>
      <point x="119" y="-15"/>
      <point x="369" y="-15" type="curve" smooth="yes"/>
      <point x="619" y="-15"/>
      <point x="679" y="67"/>
    </contour>
    <contour>
      <point x="285" y="225" type="curve" smooth="yes"/>
      <point x="285" y="494" type="line" smooth="yes"/>
      <point x="285" y="520"/>
      <point x="297" y="540"/>
      <point x="369" y="540" type="curve" smooth="yes"/>
      <point x="442" y="540"/>
      <point x="453" y="520"/>
      <point x="453" y="494" type="curve" smooth="yes"/>
      <point x="453" y="225" type="line" smooth="yes"/>
      <point x="453" y="198"/>
      <point x="442" y="178"/>
      <point x="369" y="178" type="curve" smooth="yes"/>
      <point x="297" y="178"/>
      <point x="285" y="198"/>
    </contour>
  </outline>
</glyph>
<glyph name="oslash" format="1">
  <advance width="737"/>
  <unicode hex="00F8"/>
  <outline>
    <contour>
      <point x="295" y="-34" type="curve"/>
      <point x="304" y="-13" type="line"/>
      <point x="324" y="-14"/>
      <point x="346" y="-15"/>
      <point x="369" y="-15" type="curve" smooth="yes"/>
      <point x="619" y="-15"/>
      <point x="679" y="67"/>
      <point x="679" y="189" type="curve"/>
      <point x="679" y="530" type="line" smooth="yes"/>
      <point x="679" y="598"/>
      <point x="661" y="653"/>
      <point x="602" y="689" type="curve"/>
      <point x="629" y="754" type="line"/>
      <point x="641" y="776"/>
      <point x="628" y="790"/>
      <point x="603" y="790" type="curve" smooth="yes"/>
      <point x="488" y="790" type="line" smooth="yes"/>
      <point x="463" y="790"/>
      <point x="454" y="776"/>
      <point x="442" y="754" type="curve"/>
      <point x="433" y="733" type="line"/>
      <point x="413" y="734"/>
      <point x="392" y="735"/>
      <point x="369" y="735" type="curve" smooth="yes"/>
      <point x="119" y="735"/>
      <point x="58" y="652"/>
      <point x="58" y="530" type="curve" smooth="yes"/>
      <point x="58" y="189" type="line" smooth="yes"/>
      <point x="58" y="122"/>
      <point x="77" y="67"/>
      <point x="135" y="31" type="curve"/>
      <point x="108" y="-34" type="line"/>
      <point x="96" y="-56"/>
      <point x="109" y="-70"/>
      <point x="134" y="-70" type="curve" smooth="yes"/>
      <point x="249" y="-70" type="line" smooth="yes"/>
      <point x="274" y="-70"/>
      <point x="283" y="-56"/>
    </contour>
    <contour>
      <point x="265" y="494" type="line" smooth="yes"/>
      <point x="265" y="526"/>
      <point x="279" y="550"/>
      <point x="369" y="550" type="curve" smooth="yes"/>
      <point x="380" y="550"/>
      <point x="381" y="550"/>
      <point x="381" y="550" type="curve"/>
      <point x="265" y="277" type="line"/>
    </contour>
    <contour>
      <point x="473" y="225" type="line" smooth="yes"/>
      <point x="473" y="192"/>
      <point x="460" y="168"/>
      <point x="369" y="168" type="curve" smooth="yes"/>
      <point x="357" y="168"/>
      <point x="356" y="168"/>
      <point x="355" y="168" type="curve"/>
      <point x="473" y="446" type="line"/>
    </contour>
  </outline>
</glyph>
<glyph name="ucircumflex" format="1">
  <advance width="746"/>
  <unicode hex="00FB"/>
  <outline>
    <contour>
      <point x="341" y="797" type="line"/>
      <point x="364" y="803"/>
      <point x="380" y="803"/>
      <point x="403" y="797" type="curve"/>
      <point x="540" y="757" type="line" smooth="yes"/>
      <point x="575" y="746"/>
      <point x="582" y="752"/>
      <point x="582" y="788" type="curve" smooth="yes"/>
      <point x="582" y="869" type="line" smooth="yes"/>
      <point x="582" y="905"/>
      <point x="574" y="909"/>
      <point x="540" y="922" type="curve" smooth="yes"/>
      <point x="403" y="972" type="line" smooth="yes"/>
      <point x="393" y="976"/>
      <point x="383" y="977"/>
      <point x="371" y="977" type="curve" smooth="yes"/>
      <point x="359" y="976"/>
      <point x="344" y="973"/>
      <point x="332" y="968" type="curve" smooth="yes"/>
      <point x="204" y="922" type="line" smooth="yes"/>
      <point x="172" y="909"/>
      <point x="163" y="905"/>
      <point x="163" y="869" type="curve" smooth="yes"/>
      <point x="163" y="788" type="line" smooth="yes"/>
      <point x="163" y="752"/>
      <point x="170" y="746"/>
      <point x="204" y="757" type="curve" smooth="yes"/>
    </contour>
    <contour>
      <point x="682" y="189" type="curve" smooth="yes"/>
      <point x="682" y="684" type="line" smooth="yes"/>
      <point x="682" y="709"/>
      <point x="671" y="720"/>
      <point x="646" y="720" type="curve" smooth="yes"/>
      <point x="494" y="720" type="line" smooth="yes"/>
      <point x="468" y="720"/>
      <point x="458" y="709"/>
      <point x="458" y="684" type="curve" smooth="yes"/>
      <point x="458" y="228" type="line" smooth="yes"/>
      <point x="458" y="201"/>
      <point x="446" y="181"/>
      <point x="375" y="181" type="curve" smooth="yes"/>
      <point x="305" y="181"/>
      <point x="293" y="201"/>
      <point x="293" y="228" type="curve" smooth="yes"/>
      <point x="293" y="684" type="line" smooth="yes"/>
      <point x="293" y="709"/>
      <point x="282" y="720"/>
      <point x="257" y="720" type="curve" smooth="yes"/>
      <point x="100" y="720" type="line" smooth="yes"/>
      <point x="75" y="720"/>
      <point x="64" y="709"/>
      <point x="64" y="684" type="curve" smooth="yes"/>
      <point x="64" y="189" type="line" smooth="yes"/>
      <point x="64" y="67"/>
      <point x="125" y="-15"/>
      <point x="373" y="-15" type="curve" smooth="yes"/>
      <point x="621" y="-15"/>
      <point x="682" y="67"/>
    </contour>
  </outline>
</glyph>
<glyph name="Cacute" format="1">
  <advance width="628"/>
  <unicode hex="0106"/>
  <outline>
    <contour>
      <point x="548" y="796" type="line" smooth="yes"/>
      <point x="573" y="799"/>
      <point x="584" y="807"/>
      <point x="584" y="832" type="curve" smooth="yes"/>
      <point x="584" y="928" type="line" smooth="yes"/>
      <point x="584" y="951"/>
      <point x="573" y="964"/>
      <point x="550" y="961" type="curve"/>
      <point x="201" y="918" type="line" smooth="yes"/>
      <point x="176" y="915"/>
      <point x="165" y="907"/>
      <point x="165" y="882" type="curve" smooth="yes"/>
      <point x="165" y="786" type="line" smooth="yes"/>
      <point x="165" y="763"/>
      <point x="176" y="750"/>
      <point x="199" y="753" type="curve" smooth="yes"/>
    </contour>
    <contour>
      <point x="548" y="0" type="line" smooth="yes"/>
      <point x="573" y="0"/>
      <point x="584" y="11"/>
      <point x="584" y="36" type="curve" smooth="yes"/>
      <point x="584" y="155" type="line" smooth="yes"/>
      <point x="584" y="180"/>
      <point x="573" y="191"/>
      <point x="548" y="191" type="curve" smooth="yes"/>
      <point x="347" y="191" type="line" smooth="yes"/>
      <point x="305" y="191"/>
      <point x="286" y="206"/>
      <point x="286" y="239" type="curve" smooth="yes"/>
      <point x="286" y="477" type="line" smooth="yes"/>
      <point x="286" y="511"/>
      <point x="305" y="527"/>
      <point x="347" y="527" type="curve" smooth="yes"/>
      <point x="548" y="527" type="line" smooth="yes"/>
      <point x="573" y="527"/>
      <point x="584" y="538"/>
      <point x="584" y="563" type="curve" smooth="yes"/>
      <point x="584" y="684" type="line" smooth="yes"/>
      <point x="584" y="709"/>
      <point x="573" y="720"/>
      <point x="548" y="720" type="curve" smooth="yes"/>
      <point x="304" y="720" type="line" smooth="yes"/>
      <point x="136" y="720"/>
      <point x="58" y="655"/>
      <point x="58" y="515" type="curve" smooth="yes"/>
      <point x="58" y="204" type="line" smooth="yes"/>
      <point x="58" y="65"/>
      <point x="136" y="0"/>
      <point x="304" y="0" type="curve" smooth="yes"/>
    </contour>
  </outline>
</glyph>
<glyph name="Ccircumflex" format="1">
  <advance width="628"/>
  <unicode hex="0108"/>
  <outline>
    <contour>
      <point x="313" y="797" type="line"/>
      <point x="336" y="803"/>
      <point x="352" y="803"/>
      <point x="375" y="797" type="curve"/>
      <point x="512" y="757" type="line" smooth="yes"/>
      <point x="547" y="746"/>
      <point x="554" y="752"/>
      <point x="554" y="788" type="curve" smooth="yes"/>
      <point x="554" y="869" type="line" smooth="yes"/>
      <point x="554" y="905"/>
      <point x="546" y="909"/>
      <point x="512" y="922" type="curve" smooth="yes"/>
      <point x="375" y="972" type="line" smooth="yes"/>
      <point x="365" y="976"/>
      <point x="355" y="977"/>
      <point x="343" y="977" type="curve" smooth="yes"/>
      <point x="331" y="976"/>
      <point x="316" y="973"/>
      <point x="304" y="968" type="curve" smooth="yes"/>
      <point x="176" y="922" type="line" smooth="yes"/>
      <point x="144" y="909"/>
      <point x="135" y="905"/>
      <point x="135" y="869" type="curve" smooth="yes"/>
      <point x="135" y="788" type="line" smooth="yes"/>
      <point x="135" y="752"/>
      <point x="142" y="746"/>
      <point x="176" y="757" type="curve" smooth="yes"/>
    </contour>
    <contour>
      <point x="548" y="0" type="line" smooth="yes"/>
      <point x="573" y="0"/>
      <point x="584" y="11"/>
      <point x="584" y="36" type="curve" smooth="yes"/>
      <point x="584" y="155" type="line" smooth="yes"/>
      <point x="584" y="180"/>
      <point x="573" y="191"/>
      <point x="548" y="191" type="curve" smooth="yes"/>
      <point x="347" y="191" type="line" smooth="yes"/>
      <point x="305" y="191"/>
      <point x="286" y="206"/>
      <point x="286" y="239" type="curve" smooth="yes"/>
      <point x="286" y="477" type="line" smooth="yes"/>
      <point x="286" y="511"/>
      <point x="305" y="527"/>
      <point x="347" y="527" type="curve" smooth="yes"/>
      <point x="548" y="527" type="line" smooth="yes"/>
      <point x="573" y="527"/>
      <point x="584" y="538"/>
      <point x="584" y="563" type="curve" smooth="yes"/>
      <point x="584" y="684" type="line" smooth="yes"/>
      <point x="584" y="709"/>
      <point x="573" y="720"/>
      <point x="548" y="720" type="curve" smooth="yes"/>
      <point x="304" y="720" type="line" smooth="yes"/>
      <point x="136" y="720"/>
      <point x="58" y="655"/>
      <point x="58" y="515" type="curve" smooth="yes"/>
      <point x="58" y="204" type="line" smooth="yes"/>
      <point x="58" y="65"/>
      <point x="136" y="0"/>
      <point x="304" y="0" type="curve" smooth="yes"/>
    </contour>
  </outline>
</glyph>
<glyph name="cdotaccent" format="1">
  <advance width="628"/>
  <unicode hex="010B"/>
  <outline>
    <contour>
      <point x="435" y="760" type="line" smooth="yes"/>
      <point x="460" y="760"/>
      <point x="471" y="771"/>
      <point x="471" y="796" type="curve" smooth="yes"/>
      <point x="471" y="923" type="line" smooth="yes"/>
      <point x="471" y="948"/>
      <point x="460" y="959"/>
      <point x="435" y="959" type="curve"/>
      <point x="277" y="959" type="line" smooth="yes"/>
      <point x="252" y="959"/>
      <point x="241" y="948"/>
      <point x="241" y="923" type="curve" smooth="yes"/>
      <point x="241" y="796" type="line" smooth="yes"/>
      <point x="241" y="771"/>
      <point x="252" y="760"/>
      <point x="277" y="760" type="curve" smooth="yes"/>
    </contour>
    <contour>
      <point x="548" y="0" type="line" smooth="yes"/>
      <point x="573" y="0"/>
      <point x="584" y="11"/>
      <point x="584" y="36" type="curve" smooth="yes"/>
      <point x="584" y="155" type="line" smooth="yes"/>
      <point x="584" y="180"/>
      <point x="573" y="191"/>
      <point x="548" y="191" type="curve" smooth="yes"/>
      <point x="347" y="191" type="line" smooth="yes"/>
      <point x="305" y="191"/>
      <point x="286" y="206"/>
      <point x="286" y="239" type="curve" smooth="yes"/>
      <point x="286" y="477" type="line" smooth="yes"/>
      <point x="286" y="511"/>
      <point x="305" y="527"/>
      <point x="347" y="527" type="curve" smooth="yes"/>
      <point x="548" y="527" type="line" smooth="yes"/>
      <point x="573" y="527"/>
      <point x="584" y="538"/>
      <point x="584" y="563" type="curve" smooth="yes"/>
      <point x="584" y="684" type="line" smooth="yes"/>
      <point x="584" y="709"/>
      <point x="573" y="720"/>
      <point x="548" y="720" type="curve" smooth="yes"/>
      <point x="304" y="720" type="line" smooth="yes"/>
      <point x="136" y="720"/>
      <point x="58" y="655"/>
      <point x="58" y="515" type="curve" smooth="yes"/>
      <point x="58" y="204" type="line" smooth="yes"/>
      <point x="58" y="65"/>
      <point x="136" y="0"/>
      <point x="304" y="0" type="curve" smooth="yes"/>
    </contour>
  </outline>
</glyph>
<glyph name="ccaron" format="1">
  <advance width="628"/>
  <unicode hex="010D"/>
  <outline>
    <contour>
      <point x="376" y="932" type="line"/>
      <point x="353" y="926"/>
      <point x="337" y="926"/>
      <point x="314" y="932" type="curve"/>
      <point x="177" y="972" type="line" smooth="yes"/>
      <point x="142" y="983"/>
      <point x="135" y="977"/>
      <point x="135" y="941" type="curve" smooth="yes"/>
      <point x="135" y="860" type="line" smooth="yes"/>
      <point x="135" y="824"/>
      <point x="143" y="820"/>
      <point x="177" y="807" type="curve" smooth="yes"/>
      <point x="314" y="757" type="line" smooth="yes"/>
      <point x="324" y="753"/>
      <point x="334" y="752"/>
      <point x="346" y="752" type="curve" smooth="yes"/>
      <point x="358" y="753"/>
      <point x="373" y="756"/>
      <point x="385" y="761" type="curve" smooth="yes"/>
      <point x="513" y="807" type="line" smooth="yes"/>
      <point x="545" y="820"/>
      <point x="554" y="824"/>
      <point x="554" y="860" type="curve" smooth="yes"/>
      <point x="554" y="941" type="line" smooth="yes"/>
      <point x="554" y="977"/>
      <point x="547" y="983"/>
      <point x="513" y="972" type="curve" smooth="yes"/>
    </contour>
    <contour>
      <point x="548" y="0" type="line" smooth="yes"/>
      <point x="573" y="0"/>
      <point x="584" y="11"/>
      <point x="584" y="36" type="curve" smooth="yes"/>
      <point x="584" y="155" type="line" smooth="yes"/>
      <point x="584" y="180"/>
      <point x="573" y="191"/>
      <point x="548" y="191" type="curve" smooth="yes"/>
      <point x="347" y="191" type="line" smooth="yes"/>
      <point x="305" y="191"/>
      <point x="286" y="206"/>
      <point x="286" y="239" type="curve" smooth="yes"/>
      <point x="286" y="477" type="line" smooth="yes"/>
      <point x="286" y="511"/>
      <point x="305" y="527"/>
      <point x="347" y="527" type="curve" smooth="yes"/>
      <point x="548" y="527" type="line" smooth="yes"/>
      <point x="573" y="527"/>
      <point x="584" y="538"/>
      <point x="584" y="563" type="curve" smooth="yes"/>
      <point x="584" y="684" type="line" smooth="yes"/>
      <point x="584" y="709"/>
      <point x="573" y="720"/>
      <point x="548" y="720" type="curve" smooth="yes"/>
      <point x="304" y="720" type="line" smooth="yes"/>
      <point x="136" y="720"/>
      <point x="58" y="655"/>
      <point x="58" y="515" type="curve" smooth="yes"/>
      <point x="58" y="204" type="line" smooth="yes"/>
      <point x="58" y="65"/>
      <point x="136" y="0"/>
      <point x="304" y="0" type="curve" smooth="yes"/>
    </contour>
  </outline>
</glyph>
<glyph name="Dcaron" format="1">
  <advance width="746"/>
  <unicode hex="010E"/>
  <outline>
    <contour>
      <point x="404" y="932" type="line"/>
      <point x="381" y="926"/>
      <point x="365" y="926"/>
      <point x="342" y="932" type="curve"/>
      <point x="205" y="972" type="line" smooth="yes"/>
      <point x="170" y="983"/>
      <point x="163" y="977"/>
      <point x="163" y="941" type="curve" smooth="yes"/>
      <point x="163" y="860" type="line" smooth="yes"/>
      <point x="163" y="824"/>
      <point x="171" y="820"/>
      <point x="205" y="807" type="curve" smooth="yes"/>
      <point x="342" y="757" type="line" smooth="yes"/>
      <point x="352" y="753"/>
      <point x="362" y="752"/>
      <point x="374" y="752" type="curve" smooth="yes"/>
      <point x="386" y="753"/>
      <point x="401" y="756"/>
      <point x="413" y="761" type="curve" smooth="yes"/>
      <point x="541" y="807" type="line" smooth="yes"/>
      <point x="573" y="820"/>
      <point x="582" y="824"/>
      <point x="582" y="860" type="curve" smooth="yes"/>
      <point x="582" y="941" type="line" smooth="yes"/>
      <point x="582" y="977"/>
      <point x="575" y="983"/>
      <point x="541" y="972" type="curve" smooth="yes"/>
    </contour>
    <contour>
      <point x="442" y="0" type="line" smooth="yes"/>
      <point x="610" y="0"/>
      <point x="688" y="65"/>
      <point x="688" y="204" type="curve" smooth="yes"/>
      <point x="688" y="516" type="line" smooth="yes"/>
      <point x="688" y="655"/>
      <point x="610" y="720"/>
      <point x="442" y="720" type="curve" smooth="yes"/>
      <point x="105" y="720" type="line" smooth="yes"/>
      <point x="80" y="720"/>
      <point x="69" y="709"/>
      <point x="69" y="684" type="curve" smooth="yes"/>
      <point x="69" y="36" type="line" smooth="yes"/>
      <point x="69" y="11"/>
      <point x="80" y="0"/>
      <point x="105" y="0" type="curve" smooth="yes"/>
    </contour>
    <contour>
      <point x="296" y="529" type="line"/>
      <point x="415" y="529" type="line" smooth="yes"/>
      <point x="447" y="529"/>
      <point x="462" y="514"/>
      <point x="462" y="481" type="curve" smooth="yes"/>
      <point x="462" y="238" type="line" smooth="yes"/>
      <point x="462" y="204"/>
      <point x="447" y="189"/>
      <point x="415" y="189" type="curve" smooth="yes"/>
      <point x="296" y="189" type="line"/>
    </contour>
  </outline>
</glyph>
<glyph name="dcroat" format="1">
  <advance width="756"/>
  <unicode hex="0111"/>
  <outline>
    <contour>
      <point x="698" y="204" type="curve" smooth="yes"/>
      <point x="698" y="516" type="line" smooth="yes"/>
      <point x="698" y="637"/>
      <point x="641" y="720"/>
      <point x="452" y="720" type="curve" smooth="yes"/>
      <point x="115" y="720" type="line" smooth="yes"/>
      <point x="90" y="720"/>
      <point x="79" y="709"/>
      <point x="79" y="684" type="curve"/>
      <point x="79" y="444" type="line"/>
      <point x="56" y="444" type="line" smooth="yes"/>
      <point x="31" y="444"/>
      <point x="20" y="433"/>
      <point x="20" y="408" type="curve" smooth="yes"/>
      <point x="20" y="301" type="line" smooth="yes"/>
      <point x="20" y="275"/>
      <point x="31" y="265"/>
      <point x="56" y="265" type="curve"/>
      <point x="79" y="265" type="line"/>
      <point x="79" y="36" type="line"/>
      <point x="79" y="11"/>
      <point x="90" y="0"/>
      <point x="115" y="0" type="curve" smooth="yes"/>
      <point x="452" y="0" type="line" smooth="yes"/>
      <point x="641" y="0"/>
      <point x="698" y="83"/>
    </contour>
    <contour>
      <point x="303" y="189" type="line"/>
      <point x="303" y="265" type="line"/>
      <point x="344" y="265" type="line" smooth="yes"/>
      <point x="369" y="265"/>
      <point x="380" y="275"/>
      <point x="380" y="301" type="curve" smooth="yes"/>
      <point x="380" y="408" type="line" smooth="yes"/>
      <point x="380" y="434"/>
      <point x="369" y="444"/>
      <point x="344" y="444" type="curve" smooth="yes"/>
      <point x="303" y="444" type="line"/>
      <point x="303" y="529" type="line"/>
      <point x="425" y="529" type="line" smooth="yes"/>
      <point x="465" y="529"/>
      <point x="472" y="507"/>
      <point x="472" y="481" type="curve" smooth="yes"/>
      <point x="472" y="238" type="line" smooth="yes"/>
      <point x="472" y="211"/>
      <point x="465" y="189"/>
      <point x="425" y="189" type="curve" smooth="yes"/>
    </contour>
  </outline>
</glyph>
<glyph name="emacron" format="1">
  <advance width="654"/>
  <unicode hex="0113"/>
  <outline>
    <contour>
      <point x="510" y="760" type="line" smooth="yes"/>
      <point x="535" y="760"/>
      <point x="546" y="771"/>
      <point x="546" y="796" type="curve" smooth="yes"/>
      <point x="546" y="889" type="line" smooth="yes"/>
      <point x="546" y="914"/>
      <point x="535" y="925"/>
      <point x="510" y="925" type="curve" smooth="yes"/>
      <point x="163" y="925" type="line" smooth="yes"/>
      <point x="138" y="925"/>
      <point x="127" y="914"/>
      <point x="127" y="889" type="curve" smooth="yes"/>
      <point x="127" y="796" type="line" smooth="yes"/>
      <point x="127" y="771"/>
      <point x="138" y="760"/>
      <point x="163" y="760" type="curve" smooth="yes"/>
    </contour>
    <contour>
      <point x="569" y="0" type="line" smooth="yes"/>
      <point x="594" y="0"/>
      <point x="605" y="11"/>
      <point x="605" y="36" type="curve" smooth="yes"/>
      <point x="605" y="153" type="line" smooth="yes"/>
      <point x="605" y="178"/>
      <point x="594" y="189"/>
      <point x="569" y="189" type="curve" smooth="yes"/>
      <point x="293" y="189" type="line"/>
      <point x="293" y="275" type="line"/>
      <point x="488" y="275" type="line" smooth="yes"/>
      <point x="513" y="275"/>
      <point x="524" y="286"/>
      <point x="524" y="311" type="curve" smooth="yes"/>
      <point x="524" y="418" type="line" smooth="yes"/>
      <point x="524" y="443"/>
      <point x="513" y="454"/>
      <point x="488" y="454" type="curve" smooth="yes"/>
      <point x="293" y="454" type="line"/>
      <point x="293" y="531" type="line"/>
      <point x="569" y="531" type="line" smooth="yes"/>
      <point x="594" y="531"/>
      <point x="605" y="542"/>
      <point x="605" y="567" type="curve" smooth="yes"/>
      <point x="605" y="684" type="line" smooth="yes"/>
      <point x="605" y="709"/>
      <point x="594" y="720"/>
      <point x="569" y="720" type="curve" smooth="yes"/>
      <point x="105" y="720" type="line" smooth="yes"/>
      <point x="80" y="720"/>
      <point x="69" y="709"/>
      <point x="69" y="684" type="curve" smooth="yes"/>
      <point x="69" y="36" type="line" smooth="yes"/>
      <point x="69" y="11"/>
      <point x="80" y="0"/>
      <point x="105" y="0" type="curve" smooth="yes"/>
    </contour>
  </outline>
</glyph>
<glyph name="Ebreve" format="1">
  <advance width="654"/>
  <unicode hex="0114"/>
  <outline>
    <contour>
      <point x="564" y="897" type="curve"/>
      <point x="564" y="941" type="line" smooth="yes"/>
      <point x="564" y="966"/>
      <point x="553" y="977"/>
      <point x="528" y="977" type="curve"/>
      <point x="437" y="977" type="line" smooth="yes"/>
      <point x="414" y="977"/>
      <point x="407" y="970"/>
      <point x="407" y="946" type="curve" smooth="yes"/>
      <point x="407" y="925" type="line" smooth="yes"/>
      <point x="407" y="906"/>
      <point x="398" y="892"/>
      <point x="348" y="892" type="curve" smooth="yes"/>
      <point x="299" y="892"/>
      <point x="291" y="906"/>
      <point x="291" y="925" type="curve" smooth="yes"/>
      <point x="291" y="946" type="line" smooth="yes"/>
      <point x="291" y="970"/>
      <point x="283" y="977"/>
      <point x="262" y="977" type="curve" smooth="yes"/>
      <point x="166" y="977" type="line" smooth="yes"/>
      <point x="141" y="977"/>
      <point x="130" y="966"/>
      <point x="130" y="941" type="curve" smooth="yes"/>
      <point x="130" y="897" type="line" smooth="yes"/>
      <point x="130" y="812"/>
      <point x="173" y="754"/>
      <point x="347" y="754" type="curve" smooth="yes"/>
      <point x="521" y="754"/>
      <point x="564" y="812"/>
    </contour>
    <contour>
      <point x="569" y="0" type="line" smooth="yes"/>
      <point x="594" y="0"/>
      <point x="605" y="11"/>
      <point x="605" y="36" type="curve" smooth="yes"/>
      <point x="605" y="153" type="line" smooth="yes"/>
      <point x="605" y="178"/>
      <point x="594" y="189"/>
      <point x="569" y="189" type="curve" smooth="yes"/>
      <point x="293" y="189" type="line"/>
      <point x="293" y="275" type="line"/>
      <point x="488" y="275" type="line" smooth="yes"/>
      <point x="513" y="275"/>
      <point x="524" y="286"/>
      <point x="524" y="311" type="curve" smooth="yes"/>
      <point x="524" y="418" type="line" smooth="yes"/>
      <point x="524" y="443"/>
      <point x="513" y="454"/>
      <point x="488" y="454" type="curve" smooth="yes"/>
      <point x="293" y="454" type="line"/>
      <point x="293" y="531" type="line"/>
      <point x="569" y="531" type="line" smooth="yes"/>
      <point x="594" y="531"/>
      <point x="605" y="542"/>
      <point x="605" y="567" type="curve" smooth="yes"/>
      <point x="605" y="684" type="line" smooth="yes"/>
      <point x="605" y="709"/>
      <point x="594" y="720"/>
      <point x="569" y="720" type="curve" smooth="yes"/>
      <point x="105" y="720" type="line" smooth="yes"/>
      <point x="80" y="720"/>
      <point x="69" y="709"/>
      <point x="69" y="684" type="curve" smooth="yes"/>
      <point x="69" y="36" type="line" smooth="yes"/>
      <point x="69" y="11"/>
      <point x="80" y="0"/>
      <point x="105" y="0" type="curve" smooth="yes"/>
    </contour>
  </outline>
</glyph>
<glyph name="ecaron" format="1">
  <advance width="654"/>
  <unicode hex="011B"/>
  <outline>
    <contour>
      <point x="375" y="932" type="line"/>
      <point x="352" y="926"/>
      <point x="336" y="926"/>
      <point x="313" y="932" type="curve"/>
      <point x="176" y="972" type="line" smooth="yes"/>
      <point x="141" y="983"/>
      <point x="134" y="977"/>
      <point x="134" y="941" type="curve" smooth="yes"/>
      <point x="134" y="860" type="line" smooth="yes"/>
      <point x="134" y="824"/>
      <point x="142" y="820"/>
      <point x="176" y="807" type="curve" smooth="yes"/>
      <point x="313" y="757" type="line" smooth="yes"/>
      <point x="323" y="753"/>
      <point x="333" y="752"/>
      <point x="345" y="752" type="curve" smooth="yes"/>
      <point x="357" y="753"/>
      <point x="372" y="756"/>
      <point x="384" y="761" type="curve" smooth="yes"/>
      <point x="512" y="807" type="line" smooth="yes"/>
      <point x="544" y="820"/>
      <point x="553" y="824"/>
      <point x="553" y="860" type="curve" smooth="yes"/>
      <point x="553" y="941" type="line" smooth="yes"/>
      <point x="553" y="977"/>
      <point x="546" y="983"/>
      <point x="512" y="972" type="curve" smooth="yes"/>
    </contour>
    <contour>
      <point x="569" y="0" type="line" smooth="yes"/>
      <point x="594" y="0"/>
      <point x="605" y="11"/>
      <point x="605" y="36" type="curve" smooth="yes"/>
      <point x="605" y="153" type="line" smooth="yes"/>
      <point x="605" y="178"/>
      <point x="594" y="189"/>
      <point x="569" y="189" type="curve" smooth="yes"/>
      <point x="293" y="189" type="line"/>
      <point x="293" y="275" type="line"/>
      <point x="488" y="275" type="line" smooth="yes"/>
      <point x="513" y="275"/>
      <point x="524" y="286"/>
      <point x="524" y="311" type="curve" smooth="yes"/>
      <point x="524" y="418" type="line" smooth="yes"/>
      <point x="524" y="443"/>
      <point x="513" y="454"/>
      <point x="488" y="454" type="curve" smooth="yes"/>
      <point x="293" y="454" type="line"/>
      <point x="293" y="531" type="line"/>
      <point x="569" y="531" type="line" smooth="yes"/>
      <point x="594" y="531"/>
      <point x="605" y="542"/>
      <point x="605" y="567" type="curve" smooth="yes"/>
      <point x="605" y="684" type="line" smooth="yes"/>
      <point x="605" y="709"/>
      <point x="594" y="720"/>
      <point x="569" y="720" type="curve" smooth="yes"/>
      <point x="105" y="720" type="line" smooth="yes"/>
      <point x="80" y="720"/>
      <point x="69" y="709"/>
      <point x="69" y="684" type="curve" smooth="yes"/>
      <point x="69" y="36" type="line" smooth="yes"/>
      <point x="69" y="11"/>
      <point x="80" y="0"/>
      <point x="105" y="0" type="curve" smooth="yes"/>
    </contour>
  </outline>
</glyph>
<glyph name="Gcircumflex" format="1">
  <advance width="708"/>
  <unicode hex="011C"/>
  <outline>
    <contour>
      <point x="349" y="797" type="line"/>
      <point x="372" y="803"/>
      <point x="388" y="803"/>
      <point x="411" y="797" type="curve"/>
      <point x="548" y="757" type="line" smooth="yes"/>
      <point x="583" y="746"/>
      <point x="590" y="752"/>
      <point x="590" y="788" type="curve" smooth="yes"/>
      <point x="590" y="869" type="line" smooth="yes"/>
      <point x="590" y="905"/>
      <point x="582" y="909"/>
      <point x="548" y="922" type="curve" smooth="yes"/>
      <point x="411" y="972" type="line" smooth="yes"/>
      <point x="401" y="976"/>
      <point x="391" y="977"/>
      <point x="379" y="977" type="curve" smooth="yes"/>
      <point x="367" y="976"/>
      <point x="352" y="973"/>
      <point x="340" y="968" type="curve" smooth="yes"/>
      <point x="212" y="922" type="line" smooth="yes"/>
      <point x="180" y="909"/>
      <point x="171" y="905"/>
      <point x="171" y="869" type="curve" smooth="yes"/>
      <point x="171" y="788" type="line" smooth="yes"/>
      <point x="171" y="752"/>
      <point x="178" y="746"/>
      <point x="212" y="757" type="curve" smooth="yes"/>
    </contour>
    <contour>
      <point x="619" y="0" type="line" smooth="yes"/>
      <point x="644" y="0"/>
      <point x="655" y="11"/>
      <point x="655" y="36" type="curve" smooth="yes"/>
      <point x="655" y="345" type="line" smooth="yes"/>
      <point x="655" y="370"/>
      <point x="644" y="381"/>
      <point x="619" y="381" type="curve" smooth="yes"/>
      <point x="464" y="381" type="line" smooth="yes"/>
      <point x="439" y="381"/>
      <point x="428" y="370"/>
      <point x="428" y="345" type="curve" smooth="yes"/>
      <point x="428" y="189" type="line"/>
      <point x="331" y="189" type="line" smooth="yes"/>
      <point x="300" y="189"/>
      <point x="285" y="204"/>
      <point x="285" y="238" type="curve" smooth="yes"/>
      <point x="285" y="477" type="line" smooth="yes"/>
      <point x="285" y="511"/>
      <point x="304" y="527"/>
      <point x="346" y="527" type="curve" smooth="yes"/>
      <point x="554" y="527" type="line" smooth="yes"/>
      <point x="579" y="527"/>
      <point x="590" y="538"/>
      <point x="590" y="563" type="curve" smooth="yes"/>
      <point x="590" y="684" type="line" smooth="yes"/>
      <point x="590" y="709"/>
      <point x="579" y="720"/>
      <point x="554" y="720" type="curve" smooth="yes"/>
      <point x="304" y="720" type="line" smooth="yes"/>
      <point x="136" y="720"/>
      <point x="58" y="655"/>
      <point x="58" y="516" type="curve" smooth="yes"/>
      <point x="58" y="204" type="line" smooth="yes"/>
      <point x="58" y="65"/>
      <point x="136" y="0"/>
      <point x="304" y="0" type="curve" smooth="yes"/>
    </contour>
  </outline>
</glyph>
<glyph name="Gbreve" format="1">
  <advance width="708"/>
  <unicode hex="011E"/>
  <outline>
    <contour>
      <point x="591" y="897" type="curve"/>
      <point x="591" y="941" type="line" smooth="yes"/>
      <point x="591" y="966"/>
      <point x="580" y="977"/>
      <point x="555" y="977" type="curve"/>
      <point x="464" y="977" type="line" smooth="yes"/>
      <point x="441" y="977"/>
      <point x="434" y="970"/>
      <point x="434" y="946" type="curve" smooth="yes"/>
      <point x="434" y="925" type="line" smooth="yes"/>
      <point x="434" y="906"/>
      <point x="425" y="892"/>
      <point x="375" y="892" type="curve" smooth="yes"/>
      <point x="326" y="892"/>
      <point x="318" y="906"/>
      <point x="318" y="925" type="curve" smooth="yes"/>
      <point x="318" y="946" type="line" smooth="yes"/>
      <point x="318" y="970"/>
      <point x="310" y="977"/>
      <point x="289" y="977" type="curve" smooth="yes"/>
      <point x="193" y="977" type="line" smooth="yes"/>
      <point x="168" y="977"/>
      <point x="157" y="966"/>
      <point x="157" y="941" type="curve" smooth="yes"/>
      <point x="157" y="897" type="line" smooth="yes"/>
      <point x="157" y="812"/>
      <point x="200" y="754"/>
      <point x="374" y="754" type="curve" smooth="yes"/>
      <point x="548" y="754"/>
      <point x="591" y="812"/>
    </contour>
    <contour>
      <point x="619" y="0" type="line" smooth="yes"/>
      <point x="644" y="0"/>
      <point x="655" y="11"/>
      <point x="655" y="36" type="curve" smooth="yes"/>
      <point x="655" y="345" type="line" smooth="yes"/>
      <point x="655" y="370"/>
      <point x="644" y="381"/>
      <point x="619" y="381" type="curve" smooth="yes"/>
      <point x="464" y="381" type="line" smooth="yes"/>
      <point x="439" y="381"/>
      <point x="428" y="370"/>
      <point x="428" y="345" type="curve" smooth="yes"/>
      <point x="428" y="189" type="line"/>
      <point x="331" y="189" type="line" smooth="yes"/>
      <point x="300" y="189"/>
      <point x="285" y="204"/>
      <point x="285" y="238" type="curve" smooth="yes"/>
      <point x="285" y="477" type="line" smooth="yes"/>
      <point x="285" y="511"/>
      <point x="304" y="527"/>
      <point x="346" y="527" type="curve" smooth="yes"/>
      <point x="554" y="527" type="line" smooth="yes"/>
      <point x="579" y="527"/>
      <point x="590" y="538"/>
      <point x="590" y="563" type="curve" smooth="yes"/>
      <point x="590" y="684" type="line" smooth="yes"/>
      <point x="590" y="709"/>
      <point x="579" y="720"/>
      <point x="554" y="720" type="curve" smooth="yes"/>
      <point x="304" y="720" type="line" smooth="yes"/>
      <point x="136" y="720"/>
      <point x="58" y="655"/>
      <point x="58" y="516" type="curve" smooth="yes"/>
      <point x="58" y="204" type="line" smooth="yes"/>
      <point x="58" y="65"/>
      <point x="136" y="0"/>
      <point x="304" y="0" type="curve" smooth="yes"/>
    </contour>
  </outline>
</glyph>
<glyph name="Gdotaccent" format="1">
  <advance width="708"/>
  <unicode hex="0120"/>
  <outline>
    <contour>
      <point x="454" y="760" type="line" smooth="yes"/>
      <point x="479" y="760"/>
      <point x="490" y="771"/>
      <point x="490" y="796" type="curve" smooth="yes"/>
      <point x="490" y="923" type="line" smooth="yes"/>
      <point x="490" y="948"/>
      <point x="479" y="959"/>
      <point x="454" y="959" type="curve"/>
      <point x="296" y="959" type="line" smooth="yes"/>
      <point x="271" y="959"/>
      <point x="260" y="948"/>
      <point x="260" y="923" type="curve" smooth="yes"/>
      <point x="260" y="796" type="line" smooth="yes"/>
      <point x="260" y="771"/>
      <point x="271" y="760"/>
      <point x="296" y="760" type="curve" smooth="yes"/>
    </contour>
    <contour>
      <point x="619" y="0" type="line" smooth="yes"/>
      <point x="644" y="0"/>
      <point x="655" y="11"/>
      <point x="655" y="36" type="curve" smooth="yes"/>
      <point x="655" y="345" type="line" smooth="yes"/>
      <point x="655" y="370"/>
      <point x="644" y="381"/>
      <point x="619" y="381" type="curve" smooth="yes"/>
      <point x="464" y="381" type="line" smooth="yes"/>
      <point x="439" y="381"/>
      <point x="428" y="370"/>
      <point x="428" y="345" type="curve" smooth="yes"/>
      <point x="428" y="189" type="line"/>
      <point x="331" y="189" type="line" smooth="yes"/>
      <point x="300" y="189"/>
      <point x="285" y="204"/>
      <point x="285" y="238" type="curve" smooth="yes"/>
      <point x="285" y="477" type="line" smooth="yes"/>
      <point x="285" y="511"/>
      <point x="304" y="527"/>
      <point x="346" y="527" type="curve" smooth="yes"/>
      <point x="554" y="527" type="line" smooth="yes"/>
      <point x="579" y="527"/>
      <point x="590" y="538"/>
      <point x="590" y="563" type="curve" smooth="yes"/>
      <point x="590" y="684" type="line" smooth="yes"/>
      <point x="590" y="709"/>
      <point x="579" y="720"/>
      <point x="554" y="720" type="curve" smooth="yes"/>
      <point x="304" y="720" type="line" smooth="yes"/>
      <point x="136" y="720"/>
      <point x="58" y="655"/>
      <point x="58" y="516" type="curve" smooth="yes"/>
      <point x="58" y="204" type="line" smooth="yes"/>
      <point x="58" y="65"/>
      <point x="136" y="0"/>
      <point x="304" y="0" type="curve" smooth="yes"/>
    </contour>
  </outline>
</glyph>
<glyph name="Gcommaaccent" format="1">
  <advance width="708"/>
  <unicode hex="0122"/>
  <outline>
    <contour>
      <point x="619" y="0" type="line" smooth="yes"/>
      <point x="644" y="0"/>
      <point x="655" y="11"/>
      <point x="655" y="36" type="curve" smooth="yes"/>
      <point x="655" y="345" type="line" smooth="yes"/>
      <point x="655" y="370"/>
      <point x="644" y="381"/>
      <point x="619" y="381" type="curve" smooth="yes"/>
      <point x="464" y="381" type="line" smooth="yes"/>
      <point x="439" y="381"/>
      <point x="428" y="370"/>
      <point x="428" y="345" type="curve" smooth="yes"/>
      <point x="428" y="189" type="line"/>
      <point x="331" y="189" type="line" smooth="yes"/>
      <point x="300" y="189"/>
      <point x="285" y="204"/>
      <point x="285" y="238" type="curve" smooth="yes"/>
      <point x="285" y="477" type="line" smooth="yes"/>
      <point x="285" y="511"/>
      <point x="304" y="527"/>
      <point x="346" y="527" type="curve" smooth="yes"/>
      <point x="554" y="527" type="line" smooth="yes"/>
      <point x="579" y="527"/>
      <point x="590" y="538"/>
      <point x="590" y="563" type="curve" smooth="yes"/>
      <point x="590" y="684" type="line" smooth="yes"/>
      <point x="590" y="709"/>
      <point x="579" y="720"/>
      <point x="554" y="720" type="curve" smooth="yes"/>
      <point x="304" y="720" type="line" smooth="yes"/>
      <point x="136" y="720"/>
      <point x="58" y="655"/>
      <point x="58" y="516" type="curve" smooth="yes"/>
      <point x="58" y="204" type="line" smooth="yes"/>
      <point x="58" y="65"/>
      <point x="136" y="0"/>
      <point x="304" y="0" type="curve" smooth="yes"/>
    </contour>
    <contour>
      <point x="365" y="-362" type="line" smooth="yes"/>
      <point x="441" y="-362"/>
      <point x="490" y="-320"/>
      <point x="490" y="-234" type="curve" smooth="yes"/>
      <point x="490" y="-82" type="line" smooth="yes"/>
      <point x="490" y="-52"/>
      <point x="481" y="-43"/>
      <point x="453" y="-43" type="curve" smooth="yes"/>
      <point x="295" y="-43" type="line" smooth="yes"/>
      <point x="267" y="-43"/>
      <point x="258" y="-52"/>
      <point x="258" y="-82" type="curve" smooth="yes"/>
      <point x="258" y="-191" type="line" smooth="yes"/>
      <point x="258" y="-221"/>
      <point x="267" y="-230"/>
      <point x="295" y="-230" type="curve"/>
      <point x="381" y="-230" type="line"/>
      <point x="381" y="-243" type="line" smooth="yes"/>
      <point x="381" y="-258"/>
      <point x="373" y="-267"/>
      <point x="358" y="-267" type="curve" smooth="yes"/>
      <point x="299" y="-267" type="line" smooth="yes"/>
      <point x="278" y="-267"/>
      <point x="269" y="-276"/>
      <point x="269" y="-297" type="curve" smooth="yes"/>
      <point x="269" y="-331" type="line" smooth="yes"/>
      <point x="269" y="-353"/>
      <point x="278" y="-362"/>
      <point x="299" y="-362" type="curve" smooth="yes"/>
    </contour>
  </outline>
</glyph>
<glyph name="hcircumflex" format="1">
  <advance width="759"/>
  <unicode hex="0125"/>
  <outline>
    <contour>
      <point x="347" y="797" type="line"/>
      <point x="370" y="803"/>
      <point x="386" y="803"/>
      <point x="409" y="797" type="curve"/>
      <point x="546" y="757" type="line" smooth="yes"/>
      <point x="581" y="746"/>
      <point x="588" y="752"/>
      <point x="588" y="788" type="curve" smooth="yes"/>
      <point x="588" y="869" type="line" smooth="yes"/>
      <point x="588" y="905"/>
      <point x="580" y="909"/>
      <point x="546" y="922" type="curve" smooth="yes"/>
      <point x="409" y="972" type="line" smooth="yes"/>
      <point x="399" y="976"/>
      <point x="389" y="977"/>
      <point x="377" y="977" type="curve" smooth="yes"/>
      <point x="365" y="976"/>
      <point x="350" y="973"/>
      <point x="338" y="968" type="curve" smooth="yes"/>
      <point x="210" y="922" type="line" smooth="yes"/>
      <point x="178" y="909"/>
      <point x="169" y="905"/>
      <point x="169" y="869" type="curve" smooth="yes"/>
      <point x="169" y="788" type="line" smooth="yes"/>
      <point x="169" y="752"/>
      <point x="176" y="746"/>
      <point x="210" y="757" type="curve" smooth="yes"/>
    </contour>
    <contour>
      <point x="260" y="0" type="line" smooth="yes"/>
      <point x="285" y="0"/>
      <point x="296" y="11"/>
      <point x="296" y="36" type="curve" smooth="yes"/>
      <point x="296" y="258" type="line"/>
      <point x="463" y="258" type="line"/>
      <point x="463" y="36" type="line" smooth="yes"/>
      <point x="463" y="11"/>
      <point x="474" y="0"/>
      <point x="499" y="0" type="curve" smooth="yes"/>
      <point x="654" y="0" type="line" smooth="yes"/>
      <point x="679" y="0"/>
      <point x="690" y="11"/>
      <point x="690" y="36" type="curve" smooth="yes"/>
      <point x="690" y="684" type="line" smooth="yes"/>
      <point x="690" y="709"/>
      <point x="679" y="720"/>
      <point x="654" y="720" type="curve" smooth="yes"/>
      <point x="499" y="720" type="line" smooth="yes"/>
      <point x="474" y="720"/>
      <point x="463" y="709"/>
      <point x="463" y="684" type="curve" smooth="yes"/>
      <point x="463" y="467" type="line"/>
      <point x="296" y="467" type="line"/>
      <point x="296" y="684" type="line" smooth="yes"/>
      <point x="296" y="709"/>
      <point x="285" y="720"/>
      <point x="260" y="720" type="curve" smooth="yes"/>
      <point x="105" y="720" type="line" smooth="yes"/>
      <point x="80" y="720"/>
      <point x="69" y="709"/>
      <point x="69" y="684" type="curve" smooth="yes"/>
      <point x="69" y="36" type="line" smooth="yes"/>
      <point x="69" y="11"/>
      <point x="80" y="0"/>
      <point x="105" y="0" type="curve" smooth="yes"/>
    </contour>
  </outline>
</glyph>
<glyph name="itilde" format="1">
  <advance width="605"/>
  <unicode hex="0129"/>
  <outline>
    <contour>
      <point x="301" y="764" type="line"/>
      <point x="317" y="762" type="line" smooth="yes"/>
      <point x="397" y="750"/>
      <point x="411" y="748"/>
      <point x="474" y="767" type="curve"/>
      <point x="497" y="776"/>
      <point x="510" y="783"/>
      <point x="510" y="808" type="curve" smooth="yes"/>
      <point x="510" y="909" type="line" smooth="yes"/>
      <point x="510" y="934"/>
      <point x="498" y="942"/>
      <point x="474" y="935" type="curve" smooth="yes"/>
      <point x="415" y="917"/>
      <point x="411" y="914"/>
      <point x="323" y="927" type="curve" smooth="yes"/>
      <point x="301" y="930" type="line"/>
      <point x="284" y="932" type="line" smooth="yes"/>
      <point x="204" y="944"/>
      <point x="191" y="946"/>
      <point x="128" y="927" type="curve"/>
      <point x="105" y="918"/>
      <point x="92" y="911"/>
      <point x="92" y="886" type="curve" smooth="yes"/>
      <point x="92" y="785" type="line" smooth="yes"/>
      <point x="92" y="760"/>
      <point x="104" y="752"/>
      <point x="128" y="759" type="curve" smooth="yes"/>
      <point x="181" y="775"/>
      <point x="197" y="779"/>
      <point x="273" y="768" type="curve" smooth="yes"/>
    </contour>
    <contour>
      <point x="89" y="0" type="curve" smooth="yes"/>
      <point x="515" y="0" type="line" smooth="yes"/>
      <point x="540" y="0"/>
      <point x="551" y="11"/>
      <point x="551" y="36" type="curve" smooth="yes"/>
      <point x="551" y="155" type="line" smooth="yes"/>
      <point x="551" y="180"/>
      <point x="540" y="191"/>
      <point x="515" y="191" type="curve" smooth="yes"/>
      <point x="418" y="191" type="line"/>
      <point x="418" y="527" type="line"/>
      <point x="515" y="527" type="line" smooth="yes"/>
      <point x="540" y="527"/>
      <point x="551" y="538"/>
      <point x="551" y="563" type="curve" smooth="yes"/>
      <point x="551" y="684" type="line" smooth="yes"/>
      <point x="551" y="709"/>
      <point x="540" y="720"/>
      <point x="515" y="720" type="curve" smooth="yes"/>
      <point x="89" y="720" type="line" smooth="yes"/>
      <point x="64" y="720"/>
      <point x="53" y="709"/>
      <point x="53" y="684" type="curve" smooth="yes"/>
      <point x="53" y="563" type="line" smooth="yes"/>
      <point x="53" y="538"/>
      <point x="64" y="527"/>
      <point x="89" y="527" type="curve" smooth="yes"/>
      <point x="188" y="527" type="line"/>
      <point x="188" y="191" type="line"/>
      <point x="89" y="191" type="line" smooth="yes"/>
      <point x="64" y="191"/>
      <point x="53" y="180"/>
      <point x="53" y="155" type="curve" smooth="yes"/>
      <point x="53" y="36" type="line" smooth="yes"/>
      <point x="53" y="11"/>
      <point x="64" y="0"/>
    </contour>
  </outline>
</glyph>
<glyph name="ibreve" format="1">
  <advance width="605"/>
  <unicode hex="012D"/>
  <outline>
    <contour>
      <point x="519" y="897" type="curve"/>
      <point x="519" y="941" type="line" smooth="yes"/>
      <point x="519" y="966"/>
      <point x="508" y="977"/>
      <point x="483" y="977" type="curve"/>
      <point x="392" y="977" type="line" smooth="yes"/>
      <point x="369" y="977"/>
      <point x="362" y="970"/>
      <point x="362" y="946" type="curve" smooth="yes"/>
      <point x="362" y="925" type="line" smooth="yes"/>
      <point x="362" y="906"/>
      <point x="353" y="892"/>
      <point x="303" y="892" type="curve" smooth="yes"/>
      <point x="254" y="892"/>
      <point x="246" y="906"/>
      <point x="246" y="925" type="curve" smooth="yes"/>
      <point x="246" y="946" type="line" smooth="yes"/>
      <point x="246" y="970"/>
      <point x="238" y="977"/>
      <point x="217" y="977" type="curve" smooth="yes"/>
      <point x="121" y="977" type="line" smooth="yes"/>
      <point x="96" y="977"/>
      <point x="85" y="966"/>
      <point x="85" y="941" type="curve" smooth="yes"/>
      <point x="85" y="897" type="line" smooth="yes"/>
      <point x="85" y="812"/>
      <point x="128" y="754"/>
      <point x="302" y="754" type="curve" smooth="yes"/>
      <point x="476" y="754"/>
      <point x="519" y="812"/>
    </contour>
    <contour>
      <point x="89" y="0" type="curve" smooth="yes"/>
      <point x="515" y="0" type="line" smooth="yes"/>
      <point x="540" y="0"/>
      <point x="551" y="11"/>
      <point x="551" y="36" type="curve" smooth="yes"/>
      <point x="551" y="155" type="line" smooth="yes"/>
      <point x="551" y="180"/>
      <point x="540" y="191"/>
      <point x="515" y="191" type="curve" smooth="yes"/>
      <point x="418" y="191" type="line"/>
      <point x="418" y="527" type="line"/>
      <point x="515" y="527" type="line" smooth="yes"/>
      <point x="540" y="527"/>
      <point x="551" y="538"/>
      <point x="551" y="563" type="curve" smooth="yes"/>
      <point x="551" y="684" type="line" smooth="yes"/>
      <point x="551" y="709"/>
      <point x="540" y="720"/>
      <point x="515" y="720" type="curve" smooth="yes"/>
      <point x="89" y="720" type="line" smooth="yes"/>
      <point x="64" y="720"/>
      <point x="53" y="709"/>
      <point x="53" y="684" type="curve" smooth="yes"/>
      <point x="53" y="563" type="line" smooth="yes"/>
      <point x="53" y="538"/>
      <point x="64" y="527"/>
      <point x="89" y="527" type="curve" smooth="yes"/>
      <point x="188" y="527" type="line"/>
      <point x="188" y="191" type="line"/>
      <point x="89" y="191" type="line" smooth="yes"/>
      <point x="64" y="191"/>
      <point x="53" y="180"/>
      <point x="53" y="155" type="curve" smooth="yes"/>
      <point x="53" y="36" type="line" smooth="yes"/>
      <point x="53" y="11"/>
      <point x="64" y="0"/>
    </contour>
  </outline>
</glyph>
<glyph name="Idotaccent" format="1">
  <advance width="605"/>
  <unicode hex="0130"/>
  <outline>
    <contour>
      <point x="382" y="760" type="line" smooth="yes"/>
      <point x="407" y="760"/>
      <point x="418" y="771"/>
      <point x="418" y="796" type="curve" smooth="yes"/>
      <point x="418" y="923" type="line" smooth="yes"/>
      <point x="418" y="948"/>
      <point x="407" y="959"/>
      <point x="382" y="959" type="curve"/>
      <point x="224" y="959" type="line" smooth="yes"/>
      <point x="199" y="959"/>
      <point x="188" y="948"/>
      <point x="188" y="923" type="curve" smooth="yes"/>
      <point x="188" y="796" type="line" smooth="yes"/>
      <point x="188" y="771"/>
      <point x="199" y="760"/>
      <point x="224" y="760" type="curve" smooth="yes"/>
    </contour>
    <contour>
      <point x="89" y="0" type="curve" smooth="yes"/>
      <point x="515" y="0" type="line" smooth="yes"/>
      <point x="540" y="0"/>
      <point x="551" y="11"/>
      <point x="551" y="36" type="curve" smooth="yes"/>
      <point x="551" y="155" type="line" smooth="yes"/>
      <point x="551" y="180"/>
      <point x="540" y="191"/>
      <point x="515" y="191" type="curve" smooth="yes"/>
      <point x="418" y="191" type="line"/>
      <point x="418" y="527" type="line"/>
      <point x="515" y="527" type="line" smooth="yes"/>
      <point x="540" y="527"/>
      <point x="551" y="538"/>
      <point x="551" y="563" type="curve" smooth="yes"/>
      <point x="551" y="684" type="line" smooth="yes"/>
      <point x="551" y="709"/>
      <point x="540" y="720"/>
      <point x="515" y="720" type="curve" smooth="yes"/>
      <point x="89" y="720" type="line" smooth="yes"/>
      <point x="64" y="720"/>
      <point x="53" y="709"/>
      <point x="53" y="684" type="curve" smooth="yes"/>
      <point x="53" y="563" type="line" smooth="yes"/>
      <point x="53" y="538"/>
      <point x="64" y="527"/>
      <point x="89" y="527" type="curve" smooth="yes"/>
      <point x="188" y="527" type="line"/>
      <point x="188" y="191" type="line"/>
      <point x="89" y="191" type="line" smooth="yes"/>
      <point x="64" y="191"/>
      <point x="53" y="180"/>
      <point x="53" y="155" type="curve" smooth="yes"/>
      <point x="53" y="36" type="line" smooth="yes"/>
      <point x="53" y="11"/>
      <point x="64" y="0"/>
    </contour>
  </outline>
</glyph>
<glyph name="dotlessi" format="1">
  <advance width="605"/>
  <unicode hex="0131"/>
  <outline>
    <contour>
      <point x="89" y="0" type="curve" smooth="yes"/>
      <point x="515" y="0" type="line" smooth="yes"/>
      <point x="540" y="0"/>
      <point x="551" y="11"/>
      <point x="551" y="36" type="curve" smooth="yes"/>
      <point x="551" y="155" type="line" smooth="yes"/>
      <point x="551" y="180"/>
      <point x="540" y="191"/>
      <point x="515" y="191" type="curve" smooth="yes"/>
      <point x="418" y="191" type="line"/>
      <point x="418" y="527" type="line"/>
      <point x="515" y="527" type="line" smooth="yes"/>
      <point x="540" y="527"/>
      <point x="551" y="538"/>
      <point x="551" y="563" type="curve" smooth="yes"/>
      <point x="551" y="684" type="line" smooth="yes"/>
      <point x="551" y="709"/>
      <point x="540" y="720"/>
      <point x="515" y="720" type="curve" smooth="yes"/>
      <point x="89" y="720" type="line" smooth="yes"/>
      <point x="64" y="720"/>
      <point x="53" y="709"/>
      <point x="53" y="684" type="curve" smooth="yes"/>
      <point x="53" y="563" type="line" smooth="yes"/>
      <point x="53" y="538"/>
      <point x="64" y="527"/>
      <point x="89" y="527" type="curve" smooth="yes"/>
      <point x="188" y="527" type="line"/>
      <point x="188" y="191" type="line"/>
      <point x="89" y="191" type="line" smooth="yes"/>
      <point x="64" y="191"/>
      <point x="53" y="180"/>
      <point x="53" y="155" type="curve" smooth="yes"/>
      <point x="53" y="36" type="line" smooth="yes"/>
      <point x="53" y="11"/>
      <point x="64" y="0"/>
    </contour>
  </outline>
</glyph>
<glyph name="ij" format="1">
  <advance width="744.0"/>
  <unicode hex="0133"/>
  <outline>
    <contour>
      <point x="69" y="36" type="line" smooth="yes"/>
      <point x="69" y="11"/>
      <point x="80" y="0"/>
      <point x="105" y="0" type="curve"/>
      <point x="467" y="0" type="line" smooth="yes"/>
      <point x="599" y="0"/>
      <point x="680" y="78"/>
      <point x="680" y="210" type="curve" smooth="yes"/>
      <point x="680" y="684" type="line" smooth="yes"/>
      <point x="680" y="709"/>
      <point x="669" y="720"/>
      <point x="644" y="720" type="curve" smooth="yes"/>
      <point x="489" y="720" type="line" smooth="yes"/>
      <point x="464" y="720"/>
      <point x="453" y="709"/>
      <point x="453" y="684" type="curve" smooth="yes"/>
      <point x="453" y="260" type="line" smooth="yes"/>
      <point x="453" y="212"/>
      <point x="428" y="193"/>
      <point x="380" y="193" type="curve" smooth="yes"/>
      <point x="105" y="193" type="line" smooth="yes"/>
      <point x="80" y="193"/>
      <point x="69" y="182"/>
      <point x="69" y="157" type="curve" smooth="yes"/>
    </contour>
    <contour>
      <point x="260" y="310" type="line" smooth="yes"/>
      <point x="285" y="310"/>
      <point x="296" y="321"/>
      <point x="296" y="346" type="curve" smooth="yes"/>
      <point x="296" y="684" type="line" smooth="yes"/>
      <point x="296" y="709"/>
      <point x="285" y="720"/>
      <point x="260" y="720" type="curve" smooth="yes"/>
      <point x="105" y="720" type="line" smooth="yes"/>
      <point x="80" y="720"/>
      <point x="69" y="709"/>
      <point x="69" y="684" type="curve" smooth="yes"/>
      <point x="69" y="346" type="line" smooth="yes"/>
      <point x="69" y="321"/>
      <point x="80" y="310"/>
      <point x="105" y="310" type="curve" smooth="yes"/>
    </contour>
  </outline>
</glyph>
<glyph name="Jcircumflex" format="1">
  <advance width="688"/>
  <unicode hex="0134"/>
  <outline>
    <contour>
      <point x="470" y="797" type="line"/>
      <point x="493" y="803"/>
      <point x="509" y="803"/>
      <point x="532" y="797" type="curve"/>
      <point x="669" y="757" type="line" smooth="yes"/>
      <point x="704" y="746"/>
      <point x="711" y="752"/>
      <point x="711" y="788" type="curve" smooth="yes"/>
      <point x="711" y="869" type="line" smooth="yes"/>
      <point x="711" y="905"/>
      <point x="703" y="909"/>
      <point x="669" y="922" type="curve" smooth="yes"/>
      <point x="532" y="972" type="line" smooth="yes"/>
      <point x="522" y="976"/>
      <point x="512" y="977"/>
      <point x="500" y="977" type="curve" smooth="yes"/>
      <point x="488" y="976"/>
      <point x="473" y="973"/>
      <point x="461" y="968" type="curve" smooth="yes"/>
      <point x="333" y="922" type="line" smooth="yes"/>
      <point x="301" y="909"/>
      <point x="292" y="905"/>
      <point x="292" y="869" type="curve" smooth="yes"/>
      <point x="292" y="788" type="line" smooth="yes"/>
      <point x="292" y="752"/>
      <point x="299" y="746"/>
      <point x="333" y="757" type="curve" smooth="yes"/>
    </contour>
    <contour>
      <point x="624" y="189" type="curve" smooth="yes"/>
      <point x="624" y="684" type="line" smooth="yes"/>
      <point x="624" y="709"/>
      <point x="613" y="720"/>
      <point x="588" y="720" type="curve" smooth="yes"/>
      <point x="431" y="720" type="line" smooth="yes"/>
      <point x="406" y="720"/>
      <point x="395" y="709"/>
      <point x="395" y="684" type="curve" smooth="yes"/>
      <point x="395" y="229" type="line" smooth="yes"/>
      <point x="395" y="202"/>
      <point x="387" y="182"/>
      <point x="329" y="182" type="curve" smooth="yes"/>
      <point x="267" y="182"/>
      <point x="258" y="202"/>
      <point x="258" y="229" type="curve" smooth="yes"/>
      <point x="258" y="351" type="line" smooth="yes"/>
      <point x="258" y="377"/>
      <point x="247" y="387"/>
      <point x="222" y="387" type="curve" smooth="yes"/>
      <point x="77" y="387" type="line" smooth="yes"/>
      <point x="52" y="387"/>
      <point x="41" y="377"/>
      <point x="41" y="351" type="curve" smooth="yes"/>
      <point x="41" y="189" type="line" smooth="yes"/>
      <point x="41" y="67"/>
      <point x="98" y="-15"/>
      <point x="331" y="-15" type="curve" smooth="yes"/>
      <point x="566" y="-15"/>
      <point x="624" y="67"/>
    </contour>
  </outline>
</glyph>
<glyph name="Kcommaaccent" format="1">
  <advance width="746"/>
  <unicode hex="0136"/>
  <outline>
    <contour>
      <point x="260" y="0" type="line" smooth="yes"/>
      <point x="285" y="0"/>
      <point x="296" y="11"/>
      <point x="296" y="36" type="curve" smooth="yes"/>
      <point x="296" y="265" type="line"/>
      <point x="428" y="265" type="line" smooth="yes"/>
      <point x="449" y="265"/>
      <point x="460" y="253"/>
      <point x="460" y="231" type="curve" smooth="yes"/>
      <point x="460" y="36" type="line" smooth="yes"/>
      <point x="460" y="11"/>
      <point x="471" y="0"/>
      <point x="496" y="0" type="curve" smooth="yes"/>
      <point x="650" y="0" type="line" smooth="yes"/>
      <point x="675" y="0"/>
      <point x="686" y="11"/>
      <point x="686" y="36" type="curve" smooth="yes"/>
      <point x="686" y="318" type="line" smooth="yes"/>
      <point x="686" y="398"/>
      <point x="638" y="450"/>
      <point x="563" y="454" type="curve"/>
      <point x="665" y="687" type="line" smooth="yes"/>
      <point x="674" y="708"/>
      <point x="666" y="720"/>
      <point x="643" y="720" type="curve" smooth="yes"/>
      <point x="489" y="720" type="line" smooth="yes"/>
      <point x="463" y="720"/>
      <point x="449" y="711"/>
      <point x="439" y="687" type="curve" smooth="yes"/>
      <point x="336" y="454" type="line"/>
      <point x="296" y="454" type="line"/>
      <point x="296" y="684" type="line" smooth="yes"/>
      <point x="296" y="709"/>
      <point x="285" y="720"/>
      <point x="260" y="720" type="curve" smooth="yes"/>
      <point x="105" y="720" type="line" smooth="yes"/>
      <point x="80" y="720"/>
      <point x="69" y="709"/>
      <point x="69" y="684" type="curve" smooth="yes"/>
      <point x="69" y="36" type="line" smooth="yes"/>
      <point x="69" y="11"/>
      <point x="80" y="0"/>
      <point x="105" y="0" type="curve" smooth="yes"/>
    </contour>
    <contour>
      <point x="364" y="-362" type="line" smooth="yes"/>
      <point x="440" y="-362"/>
      <point x="489" y="-320"/>
      <point x="489" y="-234" type="curve" smooth="yes"/>
      <point x="489" y="-82" type="line" smooth="yes"/>
      <point x="489" y="-52"/>
      <point x="480" y="-43"/>
      <point x="452" y="-43" type="curve" smooth="yes"/>
      <point x="294" y="-43" type="line" smooth="yes"/>
      <point x="266" y="-43"/>
      <point x="257" y="-52"/>
      <point x="257" y="-82" type="curve" smooth="yes"/>
      <point x="257" y="-191" type="line" smooth="yes"/>
      <point x="257" y="-221"/>
      <point x="266" y="-230"/>
      <point x="294" y="-230" type="curve"/>
      <point x="380" y="-230" type="line"/>
      <point x="380" y="-243" type="line" smooth="yes"/>
      <point x="380" y="-258"/>
      <point x="372" y="-267"/>
      <point x="357" y="-267" type="curve" smooth="yes"/>
      <point x="298" y="-267" type="line" smooth="yes"/>
      <point x="277" y="-267"/>
      <point x="268" y="-276"/>
      <point x="268" y="-297" type="curve" smooth="yes"/>
      <point x="268" y="-331" type="line" smooth="yes"/>
      <point x="268" y="-353"/>
      <point x="277" y="-362"/>
      <point x="298" y="-362" type="curve" smooth="yes"/>
    </contour>
  </outline>
</glyph>
<glyph name="lacute" format="1">
  <advance width="695"/>
  <unicode hex="013A"/>
  <outline>
    <contour>
      <point x="452" y="796" type="line" smooth="yes"/>
      <point x="477" y="799"/>
      <point x="488" y="807"/>
      <point x="488" y="832" type="curve" smooth="yes"/>
      <point x="488" y="928" type="line" smooth="yes"/>
      <point x="488" y="951"/>
      <point x="477" y="964"/>
      <point x="454" y="961" type="curve"/>
      <point x="105" y="918" type="line" smooth="yes"/>
      <point x="80" y="915"/>
      <point x="69" y="907"/>
      <point x="69" y="882" type="curve" smooth="yes"/>
      <point x="69" y="786" type="line" smooth="yes"/>
      <point x="69" y="763"/>
      <point x="80" y="750"/>
      <point x="103" y="753" type="curve" smooth="yes"/>
    </contour>
    <contour>
      <point x="614" y="0" type="line" smooth="yes"/>
      <point x="639" y="0"/>
      <point x="650" y="11"/>
      <point x="650" y="36" type="curve" smooth="yes"/>
      <point x="650" y="351" type="line" smooth="yes"/>
      <point x="650" y="376"/>
      <point x="639" y="387"/>
      <point x="614" y="387" type="curve" smooth="yes"/>
      <point x="469" y="387" type="line" smooth="yes"/>
      <point x="444" y="387"/>
      <point x="433" y="376"/>
      <point x="433" y="351" type="curve" smooth="yes"/>
      <point x="433" y="189" type="line"/>
      <point x="296" y="189" type="line"/>
      <point x="296" y="684" type="line" smooth="yes"/>
      <point x="296" y="709"/>
      <point x="285" y="720"/>
      <point x="260" y="720" type="curve" smooth="yes"/>
      <point x="105" y="720" type="line" smooth="yes"/>
      <point x="80" y="720"/>
      <point x="69" y="709"/>
      <point x="69" y="684" type="curve" smooth="yes"/>
      <point x="69" y="36" type="line" smooth="yes"/>
      <point x="69" y="11"/>
      <point x="80" y="0"/>
      <point x="105" y="0" type="curve" smooth="yes"/>
    </contour>
  </outline>
</glyph>
<glyph name="Lcommaaccent" format="1">
  <advance width="695"/>
  <unicode hex="013B"/>
  <outline>
    <contour>
      <point x="614" y="0" type="line" smooth="yes"/>
      <point x="639" y="0"/>
      <point x="650" y="11"/>
      <point x="650" y="36" type="curve" smooth="yes"/>
      <point x="650" y="351" type="line" smooth="yes"/>
      <point x="650" y="376"/>
      <point x="639" y="387"/>
      <point x="614" y="387" type="curve" smooth="yes"/>
      <point x="469" y="387" type="line" smooth="yes"/>
      <point x="444" y="387"/>
      <point x="433" y="376"/>
      <point x="433" y="351" type="curve" smooth="yes"/>
      <point x="433" y="189" type="line"/>
      <point x="296" y="189" type="line"/>
      <point x="296" y="684" type="line" smooth="yes"/>
      <point x="296" y="709"/>
      <point x="285" y="720"/>
      <point x="260" y="720" type="curve" smooth="yes"/>
      <point x="105" y="720" type="line" smooth="yes"/>
      <point x="80" y="720"/>
      <point x="69" y="709"/>
      <point x="69" y="684" type="curve" smooth="yes"/>
      <point x="69" y="36" type="line" smooth="yes"/>
      <point x="69" y="11"/>
      <point x="80" y="0"/>
      <point x="105" y="0" type="curve" smooth="yes"/>
    </contour>
    <contour>
      <point x="355" y="-362" type="line" smooth="yes"/>
      <point x="431" y="-362"/>
      <point x="480" y="-320"/>
      <point x="480" y="-234" type="curve" smooth="yes"/>
      <point x="480" y="-82" type="line" smooth="yes"/>
      <point x="480" y="-52"/>
      <point x="471" y="-43"/>
      <point x="443" y="-43" type="curve" smooth="yes"/>
      <point x="285" y="-43" type="line" smooth="yes"/>
      <point x="257" y="-43"/>
      <point x="248" y="-52"/>
      <point x="248" y="-82" type="curve" smooth="yes"/>
      <point x="248" y="-191" type="line" smooth="yes"/>
      <point x="248" y="-221"/>
      <point x="257" y="-230"/>
      <point x="285" y="-230" type="curve"/>
      <point x="371" y="-230" type="line"/>
      <point x="371" y="-243" type="line" smooth="yes"/>
      <point x="371" y="-258"/>
      <point x="363" y="-267"/>
      <point x="348" y="-267" type="curve" smooth="yes"/>
      <point x="289" y="-267" type="line" smooth="yes"/>
      <point x="268" y="-267"/>
      <point x="259" y="-276"/>
      <point x="259" y="-297" type="curve" smooth="yes"/>
      <point x="259" y="-331" type="line" smooth="yes"/>
      <point x="259" y="-353"/>
      <point x="268" y="-362"/>
      <point x="289" y="-362" type="curve" smooth="yes"/>
    </contour>
  </outline>
</glyph>
<glyph name="Nacute" format="1">
  <advance width="753"/>
  <unicode hex="0143"/>
  <outline>
    <contour>
      <point x="559" y="796" type="line" smooth="yes"/>
      <point x="584" y="799"/>
      <point x="595" y="807"/>
      <point x="595" y="832" type="curve" smooth="yes"/>
      <point x="595" y="928" type="line" smooth="yes"/>
      <point x="595" y="951"/>
      <point x="584" y="964"/>
      <point x="561" y="961" type="curve"/>
      <point x="212" y="918" type="line" smooth="yes"/>
      <point x="187" y="915"/>
      <point x="176" y="907"/>
      <point x="176" y="882" type="curve" smooth="yes"/>
      <point x="176" y="786" type="line" smooth="yes"/>
      <point x="176" y="763"/>
      <point x="187" y="750"/>
      <point x="210" y="753" type="curve" smooth="yes"/>
    </contour>
    <contour>
      <point x="255" y="0" type="line" smooth="yes"/>
      <point x="280" y="0"/>
      <point x="291" y="11"/>
      <point x="291" y="36" type="curve" smooth="yes"/>
      <point x="291" y="366" type="line"/>
      <point x="462" y="159" type="line"/>
      <point x="462" y="36" type="line" smooth="yes"/>
      <point x="462" y="11"/>
      <point x="473" y="0"/>
      <point x="498" y="0" type="curve" smooth="yes"/>
      <point x="648" y="0" type="line" smooth="yes"/>
      <point x="673" y="0"/>
      <point x="684" y="11"/>
      <point x="684" y="36" type="curve" smooth="yes"/>
      <point x="684" y="684" type="line" smooth="yes"/>
      <point x="684" y="709"/>
      <point x="673" y="720"/>
      <point x="648" y="720" type="curve" smooth="yes"/>
      <point x="498" y="720" type="line" smooth="yes"/>
      <point x="473" y="720"/>
      <point x="462" y="709"/>
      <point x="462" y="684" type="curve" smooth="yes"/>
      <point x="462" y="471" type="line"/>
      <point x="268" y="693" type="line" smooth="yes"/>
      <point x="251" y="713"/>
      <point x="235" y="720"/>
      <point x="209" y="720" type="curve" smooth="yes"/>
      <point x="105" y="720" type="line" smooth="yes"/>
      <point x="80" y="720"/>
      <point x="69" y="709"/>
      <point x="69" y="684" type="curve" smooth="yes"/>
      <point x="69" y="36" type="line" smooth="yes"/>
      <point x="69" y="11"/>
      <point x="80" y="0"/>
      <point x="105" y="0" type="curve" smooth="yes"/>
    </contour>
  </outline>
</glyph>
<glyph name="ncommaaccent" format="1">
  <advance width="753"/>
  <unicode hex="0146"/>
  <outline>
    <contour>
      <point x="255" y="0" type="line" smooth="yes"/>
      <point x="280" y="0"/>
      <point x="291" y="11"/>
      <point x="291" y="36" type="curve" smooth="yes"/>
      <point x="291" y="366" type="line"/>
      <point x="462" y="159" type="line"/>
      <point x="462" y="36" type="line" smooth="yes"/>
      <point x="462" y="11"/>
      <point x="473" y="0"/>
      <point x="498" y="0" type="curve" smooth="yes"/>
      <point x="648" y="0" type="line" smooth="yes"/>
      <point x="673" y="0"/>
      <point x="684" y="11"/>
      <point x="684" y="36" type="curve" smooth="yes"/>
      <point x="684" y="684" type="line" smooth="yes"/>
      <point x="684" y="709"/>
      <point x="673" y="720"/>
      <point x="648" y="720" type="curve" smooth="yes"/>
      <point x="498" y="720" type="line" smooth="yes"/>
      <point x="473" y="720"/>
      <point x="462" y="709"/>
      <point x="462" y="684" type="curve" smooth="yes"/>
      <point x="462" y="471" type="line"/>
      <point x="268" y="693" type="line" smooth="yes"/>
      <point x="251" y="713"/>
      <point x="235" y="720"/>
      <point x="209" y="720" type="curve" smooth="yes"/>
      <point x="105" y="720" type="line" smooth="yes"/>
      <point x="80" y="720"/>
      <point x="69" y="709"/>
      <point x="69" y="684" type="curve" smooth="yes"/>
      <point x="69" y="36" type="line" smooth="yes"/>
      <point x="69" y="11"/>
      <point x="80" y="0"/>
      <point x="105" y="0" type="curve" smooth="yes"/>
    </contour>
    <contour>
      <point x="367" y="-362" type="line" smooth="yes"/>
      <point x="443" y="-362"/>
      <point x="492" y="-320"/>
      <point x="492" y="-234" type="curve" smooth="yes"/>
      <point x="492" y="-82" type="line" smooth="yes"/>
      <point x="492" y="-52"/>
      <point x="483" y="-43"/>
      <point x="455" y="-43" type="curve" smooth="yes"/>
      <point x="297" y="-43" type="line" smooth="yes"/>
      <point x="269" y="-43"/>
      <point x="260" y="-52"/>
      <point x="260" y="-82" type="curve" smooth="yes"/>
      <point x="260" y="-191" type="line" smooth="yes"/>
      <point x="260" y="-221"/>
      <point x="269" y="-230"/>
      <point x="297" y="-230" type="curve"/>
      <point x="383" y="-230" type="line"/>
      <point x="383" y="-243" type="line" smooth="yes"/>
      <point x="383" y="-258"/>
      <point x="375" y="-267"/>
      <point x="360" y="-267" type="curve" smooth="yes"/>
      <point x="301" y="-267" type="line" smooth="yes"/>
      <point x="280" y="-267"/>
      <point x="271" y="-276"/>
      <point x="271" y="-297" type="curve" smooth="yes"/>
      <point x="271" y="-331" type="line" smooth="yes"/>
      <point x="271" y="-353"/>
      <point x="280" y="-362"/>
      <point x="301" y="-362" type="curve" smooth="yes"/>
    </contour>
  </outline>
</glyph>
<glyph name="ncaron" format="1">
  <advance width="753"/>
  <unicode hex="0148"/>
  <outline>
    <contour>
      <point x="397" y="932" type="line"/>
      <point x="374" y="926"/>
      <point x="358" y="926"/>
      <point x="335" y="932" type="curve"/>
      <point x="198" y="972" type="line" smooth="yes"/>
      <point x="163" y="983"/>
      <point x="156" y="977"/>
      <point x="156" y="941" type="curve" smooth="yes"/>
      <point x="156" y="860" type="line" smooth="yes"/>
      <point x="156" y="824"/>
      <point x="164" y="820"/>
      <point x="198" y="807" type="curve" smooth="yes"/>
      <point x="335" y="757" type="line" smooth="yes"/>
      <point x="345" y="753"/>
      <point x="355" y="752"/>
      <point x="367" y="752" type="curve" smooth="yes"/>
      <point x="379" y="753"/>
      <point x="394" y="756"/>
      <point x="406" y="761" type="curve" smooth="yes"/>
      <point x="534" y="807" type="line" smooth="yes"/>
      <point x="566" y="820"/>
      <point x="575" y="824"/>
      <point x="575" y="860" type="curve" smooth="yes"/>
      <point x="575" y="941" type="line" smooth="yes"/>
      <point x="575" y="977"/>
      <point x="568" y="983"/>
      <point x="534" y="972" type="curve" smooth="yes"/>
    </contour>
    <contour>
      <point x="255" y="0" type="line" smooth="yes"/>
      <point x="280" y="0"/>
      <point x="291" y="11"/>
      <point x="291" y="36" type="curve" smooth="yes"/>
      <point x="291" y="366" type="line"/>
      <point x="462" y="159" type="line"/>
      <point x="462" y="36" type="line" smooth="yes"/>
      <point x="462" y="11"/>
      <point x="473" y="0"/>
      <point x="498" y="0" type="curve" smooth="yes"/>
      <point x="648" y="0" type="line" smooth="yes"/>
      <point x="673" y="0"/>
      <point x="684" y="11"/>
      <point x="684" y="36" type="curve" smooth="yes"/>
      <point x="684" y="684" type="line" smooth="yes"/>
      <point x="684" y="709"/>
      <point x="673" y="720"/>
      <point x="648" y="720" type="curve" smooth="yes"/>
      <point x="498" y="720" type="line" smooth="yes"/>
      <point x="473" y="720"/>
      <point x="462" y="709"/>
      <point x="462" y="684" type="curve" smooth="yes"/>
      <point x="462" y="471" type="line"/>
      <point x="268" y="693" type="line" smooth="yes"/>
      <point x="251" y="713"/>
      <point x="235" y="720"/>
      <point x="209" y="720" type="curve" smooth="yes"/>
      <point x="105" y="720" type="line" smooth="yes"/>
      <point x="80" y="720"/>
      <point x="69" y="709"/>
      <point x="69" y="684" type="curve" smooth="yes"/>
      <point x="69" y="36" type="line" smooth="yes"/>
      <point x="69" y="11"/>
      <point x="80" y="0"/>
      <point x="105" y="0" type="curve" smooth="yes"/>
    </contour>
  </outline>
</glyph>
<glyph name="napostrophe" format="1">
  <advance width="753"/>
  <unicode hex="0149"/>
  <outline>
    <contour>
      <point x="163" y="751" type="line" smooth="yes"/>
      <point x="239" y="751"/>
      <point x="288" y="793"/>
      <point x="288" y="879" type="curve" smooth="yes"/>
      <point x="288" y="1031" type="line" smooth="yes"/>
      <point x="288" y="1061"/>
      <point x="279" y="1070"/>
      <point x="251" y="1070" type="curve" smooth="yes"/>
      <point x="93" y="1070" type="line" smooth="yes"/>
      <point x="65" y="1070"/>
      <point x="56" y="1061"/>
      <point x="56" y="1031" type="curve" smooth="yes"/>
      <point x="56" y="922" type="line" smooth="yes"/>
      <point x="56" y="892"/>
      <point x="65" y="883"/>
      <point x="93" y="883" type="curve"/>
      <point x="179" y="883" type="line"/>
      <point x="179" y="870" type="line" smooth="yes"/>
      <point x="179" y="855"/>
      <point x="171" y="846"/>
      <point x="156" y="846" type="curve" smooth="yes"/>
      <point x="97" y="846" type="line" smooth="yes"/>
      <point x="76" y="846"/>
      <point x="67" y="837"/>
      <point x="67" y="816" type="curve" smooth="yes"/>
      <point x="67" y="782" type="line" smooth="yes"/>
      <point x="67" y="760"/>
      <point x="76" y="751"/>
      <point x="97" y="751" type="curve" smooth="yes"/>
    </contour>
    <contour>
      <point x="255" y="0" type="line" smooth="yes"/>
      <point x="280" y="0"/>
      <point x="291" y="11"/>
      <point x="291" y="36" type="curve" smooth="yes"/>
      <point x="291" y="366" type="line"/>
      <point x="462" y="159" type="line"/>
      <point x="462" y="36" type="line" smooth="yes"/>
      <point x="462" y="11"/>
      <point x="473" y="0"/>
      <point x="498" y="0" type="curve" smooth="yes"/>
      <point x="648" y="0" type="line" smooth="yes"/>
      <point x="673" y="0"/>
      <point x="684" y="11"/>
      <point x="684" y="36" type="curve" smooth="yes"/>
      <point x="684" y="684" type="line" smooth="yes"/>
      <point x="684" y="709"/>
      <point x="673" y="720"/>
      <point x="648" y="720" type="curve" smooth="yes"/>
      <point x="498" y="720" type="line" smooth="yes"/>
      <point x="473" y="720"/>
      <point x="462" y="709"/>
      <point x="462" y="684" type="curve" smooth="yes"/>
      <point x="462" y="471" type="line"/>
      <point x="268" y="693" type="line" smooth="yes"/>
      <point x="251" y="713"/>
      <point x="235" y="720"/>
      <point x="209" y="720" type="curve" smooth="yes"/>
      <point x="105" y="720" type="line" smooth="yes"/>
      <point x="80" y="720"/>
      <point x="69" y="709"/>
      <point x="69" y="684" type="curve" smooth="yes"/>
      <point x="69" y="36" type="line" smooth="yes"/>
      <point x="69" y="11"/>
      <point x="80" y="0"/>
      <point x="105" y="0" type="curve" smooth="yes"/>
    </contour>
  </outline>
</glyph>
<glyph name="Omacron" format="1">
  <advance width="737"/>
  <unicode hex="014C"/>
  <outline>
    <contour>
      <point x="541" y="760" type="line" smooth="yes"/>
      <point x="566" y="760"/>
      <point x="577" y="771"/>
      <point x="577" y="796" type="curve" smooth="yes"/>
      <point x="577" y="889" type="line" smooth="yes"/>
      <point x="577" y="914"/>
      <point x="566" y="925"/>
      <point x="541" y="925" type="curve" smooth="yes"/>
      <point x="194" y="925" type="line" smooth="yes"/>
      <point x="169" y="925"/>
      <point x="158" y="914"/>
      <point x="158" y="889" type="curve" smooth="yes"/>
      <point x="158" y="796" type="line" smooth="yes"/>
      <point x="158" y="771"/>
      <point x="169" y="760"/>
      <point x="194" y="760" type="curve" smooth="yes"/>
    </contour>
    <contour>
      <point x="679" y="189" type="curve" smooth="yes"/>
      <point x="679" y="530" type="line" smooth="yes"/>
      <point x="679" y="652"/>
      <point x="619" y="735"/>
      <point x="369" y="735" type="curve" smooth="yes"/>
      <point x="119" y="735"/>
      <point x="58" y="652"/>
      <point x="58" y="530" type="curve" smooth="yes"/>
      <point x="58" y="189" type="line" smooth="yes"/>
      <point x="58" y="67"/>
      <point x="119" y="-15"/>
      <point x="369" y="-15" type="curve" smooth="yes"/>
      <point x="619" y="-15"/>
      <point x="679" y="67"/>
    </contour>
    <contour>
      <point x="285" y="225" type="curve" smooth="yes"/>
      <point x="285" y="494" type="line" smooth="yes"/>
      <point x="285" y="520"/>
      <point x="297" y="540"/>
      <point x="369" y="540" type="curve" smooth="yes"/>
      <point x="442" y="540"/>
      <point x="453" y="520"/>
      <point x="453" y="494" type="curve" smooth="yes"/>
      <point x="453" y="225" type="line" smooth="yes"/>
      <point x="453" y="198"/>
      <point x="442" y="178"/>
      <point x="369" y="178" type="curve" smooth="yes"/>
      <point x="297" y="178"/>
      <point x="285" y="198"/>
    </contour>
  </outline>
</glyph>
<glyph name="Obreve" format="1">
  <advance width="737"/>
  <unicode hex="014E"/>
  <outline>
    <contour>
      <point x="585" y="897" type="curve"/>
      <point x="585" y="941" type="line" smooth="yes"/>
      <point x="585" y="966"/>
      <point x="574" y="977"/>
      <point x="549" y="977" type="curve"/>
      <point x="458" y="977" type="line" smooth="yes"/>
      <point x="435" y="977"/>
      <point x="428" y="970"/>
      <point x="428" y="946" type="curve" smooth="yes"/>
      <point x="428" y="925" type="line" smooth="yes"/>
      <point x="428" y="906"/>
      <point x="419" y="892"/>
      <point x="369" y="892" type="curve" smooth="yes"/>
      <point x="320" y="892"/>
      <point x="312" y="906"/>
      <point x="312" y="925" type="curve" smooth="yes"/>
      <point x="312" y="946" type="line" smooth="yes"/>
      <point x="312" y="970"/>
      <point x="304" y="977"/>
      <point x="283" y="977" type="curve" smooth="yes"/>
      <point x="187" y="977" type="line" smooth="yes"/>
      <point x="162" y="977"/>
      <point x="151" y="966"/>
      <point x="151" y="941" type="curve" smooth="yes"/>
      <point x="151" y="897" type="line" smooth="yes"/>
      <point x="151" y="812"/>
      <point x="194" y="754"/>
      <point x="368" y="754" type="curve" smooth="yes"/>
      <point x="542" y="754"/>
      <point x="585" y="812"/>
    </contour>
    <contour>
      <point x="679" y="189" type="curve" smooth="yes"/>
      <point x="679" y="530" type="line" smooth="yes"/>
      <point x="679" y="652"/>
      <point x="619" y="735"/>
      <point x="369" y="735" type="curve" smooth="yes"/>
      <point x="119" y="735"/>
      <point x="58" y="652"/>
      <point x="58" y="530" type="curve" smooth="yes"/>
      <point x="58" y="189" type="line" smooth="yes"/>
      <point x="58" y="67"/>
      <point x="119" y="-15"/>
      <point x="369" y="-15" type="curve" smooth="yes"/>
      <point x="619" y="-15"/>
      <point x="679" y="67"/>
    </contour>
    <contour>
      <point x="285" y="225" type="curve" smooth="yes"/>
      <point x="285" y="494" type="line" smooth="yes"/>
      <point x="285" y="520"/>
      <point x="297" y="540"/>
      <point x="369" y="540" type="curve" smooth="yes"/>
      <point x="442" y="540"/>
      <point x="453" y="520"/>
      <point x="453" y="494" type="curve" smooth="yes"/>
      <point x="453" y="225" type="line" smooth="yes"/>
      <point x="453" y="198"/>
      <point x="442" y="178"/>
      <point x="369" y="178" type="curve" smooth="yes"/>
      <point x="297" y="178"/>
      <point x="285" y="198"/>
    </contour>
  </outline>
</glyph>
<glyph name="ohungarumlaut" format="1">
  <advance width="737"/>
  <unicode hex="0151"/>
  <outline>
    <contour>
      <point x="148" y="794" type="line" smooth="yes"/>
      <point x="142" y="772"/>
      <point x="158" y="760"/>
      <point x="181" y="760" type="curve" smooth="yes"/>
      <point x="287" y="760" type="line" smooth="yes"/>
      <point x="312" y="760"/>
      <point x="317" y="772"/>
      <point x="323" y="796" type="curve" smooth="yes"/>
      <point x="376" y="1003" type="line" smooth="yes"/>
      <point x="382" y="1025"/>
      <point x="366" y="1037"/>
      <point x="343" y="1037" type="curve" smooth="yes"/>
      <point x="237" y="1037" type="line" smooth="yes"/>
      <point x="212" y="1037"/>
      <point x="207" y="1025"/>
      <point x="201" y="1001" type="curve" smooth="yes"/>
    </contour>
    <contour>
      <point x="408" y="794" type="line" smooth="yes"/>
      <point x="402" y="772"/>
      <point x="418" y="760"/>
      <point x="441" y="760" type="curve" smooth="yes"/>
      <point x="547" y="760" type="line" smooth="yes"/>
      <point x="572" y="760"/>
      <point x="577" y="772"/>
      <point x="583" y="796" type="curve" smooth="yes"/>
      <point x="636" y="1003" type="line" smooth="yes"/>
      <point x="642" y="1025"/>
      <point x="626" y="1037"/>
      <point x="603" y="1037" type="curve" smooth="yes"/>
      <point x="497" y="1037" type="line" smooth="yes"/>
      <point x="472" y="1037"/>
      <point x="467" y="1025"/>
      <point x="461" y="1001" type="curve" smooth="yes"/>
    </contour>
    <contour>
      <point x="679" y="189" type="curve" smooth="yes"/>
      <point x="679" y="530" type="line" smooth="yes"/>
      <point x="679" y="652"/>
      <point x="619" y="735"/>
      <point x="369" y="735" type="curve" smooth="yes"/>
      <point x="119" y="735"/>
      <point x="58" y="652"/>
      <point x="58" y="530" type="curve" smooth="yes"/>
      <point x="58" y="189" type="line" smooth="yes"/>
      <point x="58" y="67"/>
      <point x="119" y="-15"/>
      <point x="369" y="-15" type="curve" smooth="yes"/>
      <point x="619" y="-15"/>
      <point x="679" y="67"/>
    </contour>
    <contour>
      <point x="285" y="225" type="curve" smooth="yes"/>
      <point x="285" y="494" type="line" smooth="yes"/>
      <point x="285" y="520"/>
      <point x="297" y="540"/>
      <point x="369" y="540" type="curve" smooth="yes"/>
      <point x="442" y="540"/>
      <point x="453" y="520"/>
      <point x="453" y="494" type="curve" smooth="yes"/>
      <point x="453" y="225" type="line" smooth="yes"/>
      <point x="453" y="198"/>
      <point x="442" y="178"/>
      <point x="369" y="178" type="curve" smooth="yes"/>
      <point x="297" y="178"/>
      <point x="285" y="198"/>
    </contour>
  </outline>
</glyph>
<glyph name="oe" format="1">
  <advance width="1015"/>
  <unicode hex="0153"/>
  <outline>
    <contour>
      <point x="58" y="516" type="curve" smooth="yes"/>
      <point x="58" y="204" type="line" smooth="yes"/>
      <point x="58" y="83"/>
      <point x="115" y="0"/>
      <point x="304" y="0" type="curve" smooth="yes"/>
      <point x="930" y="0" type="line" smooth="yes"/>
      <point x="955" y="0"/>
      <point x="966" y="11"/>
      <point x="966" y="36" type="curve" smooth="yes"/>
      <point x="966" y="153" type="line" smooth="yes"/>
      <point x="966" y="178"/>
      <point x="955" y="189"/>
      <point x="930" y="189" type="curve" smooth="yes"/>
      <point x="667" y="189" type="line"/>
      <point x="667" y="275" type="line"/>
      <point x="849" y="275" type="line" smooth="yes"/>
      <point x="874" y="275"/>
      <point x="885" y="286"/>
      <point x="885" y="311" type="curve" smooth="yes"/>
      <point x="885" y="418" type="line" smooth="yes"/>
      <point x="885" y="444"/>
      <point x="874" y="454"/>
      <point x="849" y="454" type="curve" smooth="yes"/>
      <point x="667" y="454" type="line"/>
      <point x="667" y="531" type="line"/>
      <point x="930" y="531" type="line" smooth="yes"/>
      <point x="955" y="531"/>
      <point x="966" y="542"/>
      <point x="966" y="567" type="curve" smooth="yes"/>
      <point x="966" y="684" type="line" smooth="yes"/>
      <point x="966" y="709"/>
      <point x="955" y="720"/>
      <point x="930" y="720" type="curve" smooth="yes"/>
      <point x="304" y="720" type="line" smooth="yes"/>
      <point x="115" y="720"/>
      <point x="58" y="637"/>
    </contour>
    <contour>
      <point x="440" y="189" type="line"/>
      <point x="331" y="189" type="line" smooth="yes"/>
      <point x="291" y="189"/>
      <point x="284" y="211"/>
      <point x="284" y="238" type="curve" smooth="yes"/>
      <point x="284" y="481" type="line" smooth="yes"/>
      <point x="284" y="507"/>
      <point x="291" y="529"/>
      <point x="331" y="529" type="curve" smooth="yes"/>
      <point x="440" y="529" type="line"/>
    </contour>
  </outline>
</glyph>
<glyph name="Rcaron" format="1">
  <advance width="743"/>
  <unicode hex="0158"/>
  <outline>
    <contour>
      <point x="402" y="932" type="line"/>
      <point x="379" y="926"/>
      <point x="363" y="926"/>
      <point x="340" y="932" type="curve"/>
      <point x="203" y="972" type="line" smooth="yes"/>
      <point x="168" y="983"/>
      <point x="161" y="977"/>
      <point x="161" y="941" type="curve" smooth="yes"/>
      <point x="161" y="860" type="line" smooth="yes"/>
      <point x="161" y="824"/>
      <point x="169" y="820"/>
      <point x="203" y="807" type="curve" smooth="yes"/>
      <point x="340" y="757" type="line" smooth="yes"/>
      <point x="350" y="753"/>
      <point x="360" y="752"/>
      <point x="372" y="752" type="curve" smooth="yes"/>
      <point x="384" y="753"/>
      <point x="399" y="756"/>
      <point x="411" y="761" type="curve" smooth="yes"/>
      <point x="539" y="807" type="line" smooth="yes"/>
      <point x="571" y="820"/>
      <point x="580" y="824"/>
      <point x="580" y="860" type="curve" smooth="yes"/>
      <point x="580" y="941" type="line" smooth="yes"/>
      <point x="580" y="977"/>
      <point x="573" y="983"/>
      <point x="539" y="972" type="curve" smooth="yes"/>
    </contour>
    <contour>
      <point x="259" y="0" type="line" smooth="yes"/>
      <point x="284" y="0"/>
      <point x="295" y="11"/>
      <point x="295" y="36" type="curve" smooth="yes"/>
      <point x="295" y="232" type="line"/>
      <point x="435" y="232" type="line" smooth="yes"/>
      <point x="463" y="232"/>
      <point x="473" y="219"/>
      <point x="473" y="189" type="curve" smooth="yes"/>
      <point x="473" y="36" type="line" smooth="yes"/>
      <point x="473" y="11"/>
      <point x="484" y="0"/>
      <point x="509" y="0" type="curve" smooth="yes"/>
      <point x="664" y="0" type="line" smooth="yes"/>
      <point x="689" y="0"/>
      <point x="700" y="11"/>
      <point x="700" y="36" type="curve" smooth="yes"/>
      <point x="700" y="248" type="line" smooth="yes"/>
      <point x="700" y="332"/>
      <point x="652" y="385"/>
      <point x="579" y="393" type="curve"/>
      <point x="621" y="411"/>
      <point x="635" y="451"/>
      <point x="635" y="507" type="curve" smooth="yes"/>
      <point x="635" y="553" type="line" smooth="yes"/>
      <point x="635" y="652"/>
      <point x="588" y="720"/>
      <point x="438" y="720" type="curve" smooth="yes"/>
      <point x="105" y="720" type="line" smooth="yes"/>
      <point x="80" y="720"/>
      <point x="69" y="709"/>
      <point x="69" y="684" type="curve" smooth="yes"/>
      <point x="69" y="36" type="line" smooth="yes"/>
      <point x="69" y="11"/>
      <point x="80" y="0"/>
      <point x="105" y="0" type="curve" smooth="yes"/>
    </contour>
    <contour>
      <point x="295" y="540" type="line"/>
      <point x="370" y="540" type="line" smooth="yes"/>
      <point x="405" y="540"/>
      <point x="414" y="520"/>
      <point x="414" y="493" type="curve" smooth="yes"/>
      <point x="414" y="459" type="line" smooth="yes"/>
      <point x="414" y="432"/>
      <point x="405" y="412"/>
      <point x="370" y="412" type="curve" smooth="yes"/>
      <point x="295" y="412" type="line"/>
    </contour>
  </outline>
</glyph>
<glyph name="scircumflex" format="1">
  <advance width="650"/>
  <unicode hex="015D"/>
  <outline>
    <contour>
      <point x="293" y="797" type="line"/>
      <point x="316" y="803"/>
      <point x="332" y="803"/>
      <point x="355" y="797" type="curve"/>
      <point x="492" y="757" type="line" smooth="yes"/>
      <point x="527" y="746"/>
      <point x="534" y="752"/>
      <point x="534" y="788" type="curve" smooth="yes"/>
      <point x="534" y="869" type="line" smooth="yes"/>
      <point x="534" y="905"/>
      <point x="526" y="909"/>
      <point x="492" y="922" type="curve" smooth="yes"/>
      <point x="355" y="972" type="line" smooth="yes"/>
      <point x="345" y="976"/>
      <point x="335" y="977"/>
      <point x="323" y="977" type="curve" smooth="yes"/>
      <point x="311" y="976"/>
      <point x="296" y="973"/>
      <point x="284" y="968" type="curve" smooth="yes"/>
      <point x="156" y="922" type="line" smooth="yes"/>
      <point x="124" y="909"/>
      <point x="115" y="905"/>
      <point x="115" y="869" type="curve" smooth="yes"/>
      <point x="115" y="788" type="line" smooth="yes"/>
      <point x="115" y="752"/>
      <point x="122" y="746"/>
      <point x="156" y="757" type="curve" smooth="yes"/>
    </contour>
    <contour>
      <point x="403" y="0" type="line" smooth="yes"/>
      <point x="532" y="0"/>
      <point x="610" y="62"/>
      <point x="610" y="176" type="curve" smooth="yes"/>
      <point x="610" y="281" type="line" smooth="yes"/>
      <point x="610" y="393"/>
      <point x="548" y="433"/>
      <point x="454" y="447" type="curve" smooth="yes"/>
      <point x="305" y="467" type="line" smooth="yes"/>
      <point x="288" y="469"/>
      <point x="278" y="481"/>
      <point x="278" y="499" type="curve" smooth="yes"/>
      <point x="278" y="517"/>
      <point x="288" y="529"/>
      <point x="305" y="529" type="curve" smooth="yes"/>
      <point x="538" y="529" type="line" smooth="yes"/>
      <point x="563" y="529"/>
      <point x="574" y="540"/>
      <point x="574" y="565" type="curve" smooth="yes"/>
      <point x="574" y="684" type="line" smooth="yes"/>
      <point x="574" y="709"/>
      <point x="563" y="720"/>
      <point x="538" y="720" type="curve" smooth="yes"/>
      <point x="258" y="720" type="line" smooth="yes"/>
      <point x="128" y="720"/>
      <point x="51" y="658"/>
      <point x="51" y="544" type="curve" smooth="yes"/>
      <point x="51" y="439" type="line" smooth="yes"/>
      <point x="51" y="327"/>
      <point x="112" y="287"/>
      <point x="206" y="273" type="curve" smooth="yes"/>
      <point x="356" y="252" type="line" smooth="yes"/>
      <point x="373" y="250"/>
      <point x="382" y="241"/>
      <point x="382" y="218" type="curve" smooth="yes"/>
      <point x="382" y="202"/>
      <point x="373" y="189"/>
      <point x="356" y="189" type="curve" smooth="yes"/>
      <point x="87" y="189" type="line" smooth="yes"/>
      <point x="62" y="189"/>
      <point x="51" y="178"/>
      <point x="51" y="153" type="curve" smooth="yes"/>
      <point x="51" y="36" type="line" smooth="yes"/>
      <point x="51" y="11"/>
      <point x="62" y="0"/>
      <point x="87" y="0" type="curve" smooth="yes"/>
    </contour>
  </outline>
</glyph>
<glyph name="Scaron" format="1">
  <advance width="650"/>
  <unicode hex="0160"/>
  <outline>
    <contour>
      <point x="366" y="932" type="line"/>
      <point x="343" y="926"/>
      <point x="327" y="926"/>
      <point x="304" y="932" type="curve"/>
      <point x="167" y="972" type="line" smooth="yes"/>
      <point x="132" y="983"/>
      <point x="125" y="977"/>
      <point x="125" y="941" type="curve" smooth="yes"/>
      <point x="125" y="860" type="line" smooth="yes"/>
      <point x="125" y="824"/>
      <point x="133" y="820"/>
      <point x="167" y="807" type="curve" smooth="yes"/>
      <point x="304" y="757" type="line" smooth="yes"/>
      <point x="314" y="753"/>
      <point x="324" y="752"/>
      <point x="336" y="752" type="curve" smooth="yes"/>
      <point x="348" y="753"/>
      <point x="363" y="756"/>
      <point x="375" y="761" type="curve" smooth="yes"/>
      <point x="503" y="807" type="line" smooth="yes"/>
      <point x="535" y="820"/>
      <point x="544" y="824"/>
      <point x="544" y="860" type="curve" smooth="yes"/>
      <point x="544" y="941" type="line" smooth="yes"/>
      <point x="544" y="977"/>
      <point x="537" y="983"/>
      <point x="503" y="972" type="curve" smooth="yes"/>
    </contour>
    <contour>
      <point x="403" y="0" type="line" smooth="yes"/>
      <point x="532" y="0"/>
      <point x="610" y="62"/>
      <point x="610" y="176" type="curve" smooth="yes"/>
      <point x="610" y="281" type="line" smooth="yes"/>
      <point x="610" y="393"/>
      <point x="548" y="433"/>
      <point x="454" y="447" type="curve" smooth="yes"/>
      <point x="305" y="467" type="line" smooth="yes"/>
      <point x="288" y="469"/>
      <point x="278" y="481"/>
      <point x="278" y="499" type="curve" smooth="yes"/>
      <point x="278" y="517"/>
      <point x="288" y="529"/>
      <point x="305" y="529" type="curve" smooth="yes"/>
      <point x="538" y="529" type="line" smooth="yes"/>
      <point x="563" y="529"/>
      <point x="574" y="540"/>
      <point x="574" y="565" type="curve" smooth="yes"/>
      <point x="574" y="684" type="line" smooth="yes"/>
      <point x="574" y="709"/>
      <point x="563" y="720"/>
      <point x="538" y="720" type="curve" smooth="yes"/>
      <point x="258" y="720" type="line" smooth="yes"/>
      <point x="128" y="720"/>
      <point x="51" y="658"/>
      <point x="51" y="544" type="curve" smooth="yes"/>
      <point x="51" y="439" type="line" smooth="yes"/>
      <point x="51" y="327"/>
      <point x="112" y="287"/>
      <point x="206" y="273" type="curve" smooth="yes"/>
      <point x="356" y="252" type="line" smooth="yes"/>
      <point x="373" y="250"/>
      <point x="382" y="241"/>
      <point x="382" y="218" type="curve" smooth="yes"/>
      <point x="382" y="202"/>
      <point x="373" y="189"/>
      <point x="356" y="189" type="curve" smooth="yes"/>
      <point x="87" y="189" type="line" smooth="yes"/>
      <point x="62" y="189"/>
      <point x="51" y="178"/>
      <point x="51" y="153" type="curve" smooth="yes"/>
      <point x="51" y="36" type="line" smooth="yes"/>
      <point x="51" y="11"/>
      <point x="62" y="0"/>
      <point x="87" y="0" type="curve" smooth="yes"/>
    </contour>
  </outline>
</glyph>
<glyph name="tcommaaccent" format="1">
  <advance width="656"/>
  <unicode hex="0163"/>
  <unicode hex="021B"/>
  <outline>
    <contour>
      <point x="409" y="0" type="line" smooth="yes"/>
      <point x="434" y="0"/>
      <point x="445" y="11"/>
      <point x="445" y="36" type="curve" smooth="yes"/>
      <point x="445" y="527" type="line"/>
      <point x="592" y="527" type="line" smooth="yes"/>
      <point x="617" y="527"/>
      <point x="628" y="538"/>
      <point x="628" y="563" type="curve" smooth="yes"/>
      <point x="628" y="684" type="line" smooth="yes"/>
      <point x="628" y="709"/>
      <point x="617" y="720"/>
      <point x="592" y="720" type="curve" smooth="yes"/>
      <point x="64" y="720" type="line" smooth="yes"/>
      <point x="39" y="720"/>
      <point x="28" y="709"/>
      <point x="28" y="684" type="curve" smooth="yes"/>
      <point x="28" y="563" type="line" smooth="yes"/>
      <point x="28" y="538"/>
      <point x="39" y="527"/>
      <point x="64" y="527" type="curve" smooth="yes"/>
      <point x="211" y="527" type="line"/>
      <point x="211" y="36" type="line" smooth="yes"/>
      <point x="211" y="11"/>
      <point x="222" y="0"/>
      <point x="247" y="0" type="curve" smooth="yes"/>
    </contour>
    <contour>
      <point x="319" y="-362" type="line" smooth="yes"/>
      <point x="395" y="-362"/>
      <point x="444" y="-320"/>
      <point x="444" y="-234" type="curve" smooth="yes"/>
      <point x="444" y="-82" type="line" smooth="yes"/>
      <point x="444" y="-52"/>
      <point x="435" y="-43"/>
      <point x="407" y="-43" type="curve" smooth="yes"/>
      <point x="249" y="-43" type="line" smooth="yes"/>
      <point x="221" y="-43"/>
      <point x="212" y="-52"/>
      <point x="212" y="-82" type="curve" smooth="yes"/>
      <point x="212" y="-191" type="line" smooth="yes"/>
      <point x="212" y="-221"/>
      <point x="221" y="-230"/>
      <point x="249" y="-230" type="curve"/>
      <point x="335" y="-230" type="line"/>
      <point x="335" y="-243" type="line" smooth="yes"/>
      <point x="335" y="-258"/>
      <point x="327" y="-267"/>
      <point x="312" y="-267" type="curve" smooth="yes"/>
      <point x="253" y="-267" type="line" smooth="yes"/>
      <point x="232" y="-267"/>
      <point x="223" y="-276"/>
      <point x="223" y="-297" type="curve" smooth="yes"/>
      <point x="223" y="-331" type="line" smooth="yes"/>
      <point x="223" y="-353"/>
      <point x="232" y="-362"/>
      <point x="253" y="-362" type="curve" smooth="yes"/>
    </contour>
  </outline>
</glyph>
<glyph name="Tcaron" format="1">
  <advance width="656"/>
  <unicode hex="0164"/>
  <outline>
    <contour>
      <point x="359" y="932" type="line"/>
      <point x="336" y="926"/>
      <point x="320" y="926"/>
      <point x="297" y="932" type="curve"/>
      <point x="160" y="972" type="line" smooth="yes"/>
      <point x="125" y="983"/>
      <point x="118" y="977"/>
      <point x="118" y="941" type="curve" smooth="yes"/>
      <point x="118" y="860" type="line" smooth="yes"/>
      <point x="118" y="824"/>
      <point x="126" y="820"/>
      <point x="160" y="807" type="curve" smooth="yes"/>
      <point x="297" y="757" type="line" smooth="yes"/>
      <point x="307" y="753"/>
      <point x="317" y="752"/>
      <point x="329" y="752" type="curve" smooth="yes"/>
      <point x="341" y="753"/>
      <point x="356" y="756"/>
      <point x="368" y="761" type="curve" smooth="yes"/>
      <point x="496" y="807" type="line" smooth="yes"/>
      <point x="528" y="820"/>
      <point x="537" y="824"/>
      <point x="537" y="860" type="curve" smooth="yes"/>
      <point x="537" y="941" type="line" smooth="yes"/>
      <point x="537" y="977"/>
      <point x="530" y="983"/>
      <point x="496" y="972" type="curve" smooth="yes"/>
    </contour>
    <contour>
      <point x="409" y="0" type="line" smooth="yes"/>
      <point x="434" y="0"/>
      <point x="445" y="11"/>
      <point x="445" y="36" type="curve" smooth="yes"/>
      <point x="445" y="527" type="line"/>
      <point x="592" y="527" type="line" smooth="yes"/>
      <point x="617" y="527"/>
      <point x="628" y="538"/>
      <point x="628" y="563" type="curve" smooth="yes"/>
      <point x="628" y="684" type="line" smooth="yes"/>
      <point x="628" y="709"/>
      <point x="617" y="720"/>
      <point x="592" y="720" type="curve" smooth="yes"/>
      <point x="64" y="720" type="line" smooth="yes"/>
      <point x="39" y="720"/>
      <point x="28" y="709"/>
      <point x="28" y="684" type="curve" smooth="yes"/>
      <point x="28" y="563" type="line" smooth="yes"/>
      <point x="28" y="538"/>
      <point x="39" y="527"/>
      <point x="64" y="527" type="curve" smooth="yes"/>
      <point x="211" y="527" type="line"/>
      <point x="211" y="36" type="line" smooth="yes"/>
      <point x="211" y="11"/>
      <point x="222" y="0"/>
      <point x="247" y="0" type="curve" smooth="yes"/>
    </contour>
  </outline>
</glyph>
<glyph name="Tbar" format="1">
  <advance width="656"/>
  <unicode hex="0166"/>
  <outline>
    <contour>
      <point x="445" y="36" type="curve" smooth="yes"/>
      <point x="445" y="222" type="line"/>
      <point x="521" y="222" type="line" smooth="yes"/>
      <point x="546" y="222"/>
      <point x="557" y="233"/>
      <point x="557" y="258" type="curve" smooth="yes"/>
      <point x="557" y="365" type="line" smooth="yes"/>
      <point x="557" y="390"/>
      <point x="546" y="401"/>
      <point x="521" y="401" type="curve" smooth="yes"/>
      <point x="445" y="401" type="line"/>
      <point x="445" y="527" type="line"/>
      <point x="592" y="527" type="line" smooth="yes"/>
      <point x="617" y="527"/>
      <point x="628" y="538"/>
      <point x="628" y="563" type="curve" smooth="yes"/>
      <point x="628" y="684" type="line" smooth="yes"/>
      <point x="628" y="709"/>
      <point x="617" y="720"/>
      <point x="592" y="720" type="curve" smooth="yes"/>
      <point x="64" y="720" type="line" smooth="yes"/>
      <point x="39" y="720"/>
      <point x="28" y="709"/>
      <point x="28" y="684" type="curve" smooth="yes"/>
      <point x="28" y="563" type="line" smooth="yes"/>
      <point x="28" y="538"/>
      <point x="39" y="527"/>
      <point x="64" y="527" type="curve" smooth="yes"/>
      <point x="211" y="527" type="line"/>
      <point x="211" y="401" type="line"/>
      <point x="134" y="401" type="line" smooth="yes"/>
      <point x="109" y="401"/>
      <point x="98" y="390"/>
      <point x="98" y="365" type="curve" smooth="yes"/>
      <point x="98" y="258" type="line" smooth="yes"/>
      <point x="98" y="233"/>
      <point x="109" y="222"/>
      <point x="134" y="222" type="curve" smooth="yes"/>
      <point x="211" y="222" type="line"/>
      <point x="211" y="36" type="line" smooth="yes"/>
      <point x="211" y="11"/>
      <point x="222" y="0"/>
      <point x="247" y="0" type="curve" smooth="yes"/>
      <point x="409" y="0" type="line" smooth="yes"/>
      <point x="434" y="0"/>
      <point x="445" y="11"/>
    </contour>
  </outline>
</glyph>
<glyph name="Utilde" format="1">
  <advance width="746"/>
  <unicode hex="0168"/>
  <outline>
    <contour>
      <point x="372" y="764" type="line"/>
      <point x="388" y="762" type="line" smooth="yes"/>
      <point x="468" y="750"/>
      <point x="482" y="748"/>
      <point x="545" y="767" type="curve"/>
      <point x="568" y="776"/>
      <point x="581" y="783"/>
      <point x="581" y="808" type="curve" smooth="yes"/>
      <point x="581" y="909" type="line" smooth="yes"/>
      <point x="581" y="934"/>
      <point x="569" y="942"/>
      <point x="545" y="935" type="curve" smooth="yes"/>
      <point x="486" y="917"/>
      <point x="482" y="914"/>
      <point x="394" y="927" type="curve" smooth="yes"/>
      <point x="372" y="930" type="line"/>
      <point x="355" y="932" type="line" smooth="yes"/>
      <point x="275" y="944"/>
      <point x="262" y="946"/>
      <point x="199" y="927" type="curve"/>
      <point x="176" y="918"/>
      <point x="163" y="911"/>
      <point x="163" y="886" type="curve" smooth="yes"/>
      <point x="163" y="785" type="line" smooth="yes"/>
      <point x="163" y="760"/>
      <point x="175" y="752"/>
      <point x="199" y="759" type="curve" smooth="yes"/>
      <point x="252" y="775"/>
      <point x="268" y="779"/>
      <point x="344" y="768" type="curve" smooth="yes"/>
    </contour>
    <contour>
      <point x="682" y="189" type="curve" smooth="yes"/>
      <point x="682" y="684" type="line" smooth="yes"/>
      <point x="682" y="709"/>
      <point x="671" y="720"/>
      <point x="646" y="720" type="curve" smooth="yes"/>
      <point x="494" y="720" type="line" smooth="yes"/>
      <point x="468" y="720"/>
      <point x="458" y="709"/>
      <point x="458" y="684" type="curve" smooth="yes"/>
      <point x="458" y="228" type="line" smooth="yes"/>
      <point x="458" y="201"/>
      <point x="446" y="181"/>
      <point x="375" y="181" type="curve" smooth="yes"/>
      <point x="305" y="181"/>
      <point x="293" y="201"/>
      <point x="293" y="228" type="curve" smooth="yes"/>
      <point x="293" y="684" type="line" smooth="yes"/>
      <point x="293" y="709"/>
      <point x="282" y="720"/>
      <point x="257" y="720" type="curve" smooth="yes"/>
      <point x="100" y="720" type="line" smooth="yes"/>
      <point x="75" y="720"/>
      <point x="64" y="709"/>
      <point x="64" y="684" type="curve" smooth="yes"/>
      <point x="64" y="189" type="line" smooth="yes"/>
      <point x="64" y="67"/>
      <point x="125" y="-15"/>
      <point x="373" y="-15" type="curve" smooth="yes"/>
      <point x="621" y="-15"/>
      <point x="682" y="67"/>
    </contour>
  </outline>
</glyph>
<glyph name="umacron" format="1">
  <advance width="746"/>
  <unicode hex="016B"/>
  <outline>
    <contour>
      <point x="546" y="760" type="line" smooth="yes"/>
      <point x="571" y="760"/>
      <point x="582" y="771"/>
      <point x="582" y="796" type="curve" smooth="yes"/>
      <point x="582" y="889" type="line" smooth="yes"/>
      <point x="582" y="914"/>
      <point x="571" y="925"/>
      <point x="546" y="925" type="curve" smooth="yes"/>
      <point x="199" y="925" type="line" smooth="yes"/>
      <point x="174" y="925"/>
      <point x="163" y="914"/>
      <point x="163" y="889" type="curve" smooth="yes"/>
      <point x="163" y="796" type="line" smooth="yes"/>
      <point x="163" y="771"/>
      <point x="174" y="760"/>
      <point x="199" y="760" type="curve" smooth="yes"/>
    </contour>
    <contour>
      <point x="682" y="189" type="curve" smooth="yes"/>
      <point x="682" y="684" type="line" smooth="yes"/>
      <point x="682" y="709"/>
      <point x="671" y="720"/>
      <point x="646" y="720" type="curve" smooth="yes"/>
      <point x="494" y="720" type="line" smooth="yes"/>
      <point x="468" y="720"/>
      <point x="458" y="709"/>
      <point x="458" y="684" type="curve" smooth="yes"/>
      <point x="458" y="228" type="line" smooth="yes"/>
      <point x="458" y="201"/>
      <point x="446" y="181"/>
      <point x="375" y="181" type="curve" smooth="yes"/>
      <point x="305" y="181"/>
      <point x="293" y="201"/>
      <point x="293" y="228" type="curve" smooth="yes"/>
      <point x="293" y="684" type="line" smooth="yes"/>
      <point x="293" y="709"/>
      <point x="282" y="720"/>
      <point x="257" y="720" type="curve" smooth="yes"/>
      <point x="100" y="720" type="line" smooth="yes"/>
      <point x="75" y="720"/>
      <point x="64" y="709"/>
      <point x="64" y="684" type="curve" smooth="yes"/>
      <point x="64" y="189" type="line" smooth="yes"/>
      <point x="64" y="67"/>
      <point x="125" y="-15"/>
      <point x="373" y="-15" type="curve" smooth="yes"/>
      <point x="621" y="-15"/>
      <point x="682" y="67"/>
    </contour>
  </outline>
</glyph>
<glyph name="ubreve" format="1">
  <advance width="746"/>
  <unicode hex="016D"/>
  <outline>
    <contour>
      <point x="590" y="897" type="curve"/>
      <point x="590" y="941" type="line" smooth="yes"/>
      <point x="590" y="966"/>
      <point x="579" y="977"/>
      <point x="554" y="977" type="curve"/>
      <point x="463" y="977" type="line" smooth="yes"/>
      <point x="440" y="977"/>
      <point x="433" y="970"/>
      <point x="433" y="946" type="curve" smooth="yes"/>
      <point x="433" y="925" type="line" smooth="yes"/>
      <point x="433" y="906"/>
      <point x="424" y="892"/>
      <point x="374" y="892" type="curve" smooth="yes"/>
      <point x="325" y="892"/>
      <point x="317" y="906"/>
      <point x="317" y="925" type="curve" smooth="yes"/>
      <point x="317" y="946" type="line" smooth="yes"/>
      <point x="317" y="970"/>
      <point x="309" y="977"/>
      <point x="288" y="977" type="curve" smooth="yes"/>
      <point x="192" y="977" type="line" smooth="yes"/>
      <point x="167" y="977"/>
      <point x="156" y="966"/>
      <point x="156" y="941" type="curve" smooth="yes"/>
      <point x="156" y="897" type="line" smooth="yes"/>
      <point x="156" y="812"/>
      <point x="199" y="754"/>
      <point x="373" y="754" type="curve" smooth="yes"/>
      <point x="547" y="754"/>
      <point x="590" y="812"/>
    </contour>
    <contour>
      <point x="682" y="189" type="curve" smooth="yes"/>
      <point x="682" y="684" type="line" smooth="yes"/>
      <point x="682" y="709"/>
      <point x="671" y="720"/>
      <point x="646" y="720" type="curve" smooth="yes"/>
      <point x="494" y="720" type="line" smooth="yes"/>
      <point x="468" y="720"/>
      <point x="458" y="709"/>
      <point x="458" y="684" type="curve" smooth="yes"/>
      <point x="458" y="228" type="line" smooth="yes"/>
      <point x="458" y="201"/>
      <point x="446" y="181"/>
      <point x="375" y="181" type="curve" smooth="yes"/>
      <point x="305" y="181"/>
      <point x="293" y="201"/>
      <point x="293" y="228" type="curve" smooth="yes"/>
      <point x="293" y="684" type="line" smooth="yes"/>
      <point x="293" y="709"/>
      <point x="282" y="720"/>
      <point x="257" y="720" type="curve" smooth="yes"/>
      <point x="100" y="720" type="line" smooth="yes"/>
      <point x="75" y="720"/>
      <point x="64" y="709"/>
      <point x="64" y="684" type="curve" smooth="yes"/>
      <point x="64" y="189" type="line" smooth="yes"/>
      <point x="64" y="67"/>
      <point x="125" y="-15"/>
      <point x="373" y="-15" type="curve" smooth="yes"/>
      <point x="621" y="-15"/>
      <point x="682" y="67"/>
    </contour>
  </outline>
</glyph>
<glyph name="uring" format="1">
  <advance width="746"/>
  <unicode hex="016F"/>
  <outline>
    <contour>
      <point x="590" y="995" type="line" smooth="yes"/>
      <point x="590" y="1080"/>
      <point x="547" y="1138"/>
      <point x="373" y="1138" type="curve" smooth="yes"/>
      <point x="199" y="1138"/>
      <point x="156" y="1080"/>
      <point x="156" y="995" type="curve" smooth="yes"/>
      <point x="156" y="897" type="line" smooth="yes"/>
      <point x="156" y="812"/>
      <point x="199" y="754"/>
      <point x="373" y="754" type="curve" smooth="yes"/>
      <point x="547" y="754"/>
      <point x="590" y="812"/>
      <point x="590" y="897" type="curve" smooth="yes"/>
    </contour>
    <contour>
      <point x="433" y="930" type="line" smooth="yes"/>
      <point x="433" y="901"/>
      <point x="424" y="887"/>
      <point x="374" y="887" type="curve" smooth="yes"/>
      <point x="325" y="887"/>
      <point x="317" y="901"/>
      <point x="317" y="930" type="curve" smooth="yes"/>
      <point x="317" y="965" type="line" smooth="yes"/>
      <point x="317" y="991"/>
      <point x="325" y="1005"/>
      <point x="374" y="1005" type="curve" smooth="yes"/>
      <point x="424" y="1005"/>
      <point x="433" y="991"/>
      <point x="433" y="965" type="curve" smooth="yes"/>
    </contour>
    <contour>
      <point x="682" y="189" type="curve" smooth="yes"/>
      <point x="682" y="684" type="line" smooth="yes"/>
      <point x="682" y="709"/>
      <point x="671" y="720"/>
      <point x="646" y="720" type="curve" smooth="yes"/>
      <point x="494" y="720" type="line" smooth="yes"/>
      <point x="468" y="720"/>
      <point x="458" y="709"/>
      <point x="458" y="684" type="curve" smooth="yes"/>
      <point x="458" y="228" type="line" smooth="yes"/>
      <point x="458" y="201"/>
      <point x="446" y="181"/>
      <point x="375" y="181" type="curve" smooth="yes"/>
      <point x="305" y="181"/>
      <point x="293" y="201"/>
      <point x="293" y="228" type="curve" smooth="yes"/>
      <point x="293" y="684" type="line" smooth="yes"/>
      <point x="293" y="709"/>
      <point x="282" y="720"/>
      <point x="257" y="720" type="curve" smooth="yes"/>
      <point x="100" y="720" type="line" smooth="yes"/>
      <point x="75" y="720"/>
      <point x="64" y="709"/>
      <point x="64" y="684" type="curve" smooth="yes"/>
      <point x="64" y="189" type="line" smooth="yes"/>
      <point x="64" y="67"/>
      <point x="125" y="-15"/>
      <point x="373" y="-15" type="curve" smooth="yes"/>
      <point x="621" y="-15"/>
      <point x="682" y="67"/>
    </contour>
  </outline>
</glyph>
<glyph name="uhungarumlaut" format="1">
  <advance width="746"/>
  <unicode hex="0171"/>
  <outline>
    <contour>
      <point x="157" y="794" type="line" smooth="yes"/>
      <point x="151" y="772"/>
      <point x="167" y="760"/>
      <point x="190" y="760" type="curve" smooth="yes"/>
      <point x="296" y="760" type="line" smooth="yes"/>
      <point x="321" y="760"/>
      <point x="326" y="772"/>
      <point x="332" y="796" type="curve" smooth="yes"/>
      <point x="385" y="1003" type="line" smooth="yes"/>
      <point x="391" y="1025"/>
      <point x="375" y="1037"/>
      <point x="352" y="1037" type="curve" smooth="yes"/>
      <point x="246" y="1037" type="line" smooth="yes"/>
      <point x="221" y="1037"/>
      <point x="216" y="1025"/>
      <point x="210" y="1001" type="curve" smooth="yes"/>
    </contour>
    <contour>
      <point x="417" y="794" type="line" smooth="yes"/>
      <point x="411" y="772"/>
      <point x="427" y="760"/>
      <point x="450" y="760" type="curve" smooth="yes"/>
      <point x="556" y="760" type="line" smooth="yes"/>
      <point x="581" y="760"/>
      <point x="586" y="772"/>
      <point x="592" y="796" type="curve" smooth="yes"/>
      <point x="645" y="1003" type="line" smooth="yes"/>
      <point x="651" y="1025"/>
      <point x="635" y="1037"/>
      <point x="612" y="1037" type="curve" smooth="yes"/>
      <point x="506" y="1037" type="line" smooth="yes"/>
      <point x="481" y="1037"/>
      <point x="476" y="1025"/>
      <point x="470" y="1001" type="curve" smooth="yes"/>
    </contour>
    <contour>
      <point x="682" y="189" type="curve" smooth="yes"/>
      <point x="682" y="684" type="line" smooth="yes"/>
      <point x="682" y="709"/>
      <point x="671" y="720"/>
      <point x="646" y="720" type="curve" smooth="yes"/>
      <point x="494" y="720" type="line" smooth="yes"/>
      <point x="468" y="720"/>
      <point x="458" y="709"/>
      <point x="458" y="684" type="curve" smooth="yes"/>
      <point x="458" y="228" type="line" smooth="yes"/>
      <point x="458" y="201"/>
      <point x="446" y="181"/>
      <point x="375" y="181" type="curve" smooth="yes"/>
      <point x="305" y="181"/>
      <point x="293" y="201"/>
      <point x="293" y="228" type="curve" smooth="yes"/>
      <point x="293" y="684" type="line" smooth="yes"/>
      <point x="293" y="709"/>
      <point x="282" y="720"/>
      <point x="257" y="720" type="curve" smooth="yes"/>
      <point x="100" y="720" type="line" smooth="yes"/>
      <point x="75" y="720"/>
      <point x="64" y="709"/>
      <point x="64" y="684" type="curve" smooth="yes"/>
      <point x="64" y="189" type="line" smooth="yes"/>
      <point x="64" y="67"/>
      <point x="125" y="-15"/>
      <point x="373" y="-15" type="curve" smooth="yes"/>
      <point x="621" y="-15"/>
      <point x="682" y="67"/>
    </contour>
  </outline>
</glyph>
<glyph name="Wcircumflex" format="1">
  <advance width="831"/>
  <unicode hex="0174"/>
  <outline>
    <contour>
      <point x="383" y="797" type="line"/>
      <point x="406" y="803"/>
      <point x="422" y="803"/>
      <point x="445" y="797" type="curve"/>
      <point x="582" y="757" type="line" smooth="yes"/>
      <point x="617" y="746"/>
      <point x="624" y="752"/>
      <point x="624" y="788" type="curve" smooth="yes"/>
      <point x="624" y="869" type="line" smooth="yes"/>
      <point x="624" y="905"/>
      <point x="616" y="909"/>
      <point x="582" y="922" type="curve" smooth="yes"/>
      <point x="445" y="972" type="line" smooth="yes"/>
      <point x="435" y="976"/>
      <point x="425" y="977"/>
      <point x="413" y="977" type="curve" smooth="yes"/>
      <point x="401" y="976"/>
      <point x="386" y="973"/>
      <point x="374" y="968" type="curve" smooth="yes"/>
      <point x="246" y="922" type="line" smooth="yes"/>
      <point x="214" y="909"/>
      <point x="205" y="905"/>
      <point x="205" y="869" type="curve" smooth="yes"/>
      <point x="205" y="788" type="line" smooth="yes"/>
      <point x="205" y="752"/>
      <point x="212" y="746"/>
      <point x="246" y="757" type="curve" smooth="yes"/>
    </contour>
    <contour>
      <point x="586" y="720" type="line" smooth="yes"/>
      <point x="560" y="720"/>
      <point x="550" y="709"/>
      <point x="550" y="684" type="curve" smooth="yes"/>
      <point x="550" y="316" type="line"/>
      <point x="492" y="442" type="line" smooth="yes"/>
      <point x="481" y="465"/>
      <point x="465" y="473"/>
      <point x="439" y="473" type="curve" smooth="yes"/>
      <point x="397" y="473" type="line" smooth="yes"/>
      <point x="371" y="473"/>
      <point x="355" y="465"/>
      <point x="344" y="442" type="curve" smooth="yes"/>
      <point x="286" y="316" type="line"/>
      <point x="286" y="684" type="line" smooth="yes"/>
      <point x="286" y="709"/>
      <point x="275" y="720"/>
      <point x="250" y="720" type="curve" smooth="yes"/>
      <point x="96" y="720" type="line" smooth="yes"/>
      <point x="71" y="720"/>
      <point x="60" y="709"/>
      <point x="60" y="684" type="curve" smooth="yes"/>
      <point x="60" y="298" type="line" smooth="yes"/>
      <point x="60" y="255"/>
      <point x="60" y="223"/>
      <point x="78" y="174" type="curve" smooth="yes"/>
      <point x="128" y="36" type="line" smooth="yes"/>
      <point x="135" y="15"/>
      <point x="150" y="0"/>
      <point x="172" y="0" type="curve" smooth="yes"/>
      <point x="304" y="0" type="line" smooth="yes"/>
      <point x="325" y="0"/>
      <point x="340" y="10"/>
      <point x="346" y="30" type="curve" smooth="yes"/>
      <point x="393" y="193" type="line" smooth="yes"/>
      <point x="397" y="206"/>
      <point x="403" y="210"/>
      <point x="411" y="210" type="curve" smooth="yes"/>
      <point x="420" y="210" type="line" smooth="yes"/>
      <point x="428" y="210"/>
      <point x="434" y="206"/>
      <point x="438" y="193" type="curve" smooth="yes"/>
      <point x="484" y="30" type="line" smooth="yes"/>
      <point x="490" y="9"/>
      <point x="508" y="0"/>
      <point x="530" y="0" type="curve" smooth="yes"/>
      <point x="663" y="0" type="line" smooth="yes"/>
      <point x="684" y="0"/>
      <point x="696" y="16"/>
      <point x="703" y="36" type="curve" smooth="yes"/>
      <point x="753" y="172" type="line" smooth="yes"/>
      <point x="771" y="221"/>
      <point x="771" y="253"/>
      <point x="771" y="296" type="curve" smooth="yes"/>
      <point x="771" y="684" type="line" smooth="yes"/>
      <point x="771" y="709"/>
      <point x="760" y="720"/>
      <point x="735" y="720" type="curve" smooth="yes"/>
    </contour>
  </outline>
</glyph>
<glyph name="ycircumflex" format="1">
  <advance width="705"/>
  <unicode hex="0177"/>
  <outline>
    <contour>
      <point x="320" y="797" type="line"/>
      <point x="343" y="803"/>
      <point x="359" y="803"/>
      <point x="382" y="797" type="curve"/>
      <point x="519" y="757" type="line" smooth="yes"/>
      <point x="554" y="746"/>
      <point x="561" y="752"/>
      <point x="561" y="788" type="curve" smooth="yes"/>
      <point x="561" y="869" type="line" smooth="yes"/>
      <point x="561" y="905"/>
      <point x="553" y="909"/>
      <point x="519" y="922" type="curve" smooth="yes"/>
      <point x="382" y="972" type="line" smooth="yes"/>
      <point x="372" y="976"/>
      <point x="362" y="977"/>
      <point x="350" y="977" type="curve" smooth="yes"/>
      <point x="338" y="976"/>
      <point x="323" y="973"/>
      <point x="311" y="968" type="curve" smooth="yes"/>
      <point x="183" y="922" type="line" smooth="yes"/>
      <point x="151" y="909"/>
      <point x="142" y="905"/>
      <point x="142" y="869" type="curve" smooth="yes"/>
      <point x="142" y="788" type="line" smooth="yes"/>
      <point x="142" y="752"/>
      <point x="149" y="746"/>
      <point x="183" y="757" type="curve" smooth="yes"/>
    </contour>
    <contour>
      <point x="470" y="36" type="curve" smooth="yes"/>
      <point x="470" y="163" type="line"/>
      <point x="622" y="369" type="line" smooth="yes"/>
      <point x="652" y="410"/>
      <point x="660" y="430"/>
      <point x="660" y="492" type="curve" smooth="yes"/>
      <point x="660" y="684" type="line" smooth="yes"/>
      <point x="660" y="709"/>
      <point x="649" y="720"/>
      <point x="624" y="720" type="curve" smooth="yes"/>
      <point x="475" y="720" type="line" smooth="yes"/>
      <point x="450" y="720"/>
      <point x="439" y="709"/>
      <point x="439" y="684" type="curve" smooth="yes"/>
      <point x="439" y="520" type="line" smooth="yes"/>
      <point x="439" y="506"/>
      <point x="439" y="492"/>
      <point x="430" y="478" type="curve" smooth="yes"/>
      <point x="384" y="406" type="line" smooth="yes"/>
      <point x="377" y="394"/>
      <point x="371" y="389"/>
      <point x="360" y="389" type="curve"/>
      <point x="350" y="389" type="line" smooth="yes"/>
      <point x="339" y="389"/>
      <point x="333" y="394"/>
      <point x="326" y="406" type="curve" smooth="yes"/>
      <point x="280" y="478" type="line" smooth="yes"/>
      <point x="271" y="492"/>
      <point x="271" y="506"/>
      <point x="271" y="520" type="curve" smooth="yes"/>
      <point x="271" y="684" type="line" smooth="yes"/>
      <point x="271" y="709"/>
      <point x="260" y="720"/>
      <point x="235" y="720" type="curve" smooth="yes"/>
      <point x="81" y="720" type="line" smooth="yes"/>
      <point x="56" y="720"/>
      <point x="45" y="709"/>
      <point x="45" y="684" type="curve" smooth="yes"/>
      <point x="45" y="492" type="line" smooth="yes"/>
      <point x="45" y="430"/>
      <point x="52" y="410"/>
      <point x="83" y="369" type="curve" smooth="yes"/>
      <point x="236" y="164" type="line"/>
      <point x="236" y="36" type="line" smooth="yes"/>
      <point x="236" y="11"/>
      <point x="246" y="0"/>
      <point x="272" y="0" type="curve" smooth="yes"/>
      <point x="434" y="0" type="line" smooth="yes"/>
      <point x="459" y="0"/>
      <point x="470" y="11"/>
    </contour>
  </outline>
</glyph>
<glyph name="Zacute" format="1">
  <advance width="660"/>
  <unicode hex="0179"/>
  <outline>
    <contour>
      <point x="513" y="796" type="line" smooth="yes"/>
      <point x="538" y="799"/>
      <point x="549" y="807"/>
      <point x="549" y="832" type="curve" smooth="yes"/>
      <point x="549" y="928" type="line" smooth="yes"/>
      <point x="549" y="951"/>
      <point x="538" y="964"/>
      <point x="515" y="961" type="curve"/>
      <point x="166" y="918" type="line" smooth="yes"/>
      <point x="141" y="915"/>
      <point x="130" y="907"/>
      <point x="130" y="882" type="curve" smooth="yes"/>
      <point x="130" y="786" type="line" smooth="yes"/>
      <point x="130" y="763"/>
      <point x="141" y="750"/>
      <point x="164" y="753" type="curve" smooth="yes"/>
    </contour>
    <contour>
      <point x="578" y="0" type="line" smooth="yes"/>
      <point x="603" y="0"/>
      <point x="614" y="11"/>
      <point x="614" y="36" type="curve" smooth="yes"/>
      <point x="614" y="155" type="line" smooth="yes"/>
      <point x="614" y="180"/>
      <point x="603" y="191"/>
      <point x="578" y="191" type="curve" smooth="yes"/>
      <point x="339" y="191" type="line"/>
      <point x="571" y="472" type="line" smooth="yes"/>
      <point x="589" y="491"/>
      <point x="596" y="508"/>
      <point x="596" y="535" type="curve" smooth="yes"/>
      <point x="596" y="684" type="line" smooth="yes"/>
      <point x="596" y="709"/>
      <point x="585" y="720"/>
      <point x="560" y="720" type="curve" smooth="yes"/>
      <point x="100" y="720" type="line" smooth="yes"/>
      <point x="75" y="720"/>
      <point x="64" y="709"/>
      <point x="64" y="684" type="curve"/>
      <point x="64" y="563" type="line"/>
      <point x="64" y="538"/>
      <point x="75" y="527"/>
      <point x="100" y="527" type="curve" smooth="yes"/>
      <point x="314" y="527" type="line"/>
      <point x="71" y="232" type="line" smooth="yes"/>
      <point x="53" y="213"/>
      <point x="46" y="196"/>
      <point x="46" y="170" type="curve"/>
      <point x="46" y="36" type="line"/>
      <point x="46" y="11"/>
      <point x="57" y="0"/>
      <point x="82" y="0" type="curve" smooth="yes"/>
    </contour>
  </outline>
</glyph>
<glyph name="Zdotaccent" format="1">
  <advance width="660"/>
  <unicode hex="017B"/>
  <outline>
    <contour>
      <point x="410" y="760" type="line" smooth="yes"/>
      <point x="435" y="760"/>
      <point x="446" y="771"/>
      <point x="446" y="796" type="curve" smooth="yes"/>
      <point x="446" y="923" type="line" smooth="yes"/>
      <point x="446" y="948"/>
      <point x="435" y="959"/>
      <point x="410" y="959" type="curve"/>
      <point x="252" y="959" type="line" smooth="yes"/>
      <point x="227" y="959"/>
      <point x="216" y="948"/>
      <point x="216" y="923" type="curve" smooth="yes"/>
      <point x="216" y="796" type="line" smooth="yes"/>
      <point x="216" y="771"/>
      <point x="227" y="760"/>
      <point x="252" y="760" type="curve" smooth="yes"/>
    </contour>
    <contour>
      <point x="578" y="0" type="line" smooth="yes"/>
      <point x="603" y="0"/>
      <point x="614" y="11"/>
      <point x="614" y="36" type="curve" smooth="yes"/>
      <point x="614" y="155" type="line" smooth="yes"/>
      <point x="614" y="180"/>
      <point x="603" y="191"/>
      <point x="578" y="191" type="curve" smooth="yes"/>
      <point x="339" y="191" type="line"/>
      <point x="571" y="472" type="line" smooth="yes"/>
      <point x="589" y="491"/>
      <point x="596" y="508"/>
      <point x="596" y="535" type="curve" smooth="yes"/>
      <point x="596" y="684" type="line" smooth="yes"/>
      <point x="596" y="709"/>
      <point x="585" y="720"/>
      <point x="560" y="720" type="curve" smooth="yes"/>
      <point x="100" y="720" type="line" smooth="yes"/>
      <point x="75" y="720"/>
      <point x="64" y="709"/>
      <point x="64" y="684" type="curve"/>
      <point x="64" y="563" type="line"/>
      <point x="64" y="538"/>
      <point x="75" y="527"/>
      <point x="100" y="527" type="curve" smooth="yes"/>
      <point x="314" y="527" type="line"/>
      <point x="71" y="232" type="line" smooth="yes"/>
      <point x="53" y="213"/>
      <point x="46" y="196"/>
      <point x="46" y="170" type="curve"/>
      <point x="46" y="36" type="line"/>
      <point x="46" y="11"/>
      <point x="57" y="0"/>
      <point x="82" y="0" type="curve" smooth="yes"/>
    </contour>
  </outline>
</glyph>
<glyph name="Zcaron" format="1">
  <advance width="660"/>
  <unicode hex="017D"/>
  <outline>
    <contour>
      <point x="361" y="932" type="line"/>
      <point x="338" y="926"/>
      <point x="322" y="926"/>
      <point x="299" y="932" type="curve"/>
      <point x="162" y="972" type="line" smooth="yes"/>
      <point x="127" y="983"/>
      <point x="120" y="977"/>
      <point x="120" y="941" type="curve" smooth="yes"/>
      <point x="120" y="860" type="line" smooth="yes"/>
      <point x="120" y="824"/>
      <point x="128" y="820"/>
      <point x="162" y="807" type="curve" smooth="yes"/>
      <point x="299" y="757" type="line" smooth="yes"/>
      <point x="309" y="753"/>
      <point x="319" y="752"/>
      <point x="331" y="752" type="curve" smooth="yes"/>
      <point x="343" y="753"/>
      <point x="358" y="756"/>
      <point x="370" y="761" type="curve" smooth="yes"/>
      <point x="498" y="807" type="line" smooth="yes"/>
      <point x="530" y="820"/>
      <point x="539" y="824"/>
      <point x="539" y="860" type="curve" smooth="yes"/>
      <point x="539" y="941" type="line" smooth="yes"/>
      <point x="539" y="977"/>
      <point x="532" y="983"/>
      <point x="498" y="972" type="curve" smooth="yes"/>
    </contour>
    <contour>
      <point x="578" y="0" type="line" smooth="yes"/>
      <point x="603" y="0"/>
      <point x="614" y="11"/>
      <point x="614" y="36" type="curve" smooth="yes"/>
      <point x="614" y="155" type="line" smooth="yes"/>
      <point x="614" y="180"/>
      <point x="603" y="191"/>
      <point x="578" y="191" type="curve" smooth="yes"/>
      <point x="339" y="191" type="line"/>
      <point x="571" y="472" type="line" smooth="yes"/>
      <point x="589" y="491"/>
      <point x="596" y="508"/>
      <point x="596" y="535" type="curve" smooth="yes"/>
      <point x="596" y="684" type="line" smooth="yes"/>
      <point x="596" y="709"/>
      <point x="585" y="720"/>
      <point x="560" y="720" type="curve" smooth="yes"/>
      <point x="100" y="720" type="line" smooth="yes"/>
      <point x="75" y="720"/>
      <point x="64" y="709"/>
      <point x="64" y="684" type="curve"/>
      <point x="64" y="563" type="line"/>
      <point x="64" y="538"/>
      <point x="75" y="527"/>
      <point x="100" y="527" type="curve" smooth="yes"/>
      <point x="314" y="527" type="line"/>
      <point x="71" y="232" type="line" smooth="yes"/>
      <point x="53" y="213"/>
      <point x="46" y="196"/>
      <point x="46" y="170" type="curve"/>
      <point x="46" y="36" type="line"/>
      <point x="46" y="11"/>
      <point x="57" y="0"/>
      <point x="82" y="0" type="curve" smooth="yes"/>
    </contour>
  </outline>
</glyph>
<glyph name="acaron" format="1">
  <advance width="730"/>
  <unicode hex="01CE"/>
  <outline>
    <contour>
      <point x="396" y="932" type="line"/>
      <point x="373" y="926"/>
      <point x="357" y="926"/>
      <point x="334" y="932" type="curve"/>
      <point x="197" y="972" type="line" smooth="yes"/>
      <point x="162" y="983"/>
      <point x="155" y="977"/>
      <point x="155" y="941" type="curve" smooth="yes"/>
      <point x="155" y="860" type="line" smooth="yes"/>
      <point x="155" y="824"/>
      <point x="163" y="820"/>
      <point x="197" y="807" type="curve" smooth="yes"/>
      <point x="334" y="757" type="line" smooth="yes"/>
      <point x="344" y="753"/>
      <point x="354" y="752"/>
      <point x="366" y="752" type="curve" smooth="yes"/>
      <point x="378" y="753"/>
      <point x="393" y="756"/>
      <point x="405" y="761" type="curve" smooth="yes"/>
      <point x="533" y="807" type="line" smooth="yes"/>
      <point x="565" y="820"/>
      <point x="574" y="824"/>
      <point x="574" y="860" type="curve" smooth="yes"/>
      <point x="574" y="941" type="line" smooth="yes"/>
      <point x="574" y="977"/>
      <point x="567" y="983"/>
      <point x="533" y="972" type="curve" smooth="yes"/>
    </contour>
    <contour>
      <point x="273" y="36" type="curve" smooth="yes"/>
      <point x="273" y="176" type="line"/>
      <point x="450" y="176" type="line"/>
      <point x="450" y="36" type="line" smooth="yes"/>
      <point x="450" y="11"/>
      <point x="462" y="0"/>
      <point x="489" y="0" type="curve" smooth="yes"/>
      <point x="640" y="0" type="line" smooth="yes"/>
      <point x="665" y="0"/>
      <point x="676" y="11"/>
      <point x="676" y="36" type="curve" smooth="yes"/>
      <point x="676" y="300" type="line" smooth="yes"/>
      <point x="676" y="340"/>
      <point x="664" y="390"/>
      <point x="637" y="460" type="curve" smooth="yes"/>
      <point x="550" y="687" type="line" smooth="yes"/>
      <point x="542" y="710"/>
      <point x="526" y="720"/>
      <point x="500" y="720" type="curve" smooth="yes"/>
      <point x="231" y="720" type="line" smooth="yes"/>
      <point x="204" y="720"/>
      <point x="188" y="710"/>
      <point x="180" y="687" type="curve" smooth="yes"/>
      <point x="93" y="460" type="line" smooth="yes"/>
      <point x="66" y="390"/>
      <point x="54" y="340"/>
      <point x="54" y="300" type="curve" smooth="yes"/>
      <point x="54" y="36" type="line" smooth="yes"/>
      <point x="54" y="11"/>
      <point x="65" y="0"/>
      <point x="90" y="0" type="curve" smooth="yes"/>
      <point x="237" y="0" type="line" smooth="yes"/>
      <point x="262" y="0"/>
      <point x="273" y="11"/>
    </contour>
    <contour>
      <point x="330" y="510" type="line"/>
      <point x="335" y="522"/>
      <point x="341" y="527"/>
      <point x="349" y="527" type="curve" smooth="yes"/>
      <point x="374" y="527" type="line" smooth="yes"/>
      <point x="382" y="527"/>
      <point x="388" y="522"/>
      <point x="393" y="510" type="curve"/>
      <point x="440" y="358" type="line"/>
      <point x="283" y="358" type="line"/>
    </contour>
  </outline>
</glyph>
<glyph name="icaron" format="1">
  <advance width="605"/>
  <unicode hex="01D0"/>
  <outline>
    <contour>
      <point x="334" y="932" type="line"/>
      <point x="311" y="926"/>
      <point x="295" y="926"/>
      <point x="272" y="932" type="curve"/>
      <point x="135" y="972" type="line" smooth="yes"/>
      <point x="100" y="983"/>
      <point x="93" y="977"/>
      <point x="93" y="941" type="curve" smooth="yes"/>
      <point x="93" y="860" type="line" smooth="yes"/>
      <point x="93" y="824"/>
      <point x="101" y="820"/>
      <point x="135" y="807" type="curve" smooth="yes"/>
      <point x="272" y="757" type="line" smooth="yes"/>
      <point x="282" y="753"/>
      <point x="292" y="752"/>
      <point x="304" y="752" type="curve" smooth="yes"/>
      <point x="316" y="753"/>
      <point x="331" y="756"/>
      <point x="343" y="761" type="curve" smooth="yes"/>
      <point x="471" y="807" type="line" smooth="yes"/>
      <point x="503" y="820"/>
      <point x="512" y="824"/>
      <point x="512" y="860" type="curve" smooth="yes"/>
      <point x="512" y="941" type="line" smooth="yes"/>
      <point x="512" y="977"/>
      <point x="505" y="983"/>
      <point x="471" y="972" type="curve" smooth="yes"/>
    </contour>
    <contour>
      <point x="89" y="0" type="curve" smooth="yes"/>
      <point x="515" y="0" type="line" smooth="yes"/>
      <point x="540" y="0"/>
      <point x="551" y="11"/>
      <point x="551" y="36" type="curve" smooth="yes"/>
      <point x="551" y="155" type="line" smooth="yes"/>
      <point x="551" y="180"/>
      <point x="540" y="191"/>
      <point x="515" y="191" type="curve" smooth="yes"/>
      <point x="418" y="191" type="line"/>
      <point x="418" y="527" type="line"/>
      <point x="515" y="527" type="line" smooth="yes"/>
      <point x="540" y="527"/>
      <point x="551" y="538"/>
      <point x="551" y="563" type="curve" smooth="yes"/>
      <point x="551" y="684" type="line" smooth="yes"/>
      <point x="551" y="709"/>
      <point x="540" y="720"/>
      <point x="515" y="720" type="curve" smooth="yes"/>
      <point x="89" y="720" type="line" smooth="yes"/>
      <point x="64" y="720"/>
      <point x="53" y="709"/>
      <point x="53" y="684" type="curve" smooth="yes"/>
      <point x="53" y="563" type="line" smooth="yes"/>
      <point x="53" y="538"/>
      <point x="64" y="527"/>
      <point x="89" y="527" type="curve" smooth="yes"/>
      <point x="188" y="527" type="line"/>
      <point x="188" y="191" type="line"/>
      <point x="89" y="191" type="line" smooth="yes"/>
      <point x="64" y="191"/>
      <point x="53" y="180"/>
      <point x="53" y="155" type="curve" smooth="yes"/>
      <point x="53" y="36" type="line" smooth="yes"/>
      <point x="53" y="11"/>
      <point x="64" y="0"/>
    </contour>
  </outline>
</glyph>
<glyph name="ocaron" format="1">
  <advance width="737"/>
  <unicode hex="01D2"/>
  <outline>
    <contour>
      <point x="399" y="932" type="line"/>
      <point x="376" y="926"/>
      <point x="360" y="926"/>
      <point x="337" y="932" type="curve"/>
      <point x="200" y="972" type="line" smooth="yes"/>
      <point x="165" y="983"/>
      <point x="158" y="977"/>
      <point x="158" y="941" type="curve" smooth="yes"/>
      <point x="158" y="860" type="line" smooth="yes"/>
      <point x="158" y="824"/>
      <point x="166" y="820"/>
      <point x="200" y="807" type="curve" smooth="yes"/>
      <point x="337" y="757" type="line" smooth="yes"/>
      <point x="347" y="753"/>
      <point x="357" y="752"/>
      <point x="369" y="752" type="curve" smooth="yes"/>
      <point x="381" y="753"/>
      <point x="396" y="756"/>
      <point x="408" y="761" type="curve" smooth="yes"/>
      <point x="536" y="807" type="line" smooth="yes"/>
      <point x="568" y="820"/>
      <point x="577" y="824"/>
      <point x="577" y="860" type="curve" smooth="yes"/>
      <point x="577" y="941" type="line" smooth="yes"/>
      <point x="577" y="977"/>
      <point x="570" y="983"/>
      <point x="536" y="972" type="curve" smooth="yes"/>
    </contour>
    <contour>
      <point x="679" y="189" type="curve" smooth="yes"/>
      <point x="679" y="530" type="line" smooth="yes"/>
      <point x="679" y="652"/>
      <point x="619" y="735"/>
      <point x="369" y="735" type="curve" smooth="yes"/>
      <point x="119" y="735"/>
      <point x="58" y="652"/>
      <point x="58" y="530" type="curve" smooth="yes"/>
      <point x="58" y="189" type="line" smooth="yes"/>
      <point x="58" y="67"/>
      <point x="119" y="-15"/>
      <point x="369" y="-15" type="curve" smooth="yes"/>
      <point x="619" y="-15"/>
      <point x="679" y="67"/>
    </contour>
    <contour>
      <point x="285" y="225" type="curve" smooth="yes"/>
      <point x="285" y="494" type="line" smooth="yes"/>
      <point x="285" y="520"/>
      <point x="297" y="540"/>
      <point x="369" y="540" type="curve" smooth="yes"/>
      <point x="442" y="540"/>
      <point x="453" y="520"/>
      <point x="453" y="494" type="curve" smooth="yes"/>
      <point x="453" y="225" type="line" smooth="yes"/>
      <point x="453" y="198"/>
      <point x="442" y="178"/>
      <point x="369" y="178" type="curve" smooth="yes"/>
      <point x="297" y="178"/>
      <point x="285" y="198"/>
    </contour>
  </outline>
</glyph>
